<svg width="1920" height="1080" viewBox="0 0 1920 1080" fill="none" xmlns="http://www.w3.org/2000/svg">
<g clip-path="url(#clip0)">
<path opacity="0.1" d="M1624.82 609.37C1574.59 673.234 1594.11 766.531 1626.02 841.25C1636.71 866.267 1648.8 892.734 1644.29 919.562C1638.78 952.368 1609.5 976.357 1578.76 989.07C1522.72 1012.25 1455.66 1006.72 1404.16 974.69C1359.67 947.008 1327.8 901.99 1282.54 875.567C1206.8 831.349 1110.39 848.047 1028.15 878.506C969.965 900.056 906.352 928.08 848.536 905.56C807.853 889.713 779.732 851.144 764.41 810.261C757.012 790.522 751.643 769.157 737.516 753.511C729.118 744.21 718.158 737.608 706.93 732.041C604.405 681.207 474.917 708.429 375.335 652.047C308.08 613.969 265.025 542.141 245.961 467.244C226.897 392.346 229.118 313.811 233.958 236.677C237.397 181.861 243.569 123.34 278.594 81.0335C315.646 36.279 379.234 19.6374 436.709 28.1439C494.185 36.6503 546.281 66.9685 592.114 102.678C649.395 147.307 702.517 202.882 772.845 220.96C820.739 233.271 871.12 226.537 920.516 224.205C1003.1 220.306 1085.71 228.976 1167.83 238.47C1246.45 247.559 1325.64 257.562 1400.53 283.137C1453.54 301.236 1496.03 334.089 1546.08 357.041C1578.7 372.002 1614.27 376.133 1645.16 395.189C1683.21 418.663 1718.09 459.491 1708.34 507.268C1699.08 552.691 1651.48 575.474 1624.82 609.37Z" fill="#FC164D"/>
<path d="M1190.34 221.868C1190.34 221.868 1109.6 197.955 1104.26 265.974C1098.93 333.994 1125.6 446.026 1104.26 482.036C1082.92 518.047 1006.78 570.074 1046.85 574.736C1086.92 579.397 1106.93 586.066 1094.93 610.073C1082.92 634.08 1020.24 656.753 1033.58 674.091C1046.91 691.43 1053.58 712.769 1040.24 734.109C1026.91 755.448 980.227 768.785 988.229 783.456C996.231 798.127 1025.57 806.129 1010.9 822.134C996.231 838.139 953.702 874.544 970.299 874.346" stroke="#535461" stroke-width="3" stroke-miterlimit="10"/>
<path d="M1308.29 176.551H1138.02C1128.46 176.551 1120.72 184.296 1120.72 193.849V254.268C1120.72 263.821 1128.46 271.566 1138.02 271.566H1308.29C1317.85 271.566 1325.59 263.821 1325.59 254.268V193.849C1325.59 184.296 1317.85 176.551 1308.29 176.551Z" fill="#FC164D"/>
<path opacity="0.1" d="M1309.26 256.983H1137.05V258.765H1309.26V256.983Z" fill="black"/>
<path opacity="0.3" d="M1309.26 191.397H1137.05V256.72H1309.26V191.397Z" fill="black"/>
<path opacity="0.1" d="M1177.13 249.175C1190.25 249.175 1200.89 238.541 1200.89 225.422C1200.89 212.303 1190.25 201.668 1177.13 201.668C1164.01 201.668 1153.38 212.303 1153.38 225.422C1153.38 238.541 1164.01 249.175 1177.13 249.175Z" fill="black"/>
<path opacity="0.1" d="M1269.18 249.175C1282.3 249.175 1292.93 238.541 1292.93 225.422C1292.93 212.303 1282.3 201.668 1269.18 201.668C1256.06 201.668 1245.42 212.303 1245.42 225.422C1245.42 238.541 1256.06 249.175 1269.18 249.175Z" fill="black"/>
<path d="M1240.97 271.563H1205.34V292.353H1240.97V271.563Z" fill="#FC164D"/>
<path d="M1297.39 286.412H1148.93V405.18H1297.39V286.412Z" fill="#FC164D"/>
<path d="M1300.35 428.933H1145.96V443.779H1300.35V428.933Z" fill="#FC164D"/>
<path d="M1171.2 479.41V497.225V523.947V538.794V547.702H1197.92V538.794V523.947V497.225V479.41V458.626H1171.2V479.41Z" fill="#FC164D"/>
<path d="M1251.36 458.626V479.41V497.225V523.947V538.794V547.702H1278.09V538.794V523.947V497.225V479.41V458.626H1251.36Z" fill="#FC164D"/>
<path d="M1128.7 313.135V340.598C1121.37 341.879 1114.53 345.174 1108.96 350.114C1103.8 354.898 1099.78 360.789 1097.21 367.345C1093.94 375.762 1091.99 384.635 1091.43 393.649C1090.59 405.435 1091.14 417.279 1093.07 428.937H1063.38C1062.14 414.753 1062.4 400.478 1064.15 386.349C1065.55 374.67 1068.77 363.282 1073.68 352.595C1082.29 334.552 1094.52 324.764 1105.27 319.447C1112.55 315.724 1120.54 313.573 1128.7 313.135Z" fill="#FC164D"/>
<path opacity="0.3" d="M1197.92 458.625H1171.19V479.41H1197.92V458.625Z" fill="black"/>
<path opacity="0.3" d="M1197.92 497.225H1171.19V523.948H1197.92V497.225Z" fill="black"/>
<path opacity="0.3" d="M1197.92 538.794H1171.19V547.701H1197.92V538.794Z" fill="black"/>
<path opacity="0.3" d="M1278.09 458.625H1251.36V479.41H1278.09V458.625Z" fill="black"/>
<path opacity="0.3" d="M1278.09 497.225H1251.36V523.948H1278.09V497.225Z" fill="black"/>
<path opacity="0.3" d="M1278.09 538.794H1251.36V547.701H1278.09V538.794Z" fill="black"/>
<path opacity="0.3" d="M1128.7 313.135V340.598C1121.37 341.879 1114.53 345.174 1108.96 350.114L1105.27 319.447C1112.55 315.724 1120.54 313.573 1128.7 313.135V313.135Z" fill="black"/>
<path opacity="0.3" d="M1097.21 367.345C1093.94 375.762 1091.99 384.635 1091.43 393.649L1064.15 386.349C1065.55 374.67 1068.77 363.282 1073.68 352.595L1097.21 367.345Z" fill="black"/>
<path d="M1317.61 313.135V340.598C1324.94 341.879 1331.78 345.174 1337.35 350.114C1342.51 354.898 1346.53 360.789 1349.1 367.345C1352.37 375.762 1354.32 384.635 1354.88 393.649C1355.73 405.435 1355.17 417.279 1353.24 428.937H1382.93C1384.17 414.753 1383.91 400.478 1382.16 386.349C1380.76 374.67 1377.54 363.282 1372.63 352.595C1364.03 334.552 1351.79 324.764 1341.04 319.447C1333.76 315.724 1325.77 313.573 1317.61 313.135V313.135Z" fill="#FC164D"/>
<path opacity="0.3" d="M1317.61 313.135V340.598C1324.94 341.879 1331.78 345.174 1337.35 350.114L1341.04 319.447C1333.76 315.724 1325.77 313.573 1317.61 313.135V313.135Z" fill="black"/>
<path opacity="0.3" d="M1349.1 367.345C1352.37 375.762 1354.32 384.635 1354.88 393.649L1382.16 386.349C1380.76 374.67 1377.54 363.282 1372.63 352.595L1349.1 367.345Z" fill="black"/>
<path opacity="0.1" d="M1240.97 271.563H1205.34V274.024H1240.97V271.563Z" fill="black"/>
<path opacity="0.1" d="M1300.02 307.573V357.298C1298.25 355.381 1297.26 352.863 1297.26 350.25V314.614C1297.26 312.003 1298.25 309.488 1300.02 307.573V307.573Z" fill="black"/>
<path opacity="0.1" d="M1149.45 310.852V348.075C1149.28 350.429 1148.3 352.651 1146.69 354.374V304.554C1148.3 306.276 1149.28 308.498 1149.45 310.852V310.852Z" fill="black"/>
<path opacity="0.1" d="M1289.96 405.182H1156.35V406.941H1289.96V405.182Z" fill="black"/>
<path opacity="0.1" d="M1218.7 443.782H1153.38V445.146H1218.7V443.782Z" fill="black"/>
<path opacity="0.1" d="M1289.96 443.782H1224.64V445.146H1289.96V443.782Z" fill="black"/>
<path d="M1170.89 88.6217H1160.67V176.551H1170.89V88.6217Z" fill="#FC164D"/>
<path d="M1288.13 88.6217H1277.9V176.551H1288.13V88.6217Z" fill="#FC164D"/>
<path opacity="0.1" d="M1165.44 100.891C1171.84 100.891 1177.02 95.703 1177.02 89.3033C1177.02 82.9036 1171.84 77.7157 1165.44 77.7157C1159.04 77.7157 1153.85 82.9036 1153.85 89.3033C1153.85 95.703 1159.04 100.891 1165.44 100.891Z" fill="black"/>
<path d="M1165.44 100.209C1171.84 100.209 1177.02 95.0213 1177.02 88.6217C1177.02 82.222 1171.84 77.0341 1165.44 77.0341C1159.04 77.0341 1153.85 82.222 1153.85 88.6217C1153.85 95.0213 1159.04 100.209 1165.44 100.209Z" fill="#FC164D"/>
<path opacity="0.1" d="M1283.36 100.891C1289.76 100.891 1294.95 95.703 1294.95 89.3033C1294.95 82.9036 1289.76 77.7157 1283.36 77.7157C1276.96 77.7157 1271.77 82.9036 1271.77 89.3033C1271.77 95.703 1276.96 100.891 1283.36 100.891Z" fill="black"/>
<path d="M1283.36 100.209C1289.76 100.209 1294.95 95.0213 1294.95 88.6217C1294.95 82.222 1289.76 77.0341 1283.36 77.0341C1276.96 77.0341 1271.77 82.222 1271.77 88.6217C1271.77 95.0213 1276.96 100.209 1283.36 100.209Z" fill="#FC164D"/>
<path opacity="0.5" d="M1042.25 598.064C1037.69 602.628 1036.65 608.897 1035.03 614.709C1030.4 631.305 1019.52 646.614 1004.34 657.858C993.227 666.094 978.326 675.214 980.961 687.503C981.591 690.439 983.255 693.18 983.692 696.141C985.584 708.958 965.99 715.711 958.406 726.927C952.756 735.282 954.265 745.633 955.945 755.15C958 766.798 960.486 779.226 970.043 787.802C972.621 790.115 975.695 792.124 977.494 794.914C981.525 801.167 978.022 809.361 981.686 815.773C986.573 824.323 1001.96 824.694 1010.89 818.929C1019.82 813.164 1023.95 803.686 1027.91 794.8C1038.61 770.784 1051.76 746.688 1073.99 729.199C1095.3 712.431 1126.31 699.423 1129.97 675.015C1131.54 664.55 1127.56 653.081 1133.63 643.86C1136.5 639.503 1141.29 636.274 1144.54 632.111C1154.21 619.708 1147.01 601.765 1132.85 592.957C1111.47 579.658 1060.84 579.443 1042.25 598.064Z" fill="#DEE3F3"/>
<path d="M1416.98 152.168L1322.78 181.602L1326.36 193.059L1420.56 163.625L1416.98 152.168Z" fill="#FC164D"/>
<path d="M1458.93 598.091C1458.93 598.091 1407.28 587.761 1393.51 573.989C1379.73 560.217 1317.76 536.115 1310.87 553.33C1303.99 570.546 1217.91 629.079 1276.44 639.408C1334.97 649.737 1414.17 653.18 1431.38 646.294C1448.6 639.408 1458.93 598.091 1458.93 598.091Z" fill="#A8A8A8"/>
<path opacity="0.2" d="M1276.44 633.012C1334.97 643.342 1414.17 646.785 1431.38 639.898C1444.49 634.654 1453.6 609.457 1457.2 597.732C1458.29 597.964 1458.93 598.091 1458.93 598.091C1458.93 598.091 1448.6 639.408 1431.38 646.294C1414.17 653.18 1334.97 649.737 1276.44 639.408C1259.54 636.426 1254.71 629.424 1256.53 620.562C1257.98 626.344 1263.87 630.793 1276.44 633.012Z" fill="black"/>
<path d="M1573.62 147.818C1572.7 145.525 1571.23 143.491 1569.35 141.894C1555.49 129.263 1533.07 133.092 1515.87 125.376C1511.9 123.599 1507.84 121.133 1503.53 121.809C1497.52 122.752 1491.93 129.595 1486.69 126.559L1487.07 127.702C1486.94 127.641 1486.82 127.579 1486.69 127.507C1487.98 131.42 1489.26 135.333 1490.55 139.246C1492.03 143.752 1493.59 148.391 1496.46 152.143C1492.21 155.854 1488.95 160.573 1486.99 165.868C1485.03 171.162 1484.43 176.864 1485.24 182.451C1486.05 188.038 1488.25 193.333 1491.64 197.85C1495.03 202.367 1499.49 205.963 1504.63 208.309C1504.81 208.701 1504.99 209.096 1505.17 209.495C1505.33 209.568 1505.5 209.632 1505.66 209.703C1506.81 212.328 1507.66 215.07 1508.21 217.88C1503.75 218.497 1495.97 223.428 1488.32 230.711L1473.03 230.188C1463.15 229.858 1453.59 226.608 1445.55 220.847L1399.82 187.969C1396.56 188.289 1393.49 189.646 1391.06 191.842C1385.38 185.925 1380.56 179.743 1380.97 176.122C1380.97 176.122 1359.71 136.318 1351.97 156.22C1344.24 176.122 1366.47 196.972 1366.47 196.972L1380.58 215.244C1380.02 218.447 1379.67 221.682 1379.52 224.929C1396.92 244.831 1457.82 262.838 1457.82 262.838L1467.32 263.298C1467.34 263.472 1467.36 263.619 1467.37 263.764C1466.79 266.256 1466.51 268.808 1466.52 271.368C1466.53 271.735 1466.54 272.12 1466.54 272.505C1466.54 272.757 1466.52 273.011 1466.52 273.263C1467.01 305.011 1471.36 402.152 1471.36 402.152C1472.2 401.775 1473.08 401.43 1473.97 401.105L1473.29 409.734C1473.29 409.734 1432.69 415.42 1402.72 426.793C1372.76 438.166 1371.79 451.434 1371.79 451.434V568.508C1363.23 572.901 1349.72 578.674 1342.79 575.584C1335.26 572.231 1331.13 575.049 1330.38 577.99V577.99C1330.23 578.568 1330.22 579.175 1330.35 579.758L1330.36 579.794C1330.42 580.055 1330.52 580.308 1330.65 580.544L1330.68 580.6C1330.82 580.846 1330.99 581.072 1331.19 581.271C1334.09 584.114 1396.92 608.754 1411.42 604.964C1411.87 604.847 1412.31 604.699 1412.74 604.521C1412.88 604.463 1413 604.387 1413.13 604.324C1413.4 604.197 1413.67 604.074 1413.92 603.925C1414.07 603.837 1414.21 603.73 1414.35 603.635C1414.57 603.489 1414.79 603.349 1414.99 603.187C1415.13 603.075 1415.26 602.946 1415.39 602.826C1415.58 602.659 1415.77 602.498 1415.94 602.318C1416.07 602.186 1416.18 602.041 1416.3 601.902C1416.47 601.713 1416.64 601.528 1416.79 601.326C1416.9 601.181 1417 601.024 1417.1 600.872C1417.25 600.659 1417.39 600.449 1417.53 600.224C1417.62 600.069 1417.7 599.904 1417.79 599.744C1417.92 599.506 1418.05 599.27 1418.17 599.021C1418.25 598.861 1418.32 598.693 1418.39 598.529C1418.5 598.266 1418.62 598.002 1418.72 597.729C1418.78 597.568 1418.84 597.401 1418.89 597.237C1418.99 596.946 1419.09 596.655 1419.18 596.356C1419.23 596.2 1419.27 596.04 1419.31 595.883C1419.4 595.563 1419.49 595.241 1419.56 594.913C1419.6 594.767 1419.63 594.618 1419.66 594.471C1419.73 594.121 1419.8 593.77 1419.87 593.412C1419.89 593.28 1419.91 593.147 1419.93 593.014C1419.99 592.632 1420.05 592.249 1420.1 591.861C1420.11 591.749 1420.12 591.638 1420.14 591.526C1420.18 591.11 1420.23 590.693 1420.26 590.273C1420.27 590.185 1420.28 590.097 1420.28 590.009C1420.32 589.56 1420.34 589.11 1420.37 588.658C1420.37 588.598 1420.37 588.538 1420.37 588.477C1420.39 587.995 1420.41 587.512 1420.41 587.03L1420.41 586.938C1420.39 581.285 1419.77 575.649 1418.55 570.128V570.128L1422.06 470.388C1441.04 470.683 1460.03 469.984 1478.94 468.293L1481.02 515.878C1481.02 515.878 1481.02 547.153 1491.66 561.369C1500.76 573.535 1511.27 627.34 1514.12 642.606C1510.21 650.055 1502.74 659.267 1489.72 658.984C1489.72 658.984 1465.24 656.867 1466.62 663.601L1466.62 663.613C1466.66 663.789 1466.71 663.961 1466.78 664.129L1466.79 664.173C1466.87 664.367 1466.96 664.555 1467.06 664.737L1467.08 664.775C1467.18 664.949 1467.29 665.128 1467.42 665.312C1467.45 665.349 1467.47 665.386 1467.5 665.424C1467.64 665.623 1467.8 665.826 1467.97 666.036L1468.02 666.086C1468.18 666.276 1468.36 666.472 1468.56 666.671C1468.61 666.727 1468.66 666.782 1468.72 666.838C1468.94 667.058 1469.17 667.281 1469.42 667.513C1481.99 678.886 1555.46 680.781 1555.46 680.781L1555.46 680.737L1555.46 680.708L1555.46 680.566L1555.46 680.525C1555.46 680.452 1555.46 680.361 1555.45 680.26L1555.45 680.221C1555.41 676.932 1554.97 659.661 1550.57 646.663H1551.59C1551.59 646.663 1540.96 550.944 1532.26 539.571C1532.26 539.571 1529.95 489.1 1535.16 457.468C1535.48 457.352 1535.81 457.238 1536.13 457.12C1560.5 448.018 1562.22 425.603 1559.71 409.133C1564.33 410.615 1567.06 411.63 1567.06 411.63C1567.06 411.63 1566.97 410.913 1566.82 409.646C1566.97 409.702 1567.06 409.734 1567.06 409.734C1567.06 409.734 1566.59 406.725 1565.83 402.026C1564.09 389.113 1560.71 366.544 1557.11 355.89C1556.53 353.547 1555.97 351.546 1555.46 350.028C1553.38 343.626 1551.96 337.03 1551.2 330.342C1550.22 321.675 1549.72 312.959 1549.71 304.236C1549.79 292.58 1550.68 280.943 1552.38 269.411C1553.86 259.338 1555.19 247.883 1555.07 239.883C1555.17 237.097 1554.98 234.308 1554.49 231.564C1553.2 225.657 1547.5 221.817 1541.58 219.373C1541.2 219.216 1540.81 219.087 1540.42 218.94C1540.57 216.702 1540.76 214.165 1541 211.491C1541.71 211.983 1542.51 212.325 1543.36 212.496C1544.21 212.668 1545.08 212.665 1545.93 212.488C1548.47 211.931 1550.3 209.805 1551.93 207.806C1560.5 197.284 1569.29 186.315 1572.58 173.243C1573.9 167.405 1574.51 161.43 1574.4 155.446C1574.4 155.119 1574.4 154.791 1574.4 154.463C1574.52 152.219 1574.26 149.971 1573.62 147.818V147.818Z" fill="url(#paint0_linear)"/>
<path d="M1495.61 199.114C1495.61 199.114 1508.59 218.584 1505.81 227.856C1503.03 237.128 1536.41 231.565 1536.41 231.565C1536.41 231.565 1537.34 195.405 1543.83 187.06C1550.32 178.716 1495.61 199.114 1495.61 199.114Z" fill="#F7C4A7"/>
<path d="M1409.85 211.631C1409.85 211.631 1382.96 189.379 1383.89 181.034C1383.89 181.034 1363.49 142.093 1356.07 161.563C1348.66 181.034 1369.98 201.432 1369.98 201.432L1395.94 235.737L1409.85 211.631Z" fill="#F7C4A7"/>
<path d="M1382.5 560.712C1382.5 560.712 1357.46 576.474 1347.27 571.838C1337.07 567.202 1333.36 574.62 1336.14 577.401C1338.92 580.183 1399.19 604.289 1413.09 600.58C1427 596.872 1419.93 566.5 1419.93 566.5L1382.5 560.712Z" fill="#535461"/>
<path d="M1515.08 628.396C1515.08 628.396 1509.06 653.893 1488.2 653.429C1488.2 653.429 1456.67 650.648 1468.73 661.774C1480.78 672.9 1551.24 674.754 1551.24 674.754C1551.24 674.754 1551.24 636.74 1538.26 628.396C1525.28 620.051 1515.08 628.396 1515.08 628.396Z" fill="#535461"/>
<path d="M1477.07 448.524L1479.85 513.426C1479.85 513.426 1479.85 544.023 1490.05 557.93C1500.25 571.838 1512.3 641.376 1512.3 641.376H1547.53C1547.53 641.376 1537.34 547.731 1528.99 536.605C1528.99 536.605 1525.28 454.087 1538.26 435.543L1477.07 448.524Z" fill="#575988"/>
<path opacity="0.1" d="M1477.07 448.524L1479.85 513.426C1479.85 513.426 1479.85 544.023 1490.05 557.93C1500.25 571.838 1512.3 641.376 1512.3 641.376H1547.53C1547.53 641.376 1537.34 547.731 1528.99 536.605C1528.99 536.605 1525.28 454.087 1538.26 435.543L1477.07 448.524Z" fill="black"/>
<path d="M1550.32 390.112C1550.32 390.112 1571.64 441.106 1532.7 455.941C1493.76 470.776 1423.29 468.922 1423.29 468.922L1419.58 576.474C1419.58 576.474 1376.01 582.037 1375.08 568.129V450.378C1375.08 450.378 1376.01 437.398 1404.75 426.272C1433.49 415.145 1472.43 409.582 1472.43 409.582L1474.29 385.476L1550.32 390.112Z" fill="#575988"/>
<path opacity="0.1" d="M1516.15 222.122C1523.55 221.303 1531.04 222.363 1537.93 225.202C1543.61 227.593 1549.08 231.35 1550.32 237.128C1551.78 243.971 1550.16 259.318 1548.29 272.3C1545.31 292.657 1544.93 313.312 1547.16 333.765C1548.12 342.282 1549.44 349.71 1551.24 353.025C1556.81 363.224 1562.37 411.437 1562.37 411.437C1562.37 411.437 1501.18 388.257 1470.58 402.165C1470.58 402.165 1466.41 307.13 1465.94 276.069C1465.58 252.019 1496.08 224.611 1506.28 223.684C1512.25 223.141 1510.21 222.738 1516.15 222.122Z" fill="black"/>
<path d="M1516.15 220.268C1523.55 219.449 1531.04 220.508 1537.93 223.348C1543.61 225.738 1549.08 229.495 1550.32 235.274C1551.78 242.117 1550.16 257.463 1548.29 270.446C1545.31 290.803 1544.93 311.458 1547.16 331.911C1547.88 338.45 1549.25 344.901 1551.24 351.17C1555.42 363.687 1562.37 409.582 1562.37 409.582C1562.37 409.582 1501.18 386.403 1470.58 400.311C1470.58 400.311 1466.41 305.275 1465.94 274.215C1465.58 250.165 1496.08 222.757 1506.28 221.83C1512.25 221.286 1510.21 220.884 1516.15 220.268Z" fill="#E14B5A"/>
<path opacity="0.1" d="M1532.7 271.433L1466.87 267.725C1466.87 267.725 1462.68 235.451 1472.18 235.782L1537.34 238.055C1537.34 238.055 1551.24 254.744 1532.7 271.433Z" fill="black"/>
<path d="M1532.7 269.579L1457.6 265.87C1457.6 265.87 1399.19 248.254 1382.5 228.783C1382.5 228.783 1383.42 194.478 1401.97 192.624L1445.83 224.789C1453.5 230.412 1462.68 233.597 1472.18 233.928L1537.34 236.201C1537.34 236.201 1551.24 252.89 1532.7 269.579Z" fill="#E14B5A"/>
<path opacity="0.1" d="M1535.95 203.286C1537.05 194.494 1541.03 191.578 1543.83 187.988C1550.32 179.643 1495.61 200.041 1495.61 200.041C1498.43 204.386 1500.91 208.948 1503.01 213.683C1507.38 215.694 1512.13 216.734 1516.94 216.73C1525 216.73 1530.18 208.048 1535.95 203.286Z" fill="black"/>
<path d="M1516.94 215.803C1535.37 215.803 1550.32 200.859 1550.32 182.425C1550.32 163.99 1535.37 149.046 1516.94 149.046C1498.5 149.046 1483.56 163.99 1483.56 182.425C1483.56 200.859 1498.5 215.803 1516.94 215.803Z" fill="#F7C4A7"/>
<path opacity="0.1" d="M1495.86 159.029C1492.31 155.147 1490.6 149.968 1488.98 144.957L1485.29 133.472C1490.31 136.442 1495.67 129.748 1501.44 128.825C1505.57 128.164 1509.47 130.577 1513.27 132.315C1529.77 139.864 1551.27 136.118 1564.56 148.475C1566.38 150.047 1567.78 152.035 1568.66 154.27C1569.28 156.39 1569.53 158.601 1569.41 160.806C1569.51 166.658 1568.93 172.502 1567.67 178.217C1564.51 191.006 1556.07 201.736 1547.86 212.031C1546.3 213.987 1544.54 216.066 1542.1 216.612C1537.33 217.677 1533.64 212.52 1531.79 207.994C1529.35 201.999 1527.54 195.761 1526.41 189.386C1526.13 186.659 1525.38 184.001 1524.21 181.522C1521.34 176.428 1514.26 171.609 1509.95 167.664C1505.72 163.786 1499.82 163.347 1495.86 159.029Z" fill="black"/>
<path d="M1495.86 158.102C1492.31 154.219 1490.6 149.04 1488.98 144.03L1485.29 132.545C1490.31 135.515 1495.67 128.821 1501.44 127.898C1505.57 127.237 1509.47 129.649 1513.27 131.388C1529.77 138.937 1551.27 135.191 1564.56 147.548C1566.38 149.12 1567.78 151.108 1568.66 153.343C1569.28 155.463 1569.53 157.674 1569.41 159.879C1569.51 165.731 1568.93 171.575 1567.67 177.29C1564.51 190.079 1556.07 200.809 1547.86 211.104C1546.3 213.06 1544.54 215.139 1542.1 215.685C1537.33 216.75 1533.64 211.593 1531.79 207.067C1529.35 201.072 1527.54 194.834 1526.41 188.459C1526.13 185.732 1525.38 183.073 1524.21 180.594C1521.34 175.501 1514.26 170.682 1509.95 166.737C1505.72 162.859 1499.82 162.42 1495.86 158.102Z" fill="#632652"/>
<path d="M1525.75 192.16C1527.28 192.16 1528.53 189.462 1528.53 186.133C1528.53 182.805 1527.28 180.107 1525.75 180.107C1524.21 180.107 1522.96 182.805 1522.96 186.133C1522.96 189.462 1524.21 192.16 1525.75 192.16Z" fill="#F7C4A7"/>
<path opacity="0.1" d="M1542.44 346.998C1542.44 346.998 1540.58 352.561 1531.31 351.634C1522.04 350.707 1495.15 348.852 1495.15 351.634" fill="black"/>
<path opacity="0.5" d="M1468.73 660.847C1467.45 659.864 1466.51 658.514 1466.03 656.978C1465.78 658.183 1466.53 659.747 1468.73 661.774C1480.78 672.9 1551.24 674.754 1551.24 674.754C1551.24 674.754 1551.24 674.426 1551.23 673.827C1550.79 673.815 1480.74 671.937 1468.73 660.847Z" fill="white"/>
<path opacity="0.5" d="M1413.09 598.726C1399.19 602.435 1338.92 578.328 1336.14 575.547C1335.77 575.17 1335.5 574.703 1335.37 574.191C1335.21 574.747 1335.19 575.336 1335.33 575.898C1335.46 576.461 1335.74 576.979 1336.14 577.401C1338.92 580.183 1399.19 604.289 1413.09 600.58C1420.25 598.671 1421.85 589.701 1421.72 581.442C1421.58 589.144 1419.72 596.959 1413.09 598.726Z" fill="white"/>
<path d="M884.191 669.786C880.939 651.696 878.944 633.403 878.22 615.037V615.037C877.582 599.912 872.279 585.354 863.038 573.362C853.798 561.37 841.073 552.532 826.609 548.06C821.342 546.44 815.533 544.925 809.129 543.565C752.942 531.631 735.873 542.051 733.934 543.42C732.298 540.428 730.877 537.324 729.68 534.13C729.585 533.805 729.496 533.475 729.405 533.147C740.524 521.288 747.299 506.012 748.623 489.809C757.995 480.306 763.471 468.84 763.471 456.496C763.471 445.879 759.417 435.915 752.322 427.287V410.534C752.322 400.953 750.435 391.465 746.768 382.613C743.101 373.761 737.727 365.718 730.952 358.943C724.177 352.167 716.134 346.793 707.282 343.126C698.429 339.46 688.942 337.573 679.36 337.573H673.444C663.862 337.573 654.374 339.46 645.522 343.126C636.67 346.793 628.627 352.167 621.852 358.943C615.077 365.718 609.703 373.761 606.036 382.613C602.369 391.465 600.482 400.953 600.482 410.534V428.618C594.088 436.516 590.535 446.335 590.395 456.496C590.395 468.581 595.647 479.822 604.661 489.206C605.893 506.003 612.979 521.836 624.685 533.946C625.08 536.685 625.485 539.635 625.885 542.745L525.359 564.005C525.359 564.005 486.602 565.598 461.65 617.096C440.525 660.692 398.476 772.774 386.069 806.141H386.069L386.069 806.142C383.821 812.189 382.544 815.655 382.544 815.655C382.544 815.655 382.956 815.239 383.745 814.528C382.965 816.637 382.544 817.779 382.544 817.779C382.544 817.779 383.155 817.162 384.314 816.148C382.553 830.112 382.302 854.079 400.595 857.066C415.929 859.569 455.427 860.597 485.275 861.019V861.048H487.345C507.124 861.313 522.173 861.313 522.173 861.313V861.048H843.107V857.759C843.111 854.771 842.509 851.814 841.338 849.065C841.493 848.888 841.642 848.709 841.786 848.529C843.503 850.796 844.646 853.446 845.116 856.251C845.08 856.525 845.03 856.797 844.965 857.066C844.965 857.066 845.031 856.895 845.154 856.575C845.231 857.451 845.167 858.333 844.965 859.189C844.965 859.189 886.141 753.095 885.701 689.747C885.82 683.061 885.315 676.378 884.191 669.786ZM627.531 557.07C627.001 554.045 626.66 550.989 626.512 547.921L626.515 547.836C626.869 550.814 627.212 553.904 627.531 557.07ZM502.795 784.952V810.238L486.945 813.623L502.795 784.952Z" fill="url(#paint1_linear)"/>
<path d="M674.754 347.777H674.755C694.105 347.777 712.663 355.464 726.346 369.147C740.029 382.83 747.716 401.388 747.716 420.738V451.862H601.793V420.738C601.793 401.388 609.48 382.83 623.163 369.147C636.846 355.464 655.404 347.777 674.754 347.777V347.777Z" fill="#E14B5A"/>
<path d="M675.265 519.211C721.196 519.211 758.431 493.626 758.431 462.066C758.431 430.506 721.196 404.922 675.265 404.922C629.333 404.922 592.099 430.506 592.099 462.066C592.099 493.626 629.333 519.211 675.265 519.211Z" fill="#E14B5A"/>
<path d="M621.947 517.425C621.947 517.425 639.294 608.244 621.947 632.735C604.599 657.225 675.01 666.919 675.01 666.919L747.971 640.388L758.175 575.08C758.175 575.08 713.786 550.079 722.97 499.567L621.947 517.425Z" fill="#F7C4A7"/>
<path d="M837.259 823.557C837.259 823.557 841.851 843.455 816.851 847.027C802.087 849.199 787.072 849.02 772.363 846.497L766.849 796.515H825.014L837.259 823.557Z" fill="#F7C4A7"/>
<path d="M395.735 798.087C395.735 798.087 384.695 842.945 409.695 847.027C434.696 851.109 526.536 851.109 526.536 851.109V798.046L484.961 806.926L445.921 769.474L395.735 798.087Z" fill="#F7C4A7"/>
<path opacity="0.1" d="M627.304 546.763L529.597 567.427C529.597 567.427 492.351 568.957 468.371 618.449C444.39 667.94 392.348 809.271 392.348 809.271C392.348 809.271 436.737 764.371 488.779 812.332L523.474 749.575L515.821 849.068H784.707V802.128C784.707 802.128 840.831 832.231 836.749 849.068C836.749 849.068 884.776 725.324 874.447 669.085C871.321 651.701 869.404 634.12 868.709 616.471V616.47C868.096 601.934 862.999 587.944 854.118 576.419C845.238 564.895 833.008 556.401 819.108 552.103C814.047 550.546 808.465 549.09 802.31 547.783C744.655 535.538 729.858 547.783 729.858 547.783C729.858 547.783 718.69 584.122 718.889 600.591C719.144 621.765 688.786 635.796 688.786 635.796C688.786 635.796 643.886 625.081 641.845 616.408C639.805 607.734 623.733 556.967 627.304 546.763Z" fill="black"/>
<path d="M627.304 544.722L529.597 565.386C529.597 565.386 492.351 566.916 468.371 616.408C444.39 665.899 392.348 807.23 392.348 807.23C392.348 807.23 436.737 762.331 488.779 810.291L523.474 747.534L515.821 847.027H784.707V800.087C784.707 800.087 840.831 830.19 836.749 847.027C836.749 847.027 884.776 723.283 874.447 667.045C871.321 649.66 869.404 632.079 868.709 614.43V614.43C868.096 599.893 862.999 585.903 854.118 574.378C845.238 562.854 833.008 554.36 819.108 550.062C814.047 548.505 808.465 547.05 802.31 545.742C744.655 533.497 729.858 545.742 729.858 545.742C729.858 545.742 718.69 582.081 718.889 598.55C719.144 619.724 688.786 633.755 688.786 633.755C688.786 633.755 643.886 623.041 641.845 614.367C639.805 605.693 623.733 554.926 627.304 544.722Z" fill="#575988"/>
<path opacity="0.1" d="M727.163 540.386C723.059 528.764 722.14 516.256 724.501 504.159L623.477 522.017C623.477 522.017 624.936 529.652 626.584 541.09C633.112 547.864 640.951 553.24 649.622 556.89C658.293 560.54 667.617 562.389 677.025 562.323C686.433 562.257 695.729 560.278 704.348 556.507C712.968 552.736 720.73 547.251 727.163 540.386V540.386Z" fill="black"/>
<path d="M744.399 488.343C744.4 506.6 737.204 524.122 724.373 537.11C711.541 550.099 694.108 557.506 675.852 557.728C657.595 557.949 639.987 550.967 626.844 538.294C613.702 525.621 606.083 508.278 605.64 490.026C605.625 489.465 605.62 488.904 605.62 488.343C605.618 475.35 609.262 462.618 616.139 451.594C623.016 440.571 632.849 431.699 644.519 425.989C646.601 424.973 648.738 424.058 650.932 423.244C662.354 419.045 674.674 417.902 686.673 419.927C686.681 419.932 686.69 419.934 686.699 419.932C702.069 422.55 716.108 430.271 726.55 441.849C736.991 453.428 743.226 468.188 744.247 483.745C744.349 485.266 744.399 486.798 744.399 488.343Z" fill="#F7C4A7"/>
<g opacity="0.1">
<path opacity="0.1" d="M650.835 424.872C650.867 424.849 650.899 424.829 650.932 424.81C648.738 425.622 646.601 426.537 644.519 427.555C632.849 433.266 623.016 442.138 616.139 453.161C609.262 464.185 605.617 476.917 605.62 489.909C605.62 490.471 605.625 491.032 605.64 491.593C607.797 491.536 609.917 491.027 611.865 490.098C628.784 482.205 638.932 458.046 642.917 441.199C644.345 435.168 645.713 428.372 650.835 424.872Z" fill="black"/>
<path opacity="0.1" d="M703.949 426.821C698.458 424.297 692.658 422.508 686.699 421.499C691.587 422.623 695.952 425.365 699.087 429.28C700.623 431.37 701.896 433.64 702.879 436.04C693.644 432.003 683.643 430.02 673.566 430.229C663.489 430.438 653.578 432.833 644.519 437.25C648.876 446.796 662.382 452.005 671.397 455.49C681.27 459.301 691.258 462.786 701.362 465.944C698.388 463.526 695.413 461.111 692.439 458.699C699.153 459.766 705.869 460.834 712.587 461.904C712.805 457.893 712.33 453.875 711.181 450.026C715.016 453.137 720.159 454.179 724.348 456.822C732.2 461.771 735.466 471.322 739.746 479.557C740.738 481.824 742.285 483.804 744.246 485.312C743.419 472.838 739.238 460.818 732.145 450.522C725.052 440.227 715.311 432.038 703.949 426.821Z" fill="black"/>
</g>
<path d="M650.835 423.305C650.867 423.283 650.899 423.262 650.932 423.244C648.738 424.055 646.601 424.97 644.519 425.989C632.849 431.699 623.016 440.571 616.139 451.594C609.262 462.618 605.617 475.35 605.62 488.343C605.62 488.904 605.625 489.465 605.64 490.026C607.797 489.969 609.917 489.46 611.865 488.531C628.784 480.638 638.932 456.479 642.917 439.632C644.345 433.601 645.713 426.805 650.835 423.305Z" fill="#632652"/>
<path d="M703.949 425.254C698.458 422.73 692.658 420.941 686.699 419.932C691.587 421.056 695.952 423.798 699.087 427.713C700.623 429.803 701.896 432.073 702.879 434.473C693.644 430.436 683.643 428.453 673.566 428.662C663.489 428.871 653.578 431.266 644.519 435.683C648.876 445.229 662.382 450.438 671.397 453.923C681.27 457.734 691.258 461.219 701.362 464.378C698.388 461.959 695.413 459.544 692.439 457.132C699.153 458.199 705.869 459.267 712.587 460.337C712.805 456.326 712.33 452.308 711.181 448.459C715.016 451.57 720.159 452.612 724.348 455.255C732.2 460.204 735.466 469.755 739.746 477.99C740.738 480.257 742.285 482.237 744.246 483.746C743.419 471.271 739.238 459.251 732.145 448.955C725.052 438.66 715.311 430.471 703.949 425.254V425.254Z" fill="#632652"/>
<path opacity="0.1" d="M597.711 476.899C597.711 476.899 669.142 388.121 751.798 476.899L744.655 457C744.655 457 705.878 400.366 678.326 412.611C650.774 424.857 623.733 433.53 623.733 433.53L597.711 476.899Z" fill="black"/>
<path d="M597.711 475.332C597.711 475.332 669.142 386.554 751.798 475.332L744.655 455.433C744.655 455.433 705.878 398.799 678.326 411.044C650.774 423.29 623.733 431.963 623.733 431.963L597.711 475.332Z" fill="#E14B5A"/>
<path opacity="0.1" d="M539.036 666.664C539.036 666.664 523.729 707.482 545.159 744.218C566.588 780.953 526.281 796.26 526.281 796.26" fill="black"/>
<path opacity="0.1" d="M787.003 629.929C787.003 629.929 813.534 663.603 796.187 693.706C778.839 723.809 779.86 796.26 779.86 796.26" fill="black"/>
<path d="M515.566 826.363H810.473C816.968 826.363 823.198 828.943 827.79 833.536C832.383 838.129 834.964 844.358 834.964 850.854V850.854H491.075C491.075 844.358 493.656 838.129 498.249 833.536C502.841 828.943 509.071 826.363 515.566 826.363H515.566Z" fill="#535461"/>
<path d="M559.928 657.991H766.111C779.907 657.991 793.137 663.471 802.891 673.225C812.646 682.98 818.126 696.21 818.126 710.006V831.976H507.913V710.006C507.913 696.21 513.393 682.98 523.148 673.225C532.902 663.471 546.132 657.991 559.928 657.991V657.991Z" fill="#535461"/>
<path d="M662.764 771.004C672.909 771.004 681.132 762.781 681.132 752.636C681.132 742.492 672.909 734.268 662.764 734.268C652.62 734.268 644.396 742.492 644.396 752.636C644.396 762.781 652.62 771.004 662.764 771.004Z" fill="white"/>
<path opacity="0.1" d="M601.793 435.273C601.793 435.273 671.999 365.106 747.716 433.994" stroke="black" stroke-miterlimit="10"/>
<path d="M765.457 430.804H758.406V470.76H765.457V430.804Z" fill="#6A5C99"/>
<path d="M749.004 456.658C755.446 456.658 761.623 459.217 766.178 463.771C770.733 468.326 773.292 474.504 773.292 480.945V482.512C773.292 488.953 770.733 495.131 766.178 499.686C761.623 504.24 755.446 506.799 749.004 506.799V456.658Z" fill="#FFD037"/>
<path d="M749.788 454.308H749.788C746.759 454.308 744.304 456.763 744.304 459.792V503.665C744.304 506.694 746.759 509.15 749.788 509.15H749.788C752.817 509.15 755.272 506.694 755.272 503.665V459.792C755.272 456.763 752.817 454.308 749.788 454.308Z" fill="#6A5C99"/>
<path d="M583.333 471.544H590.384V431.587H583.333V471.544Z" fill="#6A5C99"/>
<path d="M599.785 507.583C593.344 507.583 587.166 505.024 582.612 500.469C578.057 495.914 575.498 489.737 575.498 483.296V481.729C575.498 475.287 578.057 469.11 582.612 464.555C587.166 460 593.344 457.441 599.785 457.441V507.583Z" fill="#FFD037"/>
<path d="M599.002 509.933H599.002C602.031 509.933 604.486 507.478 604.486 504.449V460.575C604.486 457.546 602.031 455.091 599.002 455.091H599.002C595.973 455.091 593.517 457.546 593.517 460.575V504.449C593.517 507.478 595.973 509.933 599.002 509.933Z" fill="#6A5C99"/>
<path d="M757.57 388.096C748.023 368.245 727.23 344.244 682.407 342.328L682.411 342.274L681.873 342.299L681.838 342.297L681.837 342.301L665.958 343.057L665.96 343.135C621.432 345.185 600.736 369.092 591.219 388.88C584.89 402.285 581.533 416.899 581.375 431.722L586.858 431.588L592.341 431.462C592.581 418.25 595.624 405.239 601.269 393.291C613.359 368.465 635.598 355.259 667.373 354.041L667.372 354.031L681.417 353.254L681.417 353.257C713.191 354.475 735.431 367.681 747.52 392.508C753.166 404.456 756.209 417.466 756.449 430.678L761.932 430.804L767.414 430.938C767.257 416.115 763.899 401.501 757.57 388.096V388.096Z" fill="#FFD037"/>
<path d="M1008.09 851.176H260.168V1051.98H1008.09V851.176Z" fill="#D6D6E3"/>
<path opacity="0.1" d="M1008.09 864.692H260.168V890.758H1008.09V864.692Z" fill="black"/>
<path d="M1058.25 848.28H210V874.346H1058.25V848.28Z" fill="#D6D6E3"/>
<path d="M790.839 783.456C790.839 783.456 822.848 842.14 902.871 826.135C982.894 810.13 944.217 974.178 944.217 974.178C944.217 974.178 931.123 1052.43 940.337 1051.98" stroke="#535461" stroke-width="3" stroke-miterlimit="10"/>
</g>
<defs>
<linearGradient id="paint0_linear" x1="1452.33" y1="680.781" x2="1452.33" y2="121.695" gradientUnits="userSpaceOnUse">
<stop stop-color="#808080" stop-opacity="0.25"/>
<stop offset="0.53514" stop-color="#808080" stop-opacity="0.12"/>
<stop offset="1" stop-color="#808080" stop-opacity="0.1"/>
</linearGradient>
<linearGradient id="paint1_linear" x1="179343" y1="362594" x2="179343" y2="156925" gradientUnits="userSpaceOnUse">
<stop stop-color="#808080" stop-opacity="0.25"/>
<stop offset="0.53514" stop-color="#808080" stop-opacity="0.12"/>
<stop offset="1" stop-color="#808080" stop-opacity="0.1"/>
</linearGradient>
<clipPath id="clip0">
<rect x="210" y="26" width="1500" height="1027.99" fill="white"/>
</clipPath>
</defs>
</svg>
