<svg width="1920" height="1080" viewBox="0 0 1920 1080" fill="none" xmlns="http://www.w3.org/2000/svg">
<g clip-path="url(#clip0)">
<path opacity="0.1" d="M986.664 216.078C888.774 232.619 791.021 225.528 696.985 215.214C602.949 204.899 509.147 191.43 411.215 195.49C348.218 198.096 278.062 210.578 234.075 246.856C191.734 281.749 185.137 328.836 185.055 371.341C184.945 403.313 187.716 436.395 210.374 461.866C226.12 479.532 250.356 492.192 268.612 508.5C332.13 565.146 312.818 654.34 271.135 730.175C251.577 765.754 227.656 800.743 214.338 837.159C201.02 873.574 199.251 912.596 223.089 942.291C246.708 971.739 292.395 988.335 340.03 996.935C436.782 1014.41 544.575 1003.56 648.87 988.856C879.694 956.199 1108.13 905.285 1336.07 854.496C1420.41 835.691 1505.12 816.804 1586.38 789.702C1631.5 774.615 1677.45 755.838 1706.59 726.609C1743.63 689.576 1744.56 638.924 1708.87 608.653C1648.99 557.904 1513.45 569.165 1467.13 511.147C1441.65 479.203 1452.74 435.819 1473.03 397.497C1516.52 315.312 1600.58 234.114 1589.69 152.176C1582.18 95.9408 1524.83 49.4029 1447.97 37.2781C1367.4 24.5772 1263.93 48.6622 1217.54 105.254C1169.85 163.56 1073.1 201.429 986.664 216.078Z" fill="#202020"/>
<path d="M1067.52 526.728H678.771V616.745H1067.52V526.728Z" fill="#565661"/>
<path opacity="0.1" d="M1067.52 526.728H678.771V616.745H1067.52V526.728Z" fill="black"/>
<path d="M725.281 619.708L728.01 860.023L690.621 954.415L687.727 619.708H725.281Z" fill="#BCBEC9"/>
<path d="M682.871 544.01L1061.36 546.287V613.33H682.871V544.01Z" fill="#565661"/>
<path d="M1028.98 619.708L1061.36 624.275V950.767L1028.98 850.902V619.708Z" fill="#BCBEC9"/>
<path d="M1256.07 530.335H1073.66V917.945H1256.07V530.335Z" fill="#EFEFF0"/>
<path d="M1241.48 541.102H1088.26V839.051H1241.48V541.102Z" fill="#565661"/>
<path opacity="0.1" d="M1241.48 541.102H1088.26V839.051H1241.48V541.102Z" fill="black"/>
<path d="M1241.48 547.206H1088.26V613.33H1241.48V547.206Z" fill="#565661"/>
<path d="M1241.48 619.708H1088.26V760.158H1241.48V619.708Z" fill="#565661"/>
<path d="M1241.48 768.826H1088.26V909.277H1241.48V768.826Z" fill="#565661"/>
<path opacity="0.1" d="M1241.48 768.826H1088.26V909.277H1241.48V768.826Z" fill="black"/>
<path d="M1094.65 943.182C1100.1 943.182 1104.52 937.533 1104.52 930.564C1104.52 923.595 1100.1 917.945 1094.65 917.945C1089.19 917.945 1084.77 923.595 1084.77 930.564C1084.77 937.533 1089.19 943.182 1094.65 943.182Z" fill="#565661"/>
<path d="M1231.6 943.786C1237.06 943.786 1241.48 938.136 1241.48 931.167C1241.48 924.198 1237.06 918.548 1231.6 918.548C1226.15 918.548 1221.73 924.198 1221.73 931.167C1221.73 938.136 1226.15 943.786 1231.6 943.786Z" fill="#565661"/>
<path d="M677.399 954.415H690.621L686.986 533.696H666.906L677.399 954.415Z" fill="#EFEFF0"/>
<path d="M1061.36 530.335V950.767H1073.66V533.696L1061.36 530.335Z" fill="#EFEFF0"/>
<path d="M687.631 609.215V624.275H1061.36V613.33L687.631 609.215Z" fill="#EFEFF0"/>
<path d="M712.964 502.067H1186.76L1255.62 524.863V538.085L664.629 533.531V520.076L712.964 502.067Z" fill="white"/>
<path d="M664.629 520.076L1255.62 524.863V538.085L664.629 533.531V520.076Z" fill="#BCBEC9"/>
<path d="M718.162 676.875L715.419 676.464C715.419 676.34 715.419 676.231 715.419 676.121C715.337 675.476 715.241 674.845 715.145 674.201C716.269 675.092 717.339 675.984 718.327 676.875H718.162Z" fill="url(#paint0_linear)"/>
<path d="M658.553 888.662C660.336 888.25 662.147 887.907 663.957 887.66C676.392 885.89 689.073 887.757 700.469 893.037C699.317 901.513 698.178 910.278 700.62 918.466C702.32 924.227 705.736 929.439 706.463 935.446C708.294 935.761 710.002 936.58 711.395 937.811C712.788 939.041 713.811 940.635 714.349 942.414C714.875 943.988 715.14 945.637 715.131 947.297C715.116 949.35 714.858 951.394 714.363 953.387C714.196 954.978 713.415 956.442 712.185 957.467C710.956 958.492 709.375 958.996 707.779 958.873C697.163 960.08 686.753 955.897 676.878 951.796L657.675 943.813C655.426 942.88 653.163 941.934 651.01 940.782C646.925 938.575 643.299 935.61 640.325 932.045C639.696 931.409 639.255 930.611 639.049 929.741C638.693 927.327 641.518 925.886 643.315 924.254C643.841 923.757 644.302 923.195 644.687 922.581C646.812 919.371 647.018 914.941 648.294 911.156C651.311 902.172 660.638 896.384 663.93 887.619C664.108 887.139 664.273 886.659 664.41 886.165" fill="#A26565"/>
<path opacity="0.1" d="M715.131 947.297C715.116 949.35 714.858 951.394 714.363 953.387C714.196 954.978 713.415 956.442 712.185 957.467C710.956 958.492 709.375 958.996 707.779 958.873C697.163 960.08 686.753 955.897 676.878 951.796L657.675 943.813C655.426 942.88 653.163 941.934 651.01 940.782C646.925 938.575 643.299 935.61 640.325 932.045C639.696 931.409 639.255 930.611 639.049 929.741C638.693 927.327 641.518 925.887 643.315 924.254C643.841 923.757 644.302 923.195 644.687 922.581C649.981 923.719 656.551 927.052 660.597 928.342C664.65 929.445 668.541 931.073 672.173 933.183C677.22 936.42 680.855 941.413 685.135 945.528C689.414 949.642 694.941 953.387 700.908 952.879C704.062 952.404 707.103 951.353 709.878 949.779L715.131 947.297Z" fill="black"/>
<path d="M692.651 752.381C693.008 753.626 692.975 754.949 692.559 756.175C692.142 757.401 691.361 758.47 690.319 759.239C688.522 760.35 686.204 760.199 684.421 761.406C682.213 762.956 681.898 766.028 681.514 768.689C680.142 777.838 675.602 786.136 671.721 794.544C667.839 802.951 664.561 812.127 665.987 821.262C666.961 827.462 670.006 834.073 667.153 839.655C666.454 841.027 665.411 842.247 664.616 843.578C660.707 850.106 662.929 858.377 662.778 865.976C662.835 866.819 662.649 867.662 662.243 868.403C661.643 869.104 660.906 869.674 660.076 870.077C658.683 871.101 657.54 872.425 656.73 873.952C655.92 875.479 655.465 877.169 655.399 878.896C655.283 882.35 655.699 885.801 656.633 889.128C656.784 890.471 657.378 891.726 658.32 892.694C659.412 893.416 660.702 893.78 662.01 893.737C670.627 894.435 679.079 896.49 687.055 899.826C692.253 901.994 697.301 904.709 702.828 905.752C703.363 905.918 703.925 905.973 704.482 905.914C705.038 905.855 705.577 905.683 706.065 905.409C706.76 904.782 707.24 903.951 707.437 903.036C709.563 896.041 711.716 888.826 710.989 881.557C710.674 878.43 709.837 875.371 709.617 872.244C708.657 859.9 717.01 848.762 719.657 836.583C720.851 831.096 720.851 825.418 721.701 819.877C724.005 804.693 732.372 791.073 735.595 776.055C736.044 773.255 736.742 770.501 737.68 767.825C740.08 762.01 745.635 757.291 745.759 750.996C745.835 749.611 745.47 748.237 744.716 747.073C743.423 745.654 741.705 744.691 739.82 744.33C732.368 742.28 724.783 740.749 717.12 739.749C713.608 739.059 710.023 738.81 706.449 739.008C701.808 739.554 697.347 741.128 693.392 743.617C688.097 746.881 691.499 747.663 692.651 752.381Z" fill="#454B69"/>
<path opacity="0.05" d="M692.651 752.381C693.008 753.626 692.975 754.949 692.559 756.175C692.142 757.401 691.361 758.47 690.319 759.239C688.522 760.35 686.204 760.199 684.421 761.406C682.213 762.956 681.898 766.028 681.514 768.689C680.142 777.838 675.602 786.136 671.721 794.544C667.839 802.951 664.561 812.127 665.987 821.262C666.961 827.462 670.006 834.073 667.153 839.655C666.454 841.027 665.411 842.247 664.616 843.578C660.707 850.106 662.929 858.377 662.778 865.976C662.835 866.819 662.649 867.662 662.243 868.403C661.643 869.104 660.906 869.674 660.076 870.077C658.683 871.101 657.54 872.425 656.73 873.952C655.92 875.479 655.465 877.169 655.399 878.896C655.283 882.35 655.699 885.801 656.633 889.128C656.784 890.471 657.378 891.726 658.32 892.694C659.412 893.416 660.702 893.78 662.01 893.737C670.627 894.435 679.079 896.49 687.055 899.826C692.253 901.994 697.301 904.709 702.828 905.752C703.363 905.918 703.925 905.973 704.482 905.914C705.038 905.855 705.577 905.683 706.065 905.409C706.76 904.782 707.24 903.951 707.437 903.036C709.563 896.041 711.716 888.826 710.989 881.557C710.674 878.43 709.837 875.371 709.617 872.244C708.657 859.9 717.01 848.762 719.657 836.583C720.851 831.096 720.851 825.418 721.701 819.877C724.005 804.693 732.372 791.073 735.595 776.055C736.044 773.255 736.742 770.501 737.68 767.825C740.08 762.01 745.635 757.291 745.759 750.996C745.835 749.611 745.47 748.237 744.716 747.073C743.423 745.654 741.705 744.691 739.82 744.33C732.368 742.28 724.783 740.749 717.12 739.749C713.608 739.059 710.023 738.81 706.449 739.008C701.808 739.554 697.347 741.128 693.392 743.617C688.097 746.881 691.499 747.663 692.651 752.381Z" fill="black"/>
<path d="M665.809 959.093H654.109L646.456 801.854L645.921 792.911L655.865 789.414L656.537 798.919L665.809 959.093Z" fill="#565661"/>
<path opacity="0.1" d="M656.537 798.919L646.456 801.854L645.921 792.911L655.865 789.414L656.537 798.919Z" fill="black"/>
<path d="M812.61 992.353L793.311 994.685L704.405 792.911L680.43 791.156L638.322 803.445L630.134 1043.68H610.836L618.434 794.667L572.226 795.847L489.766 1001.12H472.223L558.949 761.214L562.295 751.97L691.54 747.539L723.758 765.603L724.17 766.646L812.61 992.353Z" fill="#565661"/>
<path opacity="0.1" d="M724.17 766.646C696.395 775.012 667.565 784.147 667.565 784.147C667.565 784.147 641.271 793.323 630.134 784.147C628.73 783.051 627.16 782.186 625.484 781.582C626.929 782.614 628.49 783.475 630.134 784.147L558.949 761.2L562.282 751.97L691.54 747.539L723.758 765.603L724.17 766.646Z" fill="black"/>
<path d="M592.703 726.828L645.331 715.129C645.331 715.129 771.078 738.528 780.432 747.882C780.432 747.882 679.84 768.346 668.73 775.314C657.62 782.281 591.524 789.99 592.703 726.828Z" fill="white"/>
<path d="M570.072 595.307C565.958 608.351 554.724 620.106 541.05 620.668C540.055 620.784 539.047 620.603 538.156 620.147C536.441 619.077 536.4 616.567 537.099 614.66C537.799 612.754 539.02 611.039 539.212 609.037C539.253 608.628 539.225 608.216 539.129 607.816C538.773 606.184 537.442 604.73 535.879 605.073C536.943 604.221 537.653 603.003 537.868 601.657C538.084 600.31 537.79 598.932 537.045 597.79C536.424 597.089 535.864 596.336 535.371 595.54C534.233 593.209 536.002 590.589 536.743 588.093C538.265 582.606 534.397 577.12 534.082 571.401C533.808 566.285 536.4 561.47 537.045 556.395C538.073 548.166 533.986 540.279 533.506 532.063C533.177 526.33 534.589 520.652 536.167 515.124C537.538 510.187 539.088 505.194 539.184 500.037C539.184 496.293 538.54 492.589 538.361 488.859C538.077 485.448 538.696 482.023 540.158 478.928C541.108 477.109 542.725 475.727 544.671 475.074C549.169 473.565 552.118 475.911 552.777 480.176C553.874 487.432 553.243 494.839 554.683 502.122C556.015 508.933 558.032 515.591 560.704 521.996C563.132 527.784 566.081 533.38 567.946 539.374C569.351 544.314 570.355 549.36 570.95 554.461C572.788 568.164 574.228 582.263 570.072 595.307Z" fill="#202020"/>
<path d="M882.464 927.286C880.729 929.731 878.497 931.783 875.913 933.305C873.329 934.827 870.453 935.786 867.473 936.119C861.52 936.859 855.334 935.364 849.56 936.996C848.666 937.143 847.822 937.51 847.104 938.063C846.386 938.616 845.816 939.338 845.445 940.165C845.302 941.28 845.215 942.401 845.185 943.525C844.512 947.187 839.698 948.01 835.954 947.983L820.51 947.887C817.3 947.887 813.748 947.708 811.444 945.486C810.348 944.273 809.73 942.703 809.705 941.068C809.68 939.434 810.249 937.845 811.306 936.599C811.785 936.031 812.373 935.565 813.035 935.227C812.07 934.908 811.213 934.327 810.56 933.55C809.906 932.773 809.481 931.829 809.331 930.824C809.051 928.808 809.148 926.756 809.619 924.776C809.619 919.042 810.991 909.441 815.023 904.956C819.975 899.374 828.561 892.159 836.036 890.664C838.56 890.18 841.163 890.294 843.635 890.997C846.107 891.699 848.381 892.971 850.273 894.71C853.812 898.002 856.39 903.159 861.246 903.735C863.893 904.065 866.444 902.816 869.064 902.364C872.041 901.981 875.064 902.527 877.719 903.93C880.373 905.332 882.529 907.52 883.891 910.196C884.555 911.552 885.017 912.998 885.262 914.489C885.987 918.955 884.987 923.529 882.464 927.286Z" fill="#A26565"/>
<path opacity="0.1" d="M882.464 927.286C880.729 929.731 878.497 931.783 875.913 933.305C873.329 934.827 870.453 935.786 867.473 936.119C861.52 936.859 855.334 935.364 849.56 936.996C848.666 937.143 847.822 937.51 847.104 938.063C846.386 938.616 845.816 939.338 845.445 940.165C845.302 941.28 845.215 942.401 845.185 943.525C844.512 947.187 839.698 948.01 835.954 947.983L820.51 947.887C817.3 947.887 813.748 947.708 811.444 945.486C810.348 944.273 809.73 942.703 809.705 941.068C809.68 939.434 810.249 937.845 811.306 936.599C820.222 936.228 828.986 936.599 837.874 934.761C841.481 934.034 845.034 933.074 848.682 932.566C856.582 931.441 864.99 932.402 872.246 929.055C878.295 926.312 882.629 920.729 885.194 914.502C885.935 918.955 884.959 923.524 882.464 927.286V927.286Z" fill="black"/>
<path d="M841.715 905.601C836.228 909.853 829.796 913.172 822.883 913.528C815.97 913.885 808.632 910.785 805.244 904.778C800.293 895.958 804.682 883.697 798.619 875.604C796.727 873.067 793.997 871.27 791.995 868.815C789.992 866.36 788.84 862.67 790.623 860.064C788.47 860.887 786.193 858.802 785.562 856.58C784.931 854.358 785.329 851.972 784.945 849.722C783.944 843.756 778.087 839.929 775.275 834.635C772.463 829.341 772.847 822.469 772.532 816.201C771.831 800.929 766.146 786.308 756.347 774.573C754.482 772.351 752.095 770.088 749.188 770.198C749.695 765.178 746.348 760.377 742.014 757.854C737.68 755.33 732.523 754.48 727.503 753.986C676.85 748.993 624.072 767.825 575.71 751.983C562.254 747.581 549.279 740.215 541.05 728.666C537.844 724.271 535.551 719.279 534.305 713.983C533.058 708.688 532.885 703.197 533.794 697.833V697.641C535.701 687.903 540.844 685.503 549.361 681.059C559.194 675.86 569.472 671.55 580.071 668.179C600.645 661.747 622.796 659.429 644.028 664.147C653.945 666.369 663.505 670.045 673.435 672.198C677.344 673.049 681.28 673.652 685.244 674.16C691.403 674.928 697.589 675.435 703.788 676.148C723.611 678.431 743.134 682.822 762.026 689.247C769.062 691.634 776.098 694.363 782.147 698.683C786.931 702.158 790.977 706.55 794.047 711.603C797.118 716.657 799.152 722.27 800.032 728.118C800.608 732.15 800.622 736.347 801.5 740.256C802.332 743.541 803.433 746.753 804.792 749.857C816.511 778.834 826.088 808.631 833.444 839.01C833.861 841.267 834.634 843.443 835.735 845.457C837.49 848.296 840.508 850.202 842.277 853.042C846.392 859.735 842.428 869.075 846.076 876.043C847.338 878.457 849.437 880.364 850.699 882.778C854.813 890.692 848.737 900.156 841.715 905.601Z" fill="#454B69"/>
<path opacity="0.1" d="M771.627 748.006C773.576 746.463 775.259 744.609 776.606 742.519C777.957 740.419 778.494 737.897 778.114 735.428C778.649 738.551 778.445 741.756 777.519 744.785C776.592 747.815 774.969 750.585 772.779 752.875C769.336 756.4 762.876 759.856 757.842 758.649C758.556 754.617 768.431 750.721 771.627 748.006Z" fill="black"/>
<path opacity="0.1" d="M685.93 679.646C685.516 681.116 684.742 682.46 683.679 683.557C682.616 684.653 681.297 685.468 679.84 685.928C676.915 686.822 673.853 687.179 670.801 686.984H668.058C632.068 686.188 595.693 678.206 560.54 685.818C556.303 686.691 552.146 687.916 548.113 689.48C542.975 691.506 538.163 694.279 533.835 697.71V697.518C535.741 687.779 540.885 685.379 549.402 680.935C559.226 675.781 569.49 671.513 580.071 668.179C600.645 661.747 622.796 659.429 644.028 664.147C653.945 666.369 663.505 670.045 673.435 672.198C677.344 673.049 681.28 673.652 685.244 674.16C686.013 675.879 686.252 677.79 685.93 679.646V679.646Z" fill="black"/>
<path d="M685.93 677.685C685.519 679.158 684.747 680.505 683.684 681.605C682.62 682.704 681.299 683.52 679.84 683.98C676.916 684.876 673.853 685.23 670.802 685.023H668.058C632.068 684.227 595.694 676.244 560.54 683.857C556.305 684.732 552.149 685.952 548.113 687.505C542.732 689.651 537.713 692.612 533.232 696.283C532.18 693.394 531.133 690.5 530.091 687.601C528.829 684.145 532.834 683.377 533.602 680.277C534.109 678.178 533.245 675.792 532.806 673.556C532.694 673.009 532.621 672.454 532.587 671.896C532.34 666.945 534.109 664.092 538.169 661.418C550.212 653.462 564.901 648.003 578.645 643.902C585.951 641.593 593.499 640.129 601.139 639.541C611.947 638.91 622.741 640.912 633.261 643.45C646.195 646.646 658.992 650.87 670.459 657.632C676.082 660.91 681.568 665.025 684.6 670.868C685.809 672.921 686.279 675.327 685.93 677.685Z" fill="#A26565"/>
<path opacity="0.1" d="M570.072 595.307C565.958 608.351 554.724 620.106 541.05 620.668C540.055 620.784 539.047 620.603 538.156 620.147C536.441 619.077 536.4 616.567 537.099 614.66C537.799 612.754 539.02 611.039 539.212 609.037C539.253 608.628 539.225 608.216 539.129 607.816C546.385 597.584 553.421 587.242 556.206 575.131C556.769 573.046 556.941 570.874 556.713 568.726C556.343 566.257 555.095 564.021 554.409 561.635C553.202 557.41 553.764 552.939 554.107 548.564C555.535 529.297 552.318 509.97 544.725 492.205C542.874 487.926 540.762 483.592 540.117 479.024C541.067 477.205 542.684 475.823 544.629 475.17C549.128 473.661 552.077 476.007 552.736 480.272C553.833 487.528 553.202 494.935 554.642 502.218C555.974 509.029 557.991 515.687 560.663 522.092C563.091 527.88 566.04 533.476 567.905 539.47C569.31 544.41 570.314 549.456 570.909 554.557C572.788 568.164 574.228 582.263 570.072 595.307Z" fill="black"/>
<path opacity="0.1" d="M685.93 677.685C685.519 679.158 684.747 680.505 683.683 681.605C682.62 682.704 681.299 683.52 679.84 683.98C676.916 684.876 673.853 685.23 670.801 685.023H668.058C656.343 677.241 642.258 673.842 628.282 675.421C623.811 675.956 619.34 676.999 614.868 676.587C605.829 675.764 598.505 669.263 590.454 665.107C581.292 660.583 570.988 658.9 560.863 660.274C550.738 661.647 541.255 666.015 533.629 672.815L532.848 673.501C532.735 672.954 532.662 672.399 532.628 671.842C532.381 666.89 534.151 664.037 538.21 661.363C550.253 653.408 564.943 647.949 578.686 643.848C585.992 641.538 593.54 640.074 601.18 639.486C611.988 638.855 622.782 640.858 633.302 643.395C646.236 646.591 659.033 650.815 670.5 657.577C676.082 660.91 681.568 665.025 684.6 670.868C685.809 672.921 686.279 675.327 685.93 677.685Z" fill="black"/>
<path d="M716.695 527.441L716.503 527.935C713.43 535.904 707.779 542.638 704.158 550.402C699.591 560.236 698.466 571.263 697.451 582.071C696.574 591.33 695.709 600.643 696.409 609.928C698.165 632.806 709.343 654.505 712.333 676.944C713.07 682.126 713.258 687.372 712.895 692.594C712.649 695.899 712.045 699.452 709.85 701.893C707.656 704.334 703.39 705.295 701.031 702.949C702.087 700.933 703.157 698.93 704.227 696.914C697.959 692.045 688.522 695.543 681.198 692.498C677.975 691.126 675.396 688.657 672.694 686.449C666.527 681.435 659.421 677.704 651.791 675.476C644.162 673.248 636.165 672.567 628.269 673.474C623.797 674.022 619.326 675.065 614.855 674.653C605.816 673.817 598.492 667.329 590.44 663.173C581.279 658.651 570.976 656.968 560.852 658.339C550.728 659.71 541.244 664.072 533.616 670.868C531.695 672.651 529.117 674.736 526.758 673.611C525.846 673.053 525.109 672.25 524.632 671.293C515.648 655.945 522.259 636.153 531.86 621.203C541.461 606.252 554.176 592.468 558.126 575.145C558.696 573.061 558.868 570.888 558.633 568.74C558.263 566.271 557.015 564.035 556.329 561.649C555.122 557.424 555.684 552.953 556.027 548.577C557.466 529.309 554.258 509.976 546.673 492.205C544.479 487.089 541.873 481.905 541.873 476.35C541.873 467.599 548.141 460.343 553.325 453.307C559.292 445.215 564.298 436.258 571.855 429.606C579.015 423.283 589.384 419.415 598.245 422.625C613.3 418.97 628.797 417.46 644.275 418.14C649.624 418.387 655.152 418.949 659.843 421.541C664.863 424.284 668.47 429.167 673.407 432.089C677.015 434.242 681.171 435.257 685.093 436.766C695.925 440.996 704.867 448.993 710.276 459.287C715.762 469.917 717.134 482.138 718.341 494.043C719.493 505.249 720.59 516.894 716.695 527.441Z" fill="#202020"/>
<path opacity="0.1" d="M696.409 609.928C698.165 632.806 709.343 654.505 712.333 676.944C706.353 671.883 698.027 666.794 696.916 660.91C695.682 654.546 691.732 646.207 691.073 639.774C690.415 633.341 694.928 625.482 690.196 621.066C687.891 618.912 694.022 619.516 691.773 617.307C686.712 612.383 685.464 604.799 685.148 597.762C684.613 585.308 686.191 572.717 683.9 560.469C682.528 552.912 679.662 545.711 677.371 538.373C674.71 529.828 672.79 521.077 670.87 512.313C668.98 504.52 667.606 496.612 666.755 488.639C666.165 481.781 666.44 474.512 669.498 468.257C672.557 462.003 678.743 456.928 685.683 457.024C708.89 457.326 704.885 488.79 709.988 503.329C712.031 509.117 714.788 514.713 715.899 520.748C716.304 523.114 716.524 525.508 716.557 527.908C713.485 535.876 707.834 542.611 704.213 550.374C699.646 560.208 698.521 571.236 697.506 582.044C696.573 591.33 695.709 600.643 696.409 609.928Z" fill="black"/>
<path d="M711.496 502.972C713.54 508.76 716.297 514.356 717.408 520.391C719.259 530.5 716.393 541.239 719.506 551.032C720.317 553.123 720.995 555.262 721.536 557.438C722.071 560.551 721.454 563.733 721.454 566.902C721.454 572.004 723.059 576.942 724.485 581.838C729.309 598.478 732.502 615.548 734.018 632.806C734.244 637.444 734.975 642.043 736.199 646.522C736.775 648.04 737.269 649.587 737.68 651.158C738.048 653.254 738.136 655.39 737.94 657.509C737.57 664.229 736.816 670.977 737.57 677.671C738.324 684.364 740.766 691.153 745.8 695.639C741.301 696.612 736.541 697.586 732.152 696.146C725.98 694.13 722.277 687.917 719.136 682.266C715.158 675.051 700.044 668.55 698.48 660.444C697.259 654.093 693.309 645.754 692.651 639.308C691.992 632.861 696.491 625.029 691.759 620.613C689.469 618.46 695.6 619.049 693.337 616.855C688.289 611.931 687.041 604.346 686.726 597.296C686.191 584.856 687.754 572.265 685.477 560.016C684.106 552.459 681.239 545.258 678.949 537.906C676.288 529.375 674.368 520.624 672.447 511.846C670.552 504.055 669.177 496.146 668.333 488.173C667.743 481.315 668.003 474.032 671.076 467.777C674.148 461.523 680.334 456.462 687.26 456.544C710.372 456.955 706.394 488.433 711.496 502.972Z" fill="#202020"/>
<path opacity="0.1" d="M645.359 508.335C647.526 510.872 650.31 513.657 653.588 513.163C653.339 513.557 652.946 513.839 652.492 513.946C652.038 514.054 651.56 513.98 651.16 513.739C650.374 513.218 649.743 512.492 649.336 511.641L644.645 503.726C644.028 502.698 639.776 496.704 638.734 500.16C638.322 501.628 644.303 507.101 645.359 508.335Z" fill="black"/>
<path opacity="0.1" d="M642.835 528.072C642.7 525.486 641.61 523.042 639.776 521.214C638.128 519.719 636.204 518.559 634.112 517.799C628.968 515.687 622.878 513.986 617.296 514.26C619.326 517.223 625.841 518.992 629.105 520.666C633.732 523.052 638.309 525.521 642.835 528.072Z" fill="black"/>
<path opacity="0.1" d="M657.442 584.252C656.496 591.275 650.749 596.597 644.933 600.711C639.118 604.826 632.589 608.365 628.79 614.317C626.156 618.432 624.977 623.205 622.741 627.498C620.272 632.23 616.583 636.208 613.634 640.652C610.685 645.096 608.381 650.404 609.286 655.671C609.299 655.913 609.362 656.15 609.47 656.367C609.579 656.584 609.731 656.777 609.917 656.933C610.199 657.052 610.508 657.097 610.813 657.063C611.118 657.03 611.409 656.919 611.659 656.741C617.639 653.613 619.998 646.467 622.508 640.282C625.143 634.038 628.11 627.939 631.396 622.012C632.877 619.269 634.509 616.279 637.266 614.756C639.154 613.97 641.087 613.297 643.054 612.74C645.845 611.46 648.294 609.538 650.2 607.13C657.688 598.198 661.597 586.806 661.173 575.159C661.091 572.704 660.953 560.881 657.264 564.529C653.574 568.177 658.073 579.479 657.442 584.252Z" fill="black"/>
<path d="M666.481 314.914C678.277 320.058 688.426 331.373 688.056 344.198C687.741 357.666 676.466 370.354 680.348 383.26C682.597 390.749 689.373 395.769 694.736 401.461C715.159 423.077 715.117 460.81 694.626 482.385C686.78 490.614 676.699 496.471 668.401 504.33C639.145 531.899 637.897 579.589 653.561 616.608C641.559 619.203 629.327 620.582 617.049 620.723C611.302 620.723 604.266 619.749 602.181 614.386C600.261 609.434 603.553 602.741 599.767 599.079C597.984 597.365 595.309 597.131 592.909 596.734C577.465 594.237 564.792 581.907 559.004 567.382C553.216 552.857 553.517 536.507 556.837 521.228C559.196 510.187 562.885 498.034 557.413 488.159C550.555 475.732 530.831 470.493 531.133 456.283C531.38 444.639 545.11 438.974 552.9 430.319C567.274 414.382 560.43 389.652 560.403 368.173C560.403 349.272 567.014 329.768 581.086 317.177C602.017 298.291 642.327 304.422 666.481 314.914Z" fill="#A26565"/>
<g opacity="0.1">
<path opacity="0.1" d="M559.662 474.073C553.641 463.21 537.826 457.833 534.151 447.149C532.312 449.642 531.278 452.638 531.188 455.735C530.886 469.944 550.582 475.184 557.468 487.624C559.729 492.028 560.68 496.988 560.211 501.916C562.378 492.37 564.284 482.412 559.662 474.073Z" fill="black"/>
<path opacity="0.1" d="M681.925 365.677C684.394 358.476 687.974 351.206 688.152 343.731C688.177 342.921 688.154 342.111 688.084 341.303C685.327 349.56 681.102 357.57 681.925 365.677Z" fill="black"/>
<path opacity="0.1" d="M562.021 404.04C566.739 389.131 562.666 370.642 562.652 354.1C562.652 352.098 562.734 350.082 562.885 348.079C561.26 354.472 560.44 361.042 560.444 367.638C560.471 379.447 562.542 392.258 562.021 404.04Z" fill="black"/>
<path opacity="0.1" d="M696.916 468.353C689.071 476.583 678.99 482.44 670.692 490.299C655.879 504.248 648.266 523.354 646.36 543.612C649.899 528.525 657.045 514.631 668.497 503.836C676.727 496.018 686.876 490.189 694.722 481.891C704.054 471.721 709.473 458.568 710.015 444.776C707.646 453.589 703.148 461.686 696.916 468.353V468.353Z" fill="black"/>
<path opacity="0.1" d="M619.34 606.65C613.593 606.65 606.557 605.663 604.472 600.3C602.552 595.362 605.843 588.669 602.058 584.993C600.275 583.278 597.586 583.045 595.2 582.647C579.769 580.165 567.096 567.821 561.308 553.309C557.042 542.583 556.123 530.884 557.193 519.335C557.083 519.788 556.987 520.24 556.891 520.707C553.627 535.986 553.284 552.349 559.059 566.874C564.833 581.399 577.52 593.73 592.95 596.212C595.392 596.61 598.08 596.857 599.808 598.558C603.635 602.234 600.302 608.927 602.222 613.865C604.307 619.228 611.343 620.284 617.09 620.215C629.368 620.074 641.6 618.695 653.602 616.1C651.909 612.099 650.43 608.011 649.172 603.852C639.321 605.603 629.344 606.539 619.34 606.65V606.65Z" fill="black"/>
</g>
<path opacity="0.1" d="M664.259 546.835C667.647 549.387 671.323 539.662 669.224 537.234C668.662 537.865 663.738 546.479 664.259 546.835Z" fill="black"/>
<path opacity="0.1" d="M678.702 722.865C682.693 721.493 686.931 720.121 689.537 716.83C691.691 714.182 693.46 703.676 688.906 708.71C685.039 713.03 683.214 718.722 678.702 722.865Z" fill="black"/>
<path opacity="0.1" d="M719.342 711.851C718.862 715.088 717.97 718.448 715.68 720.78C715.254 721.219 714.308 721.493 714.185 720.903C716.743 719.541 719.121 717.864 721.262 715.911C725.898 711.316 726.529 700 719.465 696.996C719.397 701.962 720.096 706.803 719.342 711.851Z" fill="black"/>
<path d="M768.129 691.455C768.129 691.455 729.204 676.162 715.131 677.739C701.059 679.317 731.069 701.495 731.069 701.495L749.009 713.593C749.009 713.593 759.982 709.478 760.709 709.162C761.436 708.847 768.129 691.455 768.129 691.455Z" fill="#454B69"/>
<path d="M500.3 527.386C500.3 527.386 529.542 510.434 568.138 531.501C606.735 552.569 613.168 676.546 613.168 676.546C613.168 676.546 597.381 802.855 658.252 774.752C658.252 774.752 769.35 740.256 780.473 747.855C780.473 747.855 791.007 747.855 769.953 752.532C748.9 757.209 667.565 782.981 667.565 782.981C667.565 782.981 641.271 792.171 630.134 782.981C618.997 773.791 587.437 784.161 583.336 720.985C580.622 681.175 575.741 641.541 568.714 602.261L557.865 570.098L500.3 527.386Z" fill="#565661"/>
<path d="M496.789 722.727C496.789 722.727 509.654 594.649 488.559 548.44C470.207 508.17 541.173 527.002 559.689 532.489C562.555 533.345 565.054 535.131 566.794 537.564C577.767 552.994 617.131 614.839 605.528 697.586C605.528 697.586 600.851 771.281 630.093 782.967L539.993 753.945C532.683 751.586 525.263 749.624 517.774 747.923C508.228 745.756 492.674 739.598 496.789 722.727Z" fill="white"/>
<path d="M1137.61 961.836H1149.31L1156.97 804.597L1157.49 795.655L1147.55 792.157L1146.89 801.662L1137.61 961.836Z" fill="#565661"/>
<path opacity="0.1" d="M1146.89 801.662L1156.97 804.597L1157.49 795.655L1147.55 792.157L1146.89 801.662Z" fill="black"/>
<path d="M1039.92 901.116C1039.63 903.269 1039.08 905.379 1038.28 907.397C1037.44 910.033 1035.66 912.263 1033.27 913.652C1031.67 914.315 1029.95 914.655 1028.21 914.653C1021.75 915.037 1014.92 914.941 1009.36 911.649C1007 910.125 1004.83 908.314 1002.9 906.259C990.42 893.857 979.073 880.361 968.998 865.934C967.311 863.507 965.569 860.64 966.323 857.705C979.375 854.085 991.769 848.413 1003.04 840.903C1004.6 839.71 1006.34 838.783 1008.2 838.16C1011.38 837.48 1014.66 837.359 1017.88 837.803C1020.99 838.311 1021.13 838.407 1022.32 841.918C1024.3 847.857 1023.97 854.262 1026.19 860.201C1027.6 863.483 1029.32 866.624 1031.32 869.583C1037.06 879.17 1041.46 890.486 1039.92 901.116Z" fill="#A26565"/>
<path opacity="0.1" d="M1039.92 901.116C1039.63 903.269 1039.08 905.379 1038.28 907.398C1037.44 910.033 1035.66 912.263 1033.27 913.652C1031.67 914.315 1029.95 914.655 1028.21 914.653C1021.75 915.037 1014.92 914.941 1009.36 911.649C1007 910.125 1004.83 908.314 1002.9 906.259C990.42 893.857 979.073 880.361 968.998 865.935C967.311 863.507 965.569 860.64 966.323 857.705C970.581 856.525 974.775 855.124 978.887 853.508L979.093 853.659C983.303 856.663 986.362 860.969 989.338 865.194L998.939 878.704C1000.65 881.358 1002.67 883.798 1004.96 885.973C1007.8 888.251 1010.93 890.133 1014.27 891.569C1018.79 893.75 1023.3 895.931 1027.99 897.687C1031.02 898.907 1036.15 899.388 1039.92 901.116Z" fill="black"/>
<path d="M1048.78 754.644C1047.84 756.923 1046.69 759.113 1045.35 761.187C1032.61 782.594 1022.77 805.606 1016.11 829.615C1014.22 829.19 1013.15 831.768 1013.16 833.73C1013.18 835.691 1013.16 838.16 1011.35 838.873C1010.82 839.079 1010.21 839.079 1009.69 839.312C1008.54 839.833 1008.21 841.301 1008.05 842.563L1006.43 854.441C1005.87 858.555 1005.37 863.013 1007.39 866.648C1008.78 868.808 1010.58 870.672 1012.7 872.134L1039.47 893.256C1040.57 894.121 1041.92 895.039 1043.24 894.559C1046.25 893.462 1043.58 888.086 1045.98 885.905C1047.58 884.41 1050.1 885.534 1052.31 885.356C1055.19 885.137 1057.37 882.49 1058.1 879.705C1058.61 876.87 1058.66 873.971 1058.25 871.119C1058.07 869.818 1058.22 868.492 1058.69 867.265C1059.5 865.965 1060.63 864.886 1061.96 864.124C1066.61 860.731 1070.35 856.252 1072.87 851.078C1075.38 845.903 1076.58 840.192 1076.38 834.443C1076.16 832.693 1076.23 830.919 1076.57 829.19C1077.13 827.606 1077.97 826.138 1079.05 824.856C1088.78 811.702 1096.88 797.424 1104.94 783.173C1109.57 774.944 1114.29 766.591 1115.91 757.319C1116.05 756.974 1116.11 756.601 1116.08 756.23C1116.05 755.858 1115.93 755.499 1115.74 755.179C1115.55 754.86 1115.29 754.59 1114.97 754.39C1114.66 754.19 1114.3 754.065 1113.93 754.027C1109.92 752.773 1105.82 751.792 1101.67 751.092C1089.07 748.541 1076.9 744.604 1064.64 740.819C1052.38 737.033 1052.47 744.741 1048.78 754.644Z" fill="#454B69"/>
<path d="M990.806 995.097L1010.12 997.428L1099.01 795.655L1122.99 793.899L1165.11 806.188L1173.28 1046.42H1192.58L1184.98 797.41L1231.19 798.59L1313.65 1003.86H1331.19L1244.47 763.957L1241.13 754.713L1111.88 750.283L1079.66 768.346L1079.25 769.389L990.806 995.097Z" fill="#565661"/>
<path opacity="0.1" d="M1079.25 769.389C1107.02 777.755 1135.85 786.89 1135.85 786.89C1135.85 786.89 1162.14 796.066 1173.28 786.89C1174.69 785.794 1176.26 784.929 1177.93 784.325C1176.49 785.358 1174.93 786.218 1173.28 786.89L1244.47 763.944L1241.17 754.713L1111.92 750.283L1079.7 768.346L1079.25 769.389Z" fill="black"/>
<path d="M1210.71 729.572L1158.08 717.872C1158.08 717.872 1032.34 741.271 1022.98 750.625C1022.98 750.625 1123.58 771.089 1134.69 778.057C1145.8 785.025 1211.89 792.733 1210.71 729.572Z" fill="white"/>
<path d="M1015.43 917.588C1012.26 923.623 1004.45 925.324 997.595 925.42C988.074 925.538 978.616 923.848 969.725 920.441C964.65 918.494 959.781 915.984 954.541 914.557C946.737 912.418 938.082 912.596 931.224 908.303C927.587 905.878 924.582 902.619 922.46 898.798C922.062 898.126 921.678 897.426 921.321 896.713C918.043 890.335 916.521 882.915 918.345 876.029C920.169 869.144 926.794 861.559 934.475 861.669C943.596 861.806 954.473 866.127 963.278 868.362C974.251 871.105 985.224 874.274 994.921 880.076C1003.04 884.958 1010.21 891.967 1014.04 900.526C1014.78 902.177 1015.38 903.883 1015.85 905.628C1017.04 909.578 1017.32 913.981 1015.43 917.588Z" fill="#A26565"/>
<path opacity="0.1" d="M1015.43 917.588C1012.26 923.623 1004.45 925.324 997.595 925.42C988.074 925.538 978.616 923.848 969.725 920.441C964.65 918.494 959.781 915.984 954.541 914.557C946.737 912.418 938.082 912.596 931.224 908.303C927.587 905.878 924.582 902.619 922.46 898.798C922.062 898.126 921.678 897.426 921.321 896.713C922.693 896.823 923.955 896.96 924.641 897.028C933.062 897.838 941.1 900.91 949.137 903.228C960.295 906.451 971.817 908.248 983.427 908.577C991.656 908.81 1000.24 908.207 1007.43 904.188C1009.58 902.834 1011.8 901.611 1014.1 900.526C1014.83 902.177 1015.44 903.883 1015.91 905.628C1017.04 909.578 1017.32 913.981 1015.43 917.588Z" fill="black"/>
<path d="M1074.36 656.795C1056.53 653.874 1038.37 653.161 1020.29 652.447L998.185 651.57C996.612 651.387 995.019 651.58 993.535 652.132C992.257 652.954 991.042 653.871 989.901 654.875C987.679 656.384 984.839 656.549 982.165 656.699C963.192 657.745 944.322 660.193 925.71 664.024C916.109 665.985 906.138 668.55 898.923 675.175C891.297 682.183 887.951 692.868 887.69 703.21C887.43 713.552 890.145 723.715 893.012 733.645C896.661 745.599 898.677 757.992 899.006 770.486C898.877 773.952 899.01 777.423 899.404 780.869C900.042 784.159 901.011 787.375 902.298 790.47L912.392 817.422C913.284 819.781 914.162 822.126 915.136 824.43C916.109 826.735 917.042 828.545 917.879 830.712C919.113 833.675 920.087 836.747 921.061 839.806L927.782 860.915L928.659 863.658C931.087 871.256 933.57 878.992 938.151 885.521C942.732 892.05 949.823 897.316 957.792 897.714C960.363 897.618 962.938 897.687 965.5 897.92C967.684 898.453 969.804 899.221 971.823 900.21C977.807 902.696 984.23 903.951 990.71 903.9C996.676 903.9 1003.3 902.24 1006.54 897.22C1008.32 894.477 1008.79 891.103 1009.28 887.866C1010.15 881.365 1010.98 874.576 1008.77 868.403C1007.4 864.714 1005.1 861.546 1003.51 857.911C1001.28 852.959 1000.56 847.487 999.118 842.261C996.001 831.013 989.659 820.924 980.876 813.238C977.756 800.887 975.465 788.341 974.018 775.684C973.817 772.882 973.259 770.116 972.358 767.455C970.753 763.34 967.503 760.007 966.145 755.81C964.869 751.915 965.253 747.416 962.935 744.056C982.233 749.364 1001.34 748.17 1021.38 747.855C1027.8 747.875 1034.21 747.509 1040.58 746.758C1043.55 746.213 1046.56 745.892 1049.58 745.798C1055.78 745.798 1061.59 748.541 1067.29 750.955C1083.37 757.813 1100.33 763.203 1117.8 763.944C1135.84 764.698 1153.67 760.46 1171.29 756.263C1179.04 754.411 1187.09 752.409 1193.24 747.32C1199.38 742.231 1202.84 733.055 1199.05 726.074C1196.17 720.821 1190.21 718.242 1184.64 716.048C1169.22 709.958 1153.72 704.019 1138.87 696.654C1116.18 685.599 1099.22 660.91 1074.36 656.795Z" fill="#454B69"/>
<path d="M1042.57 594.745C1040.42 599.408 1036.79 603.221 1034.12 607.61C1029.65 614.835 1028.17 623.521 1030.01 631.819C1030.97 635.92 1032.86 639.746 1035.54 643.001C1038.21 646.257 1041.6 648.855 1045.44 650.596C1048.86 651.96 1052.46 652.829 1056.13 653.174C1060.96 653.764 1066.11 653.888 1070.37 651.556C1073.56 649.64 1076.18 646.902 1077.96 643.628C1081.65 637.456 1083.74 630.502 1085.66 623.576C1089.22 610.792 1092.25 597.68 1091.81 584.417C1091.66 579.849 1090.75 574.706 1086.97 572.073C1085.01 570.944 1082.85 570.234 1080.6 569.988L1062.51 566.751C1059.01 566.12 1052.91 563.555 1049.88 566.079C1046.85 568.602 1046.62 576.064 1046.09 579.561C1045.27 584.732 1044.76 589.985 1042.57 594.745Z" fill="#A1616A"/>
<path d="M1262.48 541.692L1257.74 581.358C1256.76 588.433 1256.2 595.559 1256.06 602.7C1256.06 606.678 1256.18 611.094 1253.55 614.07C1252.26 615.425 1250.63 616.406 1248.83 616.91C1243.08 618.693 1236.81 617.102 1231.33 614.647C1228.12 613.275 1224.84 611.286 1223.39 608.09C1222.54 605.875 1222.19 603.502 1222.36 601.136C1222.36 577.477 1224.59 552.802 1236.95 532.639C1238 530.661 1239.49 528.945 1241.3 527.619C1244.73 525.425 1249.21 526.042 1253.09 527.235C1255.48 527.962 1261.93 528.772 1263.45 530.898C1264.97 533.024 1262.81 538.962 1262.48 541.692Z" fill="#A1616A"/>
<path d="M1136.93 398.252C1164.2 398.252 1186.31 376.145 1186.31 348.875C1186.31 321.604 1164.2 299.498 1136.93 299.498C1109.66 299.498 1087.56 321.604 1087.56 348.875C1087.56 376.145 1109.66 398.252 1136.93 398.252Z" fill="#A1616A"/>
<path d="M1123.73 422.46C1123.55 426.302 1122.5 430.053 1120.67 433.433C1145.88 429.592 1171.02 425.313 1196.1 420.595C1187.78 416.317 1181.49 408.921 1178.6 400.021C1177.24 395.249 1176.49 390.321 1176.38 385.359C1175.98 377.49 1176.13 369.602 1176.83 361.754C1168.06 362.673 1159.74 365.965 1151.38 368.79C1142.97 371.633 1134.41 374.027 1125.74 375.963C1121.56 376.896 1117.35 377.692 1113.12 378.432C1108.19 379.31 1105.81 379.296 1109.24 383.631C1118.45 395.207 1125.02 406.975 1123.73 422.46Z" fill="#A1616A"/>
<path d="M1138.9 415.863C1132.38 416.837 1125.55 417.934 1120.35 421.966C1118.37 423.666 1116.49 425.475 1114.71 427.384C1104.39 437.41 1089.81 441.443 1077.27 448.52C1075.23 449.531 1073.41 450.956 1071.95 452.704C1070.58 454.61 1069.88 457.038 1068.44 458.931C1066.76 461.125 1064.12 462.497 1062.81 464.924C1061.51 467.352 1061.8 469.931 1061.66 472.509C1061.35 478.174 1059.21 483.551 1057.55 488.968C1049.93 514.905 1054.1 543.832 1042.58 568.328C1043.11 569.739 1043.92 571.028 1044.97 572.118C1046.01 573.207 1047.26 574.073 1048.65 574.665C1051.54 575.709 1054.57 576.36 1057.64 576.599L1083.17 579.767C1086.82 580.22 1090.68 580.645 1094.02 579.123C1090.97 587.528 1088.81 596.23 1087.58 605.087C1086.96 610.5 1086 615.869 1084.7 621.162C1081.19 633.232 1072.36 643.285 1061.89 650.157C1060.58 650.847 1059.46 651.874 1058.67 653.133C1057.3 655.876 1059.33 658.949 1060.77 661.637C1064.95 669.428 1064.38 678.782 1064.32 687.615C1064.27 696.448 1065.16 706.145 1071.33 712.482C1074.98 716.226 1079.97 718.256 1084.83 720.19L1124.75 736.142C1131.34 738.947 1138.14 741.24 1145.08 742.999C1155.6 745.4 1166.53 745.304 1177.33 744.837C1184.46 744.536 1191.58 744.078 1198.7 743.466C1201.53 743.456 1204.31 742.725 1206.78 741.34C1208.9 739.663 1210.53 737.446 1211.51 734.921C1217.06 722.837 1218.93 708.737 1227.54 698.615C1233.45 691.661 1242.63 686.106 1243.3 677.013C1243.62 672.486 1241.6 668.083 1241.57 663.544C1241.57 657.961 1244.49 652.653 1244.32 647.085C1243.95 638.018 1235.4 631.106 1234.04 622.135C1230.59 599.395 1242.13 576.681 1249.23 554.804C1250.5 550.895 1252.15 546.575 1255.91 544.902C1259.66 543.228 1264.96 544.106 1266.3 540.403C1269.69 531.103 1270.5 520.199 1270.06 510.31C1269.81 504.591 1267.78 498.995 1268.02 493.261C1268.18 489.229 1269.47 485.306 1269.81 481.287C1270.33 475.211 1268.73 469.176 1267.07 463.306C1266.59 461.21 1265.87 459.176 1264.93 457.244C1263.92 455.491 1262.72 453.849 1261.36 452.347L1254.68 444.406C1251.56 440.689 1248.25 436.834 1243.71 434.955C1242.24 431.321 1237.55 428.811 1234.19 426.808C1230.81 424.886 1227.31 423.168 1223.71 421.665L1185.94 404.986C1184.53 404.275 1183.02 403.785 1181.46 403.532C1179.16 403.455 1176.87 403.925 1174.79 404.904C1163.27 409.471 1151.24 414.025 1138.9 415.863Z" fill="#202020"/>
<path d="M1098.89 357.461C1097.43 352.345 1093.72 347.928 1093.15 342.634C1092.65 337.929 1094.72 333.376 1095.9 328.795C1097.08 324.214 1097.04 318.617 1093.4 315.573C1092.8 315.051 1092.03 314.585 1091.81 313.817C1091.37 312.445 1092.76 311.197 1093.18 309.812C1093.96 307.069 1090.57 304.038 1091.81 301.404C1092.51 299.964 1094.26 299.456 1095.8 299.004C1101.67 297.262 1107.62 293.394 1108.9 287.4C1113.49 289.32 1118.39 285.713 1121.92 282.216C1125.44 278.718 1129.77 274.727 1134.63 275.783L1133.55 277.991C1141.03 275.273 1149.22 275.181 1156.77 277.731H1154.46C1161.08 277.843 1167.5 280.014 1172.83 283.944C1172.24 283.944 1172.18 284.822 1172.42 285.315C1174.34 289.801 1179.28 292.173 1184.03 293.284C1186.9 293.97 1190.01 294.464 1192.11 296.521C1194.21 298.579 1194.25 302.872 1191.48 303.859C1197.13 306.059 1202.48 308.962 1207.41 312.5C1208.78 313.501 1210.33 314.859 1210.15 316.615C1209.95 317.496 1209.67 318.356 1209.3 319.18C1209.03 320.644 1209.12 322.153 1209.59 323.569L1211.11 329.851C1212.78 336.832 1214.1 345.24 1209.01 350.301C1210.92 353.86 1211.62 357.938 1211.03 361.931C1210.43 365.923 1208.57 369.618 1205.71 372.466C1206.11 373.691 1206.25 374.988 1206.11 376.272C1205.98 377.555 1205.58 378.795 1204.93 379.911C1204.28 381.026 1203.4 381.992 1202.36 382.744C1201.31 383.497 1200.11 384.018 1198.85 384.275C1200.54 386.909 1198.99 390.667 1196.32 392.313C1193.66 393.959 1190.32 393.972 1187.22 393.684C1184.12 393.396 1180.98 392.697 1177.88 393.163C1173.36 393.863 1168.95 396.935 1164.6 395.563C1162.98 394.87 1161.42 394.035 1159.95 393.067C1156.9 391.435 1153.37 391.065 1149.99 390.324C1144.24 389.088 1138.78 386.76 1133.9 383.466C1130.67 381.524 1128.1 378.657 1126.51 375.237C1123.49 367.61 1128.57 357.612 1123.23 351.398C1120.11 347.777 1113.91 347.723 1110.41 350.822C1108.67 352.372 1108.43 355.637 1106.62 356.802C1104.1 357.441 1101.48 357.664 1098.89 357.461Z" fill="#464353"/>
<path opacity="0.1" d="M1031.79 750.749C1029.84 749.206 1028.16 747.352 1026.81 745.263C1025.46 743.162 1024.92 740.64 1025.3 738.171C1024.77 741.294 1024.97 744.499 1025.9 747.528C1026.82 750.558 1028.45 753.329 1030.64 755.618C1034.08 759.143 1040.54 762.599 1045.57 761.392C1044.86 757.36 1034.98 753.465 1031.79 750.749Z" fill="black"/>
<path d="M1303.12 530.13C1303.12 530.13 1273.87 513.177 1235.28 534.244C1196.68 555.312 1190.25 679.289 1190.25 679.289C1190.25 679.289 1206.03 805.599 1145.16 777.495C1145.16 777.495 1034.07 742.999 1022.94 750.598C1022.94 750.598 1012.41 750.598 1033.46 755.275C1054.52 759.952 1135.85 785.724 1135.85 785.724C1135.85 785.724 1162.14 794.914 1173.28 785.724C1184.42 776.535 1215.98 786.904 1220.08 723.729C1222.79 683.918 1227.67 644.284 1234.7 605.004L1245.55 572.841L1303.12 530.13Z" fill="#565661"/>
<path d="M1306.63 725.471C1306.63 725.471 1293.76 597.392 1314.86 551.183C1333.21 510.914 1262.24 529.745 1243.73 535.232C1240.86 536.089 1238.36 537.874 1236.62 540.307C1225.65 555.737 1186.28 617.582 1197.89 700.329C1197.89 700.329 1202.56 774.025 1173.32 785.711L1263.42 756.688C1270.73 754.329 1278.15 752.367 1285.64 750.667C1295.19 748.499 1310.74 742.341 1306.63 725.471Z" fill="white"/>
<path opacity="0.1" d="M1542.83 974.523C1616.64 974.523 1676.47 964.913 1676.47 953.058C1676.47 941.203 1616.64 931.592 1542.83 931.592C1469.02 931.592 1409.18 941.203 1409.18 953.058C1409.18 964.913 1469.02 974.523 1542.83 974.523Z" fill="#FC164D"/>
<path d="M1547.12 541.843H1538.52V735.469H1547.12V541.843Z" fill="#535461"/>
<path d="M1601.17 734.88L1600.64 743.603L1599.87 755.947L1599.56 761.077L1598.8 773.421L1598.47 778.551L1597.7 790.895L1589.04 930.893C1588.64 936.902 1585.97 942.535 1581.58 946.651C1577.18 950.766 1571.38 953.057 1565.36 953.058H1520.28C1514.25 953.055 1508.44 950.752 1504.05 946.619C1499.65 942.485 1497 936.832 1496.63 930.811L1487.94 790.799L1487.18 778.455L1486.87 773.325L1486.08 760.981L1485.77 755.851L1485.01 743.507L1484.47 734.784C1484.37 733.112 1484.62 731.438 1485.19 729.864C1485.76 728.29 1486.65 726.849 1487.8 725.629C1488.94 724.409 1490.33 723.435 1491.86 722.766C1493.4 722.097 1495.05 721.748 1496.73 721.74H1588.93C1590.61 721.749 1592.27 722.103 1593.81 722.778C1595.35 723.453 1596.74 724.436 1597.89 725.667C1599.03 726.897 1599.92 728.349 1600.48 729.934C1601.05 731.518 1601.28 733.201 1601.17 734.88V734.88Z" fill="#565661"/>
<path d="M1600.64 743.603L1599.87 755.906H1485.78L1485.02 743.603H1600.64Z" fill="#9D9CB5"/>
<path d="M1599.56 761.049L1598.8 773.366H1486.87L1486.1 761.049H1599.56Z" fill="#9D9CB5"/>
<path d="M1598.47 778.496L1597.7 790.799H1487.95L1487.18 778.496H1598.47Z" fill="#9D9CB5"/>
<path d="M1471.88 614.413C1521.97 650.651 1542.83 707.324 1542.83 707.324C1542.83 707.324 1482.48 705.253 1432.37 669.016C1382.27 632.779 1361.44 576.119 1361.44 576.119C1361.44 576.119 1421.8 578.19 1471.88 614.413Z" fill="#202020"/>
<path d="M1361.44 576.119C1361.44 576.119 1424.08 610.888 1444.18 639.678C1464.29 668.467 1542.83 707.324 1542.83 707.324" stroke="#535461" stroke-width="2" stroke-miterlimit="10"/>
<path d="M1504.2 541.418C1531.47 561.127 1542.83 591.988 1542.83 591.988C1542.83 591.988 1509.91 590.85 1482.71 571.14C1455.51 551.43 1444.17 520.57 1444.17 520.57C1444.17 520.57 1476.95 521.694 1504.2 541.418Z" fill="#202020"/>
<path d="M1444.17 520.57C1444.17 520.57 1478.27 539.497 1489.2 555.161C1500.13 570.824 1542.9 591.988 1542.9 591.988" stroke="#535461" stroke-width="2" stroke-miterlimit="10"/>
<path d="M1582.44 590.411C1551.13 624.824 1544.5 669.798 1544.5 669.798C1544.5 669.798 1588.65 658.962 1619.94 624.536C1651.22 590.109 1657.88 545.148 1657.88 545.148C1657.88 545.148 1613.75 555.998 1582.44 590.411Z" fill="#202020"/>
<path d="M1657.9 545.162C1657.9 545.162 1617.11 580.439 1606.74 604.744C1596.37 629.048 1544.5 669.798 1544.5 669.798" stroke="#535461" stroke-width="2" stroke-miterlimit="10"/>
<path d="M948.945 507.567V510.694H856.212V508.157C858.755 507.203 861.162 505.921 863.372 504.344C867.31 501.524 870.519 497.806 872.733 493.498C874.946 489.19 876.101 484.416 876.1 479.573C876.102 477.042 875.784 474.521 875.154 472.07C874.032 467.659 871.938 463.555 869.023 460.059C866.109 456.563 862.448 453.764 858.311 451.867H948.314C944.177 453.764 940.517 456.563 937.602 460.059C934.688 463.555 932.593 467.659 931.471 472.07C930.846 474.522 930.533 477.043 930.539 479.573C930.535 484.415 931.687 489.189 933.899 493.497C936.11 497.805 939.317 501.523 943.253 504.344C945.033 505.614 946.941 506.694 948.945 507.567V507.567Z" fill="#DFE6F5"/>
<path opacity="0.1" d="M948.314 451.867C944.176 453.764 940.516 456.563 937.602 460.059C934.687 463.555 932.592 467.659 931.471 472.07H875.154C874.032 467.659 871.937 463.555 869.023 460.059C866.108 456.563 862.448 453.764 858.311 451.867H948.314Z" fill="black"/>
<path d="M750.038 435.888V453.499C750.038 463.21 757.143 471.096 765.921 471.096H1038.74C1047.52 471.096 1054.64 463.21 1054.64 453.499V435.888H750.038Z" fill="#DFE6F5"/>
<path opacity="0.1" d="M948.945 507.567V510.694H856.212V508.157C858.755 507.203 861.162 505.921 863.372 504.344H943.253C945.033 505.614 946.941 506.694 948.945 507.567V507.567Z" fill="black"/>
<path d="M974.936 505.318H830.22C827.653 505.318 825.571 507.396 825.571 509.96C825.571 512.525 827.653 514.603 830.22 514.603H974.936C977.504 514.603 979.586 512.525 979.586 509.96C979.586 507.396 977.504 505.318 974.936 505.318Z" fill="#DFE6F5"/>
<path d="M1054.64 243.002C1054.64 240.915 1054.23 238.849 1053.43 236.921C1052.63 234.993 1051.46 233.241 1049.98 231.766C1048.51 230.291 1046.75 229.122 1044.83 228.324C1042.9 227.527 1040.83 227.117 1038.74 227.119H765.921C763.835 227.117 761.769 227.527 759.841 228.324C757.913 229.122 756.161 230.292 754.686 231.767C753.211 233.242 752.041 234.994 751.243 236.922C750.446 238.85 750.036 240.916 750.038 243.002V439.317H1054.64V243.002Z" fill="#474157"/>
<path d="M1046.33 250.093V418.798C1046.33 419.826 1046.13 420.844 1045.74 421.794C1045.34 422.744 1044.77 423.608 1044.04 424.335C1043.32 425.062 1042.45 425.64 1041.5 426.033C1040.56 426.427 1039.54 426.63 1038.51 426.63H766.168C765.14 426.63 764.122 426.427 763.173 426.033C762.223 425.64 761.361 425.062 760.635 424.335C759.909 423.608 759.333 422.744 758.941 421.794C758.549 420.844 758.348 419.826 758.35 418.798V250.093C758.343 248.721 758.703 247.371 759.392 246.184C760.079 244.995 761.066 244.007 762.256 243.321C763.445 242.635 764.795 242.274 766.168 242.275H1038.51C1040.58 242.275 1042.57 243.099 1044.04 244.565C1045.5 246.031 1046.33 248.02 1046.33 250.093V250.093Z" fill="#4C4C78"/>
<path d="M902.339 238.352C904.361 238.352 906.001 236.713 906.001 234.69C906.001 232.668 904.361 231.028 902.339 231.028C900.316 231.028 898.677 232.668 898.677 234.69C898.677 236.713 900.316 238.352 902.339 238.352Z" fill="white"/>
<path d="M902.339 463.265C907.33 463.265 911.377 459.218 911.377 454.226C911.377 449.234 907.33 445.187 902.339 445.187C897.347 445.187 893.3 449.234 893.3 454.226C893.3 459.218 897.347 463.265 902.339 463.265Z" fill="white"/>
<path d="M1046.33 250.093H758.377C758.377 248.02 759.201 246.031 760.667 244.565C762.133 243.099 764.122 242.275 766.195 242.275H1038.51C1040.58 242.275 1042.57 243.099 1044.04 244.565C1045.5 246.031 1046.33 248.02 1046.33 250.093Z" fill="#C8CAD7"/>
<path d="M766.168 248.145C767.251 248.145 768.129 247.267 768.129 246.184C768.129 245.101 767.251 244.223 766.168 244.223C765.085 244.223 764.207 245.101 764.207 246.184C764.207 247.267 765.085 248.145 766.168 248.145Z" fill="#EDEDF4"/>
<path d="M772.038 248.145C773.121 248.145 773.999 247.267 773.999 246.184C773.999 245.101 773.121 244.223 772.038 244.223C770.955 244.223 770.077 245.101 770.077 246.184C770.077 247.267 770.955 248.145 772.038 248.145Z" fill="#EDEDF4"/>
<path d="M777.908 248.145C778.992 248.145 779.87 247.267 779.87 246.184C779.87 245.101 778.992 244.223 777.908 244.223C776.825 244.223 775.947 245.101 775.947 246.184C775.947 247.267 776.825 248.145 777.908 248.145Z" fill="#EDEDF4"/>
</g>
<defs>
<linearGradient id="paint0_linear" x1="715.049" y1="675.545" x2="718.231" y2="675.545" gradientUnits="userSpaceOnUse">
<stop stop-color="#808080" stop-opacity="0.25"/>
<stop offset="0.54" stop-color="#808080" stop-opacity="0.12"/>
<stop offset="1" stop-color="#808080" stop-opacity="0.1"/>
</linearGradient>
<clipPath id="clip0">
<rect x="185" y="34" width="1550" height="1012.42" fill="white"/>
</clipPath>
</defs>
</svg>
