<svg width="1920" height="1080" viewBox="0 0 1920 1080" fill="none" xmlns="http://www.w3.org/2000/svg">
<g clip-path="url(#clip0)">
<path opacity="0.1" d="M1213.7 1041.54C1281.63 1041.54 1336.7 1036.11 1336.7 1029.41C1336.7 1022.72 1281.63 1017.29 1213.7 1017.29C1145.77 1017.29 1090.7 1022.72 1090.7 1029.41C1090.7 1036.11 1145.77 1041.54 1213.7 1041.54Z" fill="#FC164D"/>
<path opacity="0.1" d="M885.128 52.6789C939.301 32.5427 1005.25 49.8606 1061.57 75.1178C1238.45 154.463 1367.32 305.083 1469.7 458.534C1506.77 514.097 1541.98 572.107 1555.92 634.135C1584.3 760.385 1510.29 891.085 1384.42 936.886C1341.62 952.477 1294.59 958.869 1247.5 962.431C1163.75 968.775 1077.04 966.257 993.965 942.763C934.719 925.972 878.676 898.964 824.923 869.126C674.807 785.75 537.715 677.478 439.001 545.219C395.706 487.209 359.079 421.811 358.024 354.878C356.969 287.945 400.587 220.689 472.353 209.307C502.024 204.606 533.41 209.499 564.028 214.536C609.109 221.96 654.803 229.767 699.369 226.529C745.41 223.159 805.291 205.17 813.686 161.216C822.573 114.023 831.028 72.7912 885.128 52.6789Z" fill="#FC164D"/>
<path d="M650.653 960.033C650.653 960.033 708.531 956.543 701.707 997.103C701.707 997.103 703.063 1004.3 696.562 1007.53C696.562 1007.53 696.467 1004.51 690.626 1005.53C688.551 1005.89 686.441 1006 684.342 1005.85C681.502 1005.65 678.804 1004.53 676.654 1002.67V1002.67C676.654 1002.67 660.38 995.952 654.059 969.351C654.059 969.351 649.37 963.559 649.562 962.06L659.324 966.233C659.324 966.233 655.99 973.285 658.617 979.138C658.617 979.138 658.928 966.497 660.811 966.785C661.183 966.845 665.884 969.183 665.884 969.183C665.884 969.183 660.14 981.452 664.469 990.375C664.469 990.375 662.826 975.252 667.671 970.071L674.555 974.089C674.555 974.089 667.839 986.765 672.397 997.103C672.397 997.103 671.197 981.237 675.994 975.06L682.231 979.857C682.231 979.857 675.922 992.354 679.772 1000.94C679.772 1000.94 680.264 982.46 683.574 981.069C683.574 981.069 689.031 985.866 689.858 987.857C689.858 987.857 685.541 996.923 688.215 1001.71C688.215 1001.71 689.858 989.404 691.214 989.344C691.214 989.344 696.634 997.499 697.21 1003.09C697.21 1003.09 696.97 994.777 692.521 988.564C692.521 988.564 697.774 989.464 700.844 992.87C700.844 992.87 699.992 987.101 691.19 986.597C691.19 986.597 686.704 980.421 685.493 980.037C685.493 980.037 694.26 979.306 699.573 981.668C699.573 981.668 694.895 976.223 683.886 978.694L677.733 973.681C677.733 973.681 689.283 972.098 694.164 973.849C694.164 973.849 688.539 969.052 676.078 972.542L669.386 968.536C669.386 968.536 679.221 966.413 685.085 967.181C685.085 967.181 678.897 963.847 667.419 967.456L662.622 965.31C662.622 965.31 669.818 963.895 671.941 963.667C674.064 963.439 674.16 962.863 674.16 962.863C669.594 962.098 664.907 962.617 660.619 964.362C660.619 964.362 650.473 960.728 650.653 960.033Z" fill="#FC164D"/>
<path opacity="0.1" d="M690.518 1017.98C713.144 1017.98 731.486 1014.88 731.486 1011.06C731.486 1007.24 713.144 1004.14 690.518 1004.14C667.892 1004.14 649.55 1007.24 649.55 1011.06C649.55 1014.88 667.892 1017.98 690.518 1017.98Z" fill="#FC164D"/>
<path d="M573.118 932.749C573.118 932.749 605.751 930.782 601.901 953.653C602.105 954.812 601.934 956.006 601.415 957.063C600.895 958.119 600.054 958.983 599.011 959.529C599.011 959.529 598.951 957.838 595.665 958.414C594.497 958.614 593.309 958.67 592.127 958.582C590.522 958.483 588.995 957.854 587.786 956.795V956.795C587.786 956.795 578.623 952.993 575.025 938.002C575.025 938.002 572.387 934.728 572.483 933.888L577.999 936.287C577.999 936.287 576.116 940.269 577.592 943.567C577.592 943.567 577.771 936.431 578.791 936.599C579.007 936.599 581.657 937.978 581.657 937.978C581.657 937.978 578.419 944.898 580.866 949.971C580.866 949.971 579.93 941.444 582.665 938.518L586.538 940.784C586.538 940.784 582.761 947.98 585.339 953.761C585.339 953.761 584.679 944.814 587.366 941.336L590.88 944.07C590.88 944.07 587.282 951.11 589.501 955.955C589.501 955.955 589.776 945.534 591.647 944.754C591.647 944.754 594.718 947.464 595.185 948.58C595.185 948.58 592.787 953.689 594.262 956.387C594.262 956.387 595.185 949.455 595.953 949.419C595.953 949.419 599.011 954.013 599.323 957.167C599.17 954.254 598.261 951.43 596.684 948.976C598.449 949.298 600.079 950.132 601.374 951.374C601.374 951.374 600.906 948.124 595.929 947.836C595.929 947.836 593.398 944.346 592.727 944.142C592.727 944.142 597.668 943.723 600.666 945.054C600.666 945.054 598.028 941.984 591.815 943.375L588.349 940.544C588.349 940.544 594.862 939.657 597.62 940.64C597.62 940.64 594.442 937.93 587.414 939.909L583.648 937.642C586.549 937.008 589.52 936.754 592.487 936.887C592.487 936.887 589.009 935.004 582.533 937.042L579.834 935.843C579.834 935.843 583.9 935.04 585.087 934.92C586.275 934.8 586.346 934.464 586.346 934.464C583.77 934.037 581.126 934.332 578.707 935.315C578.707 935.315 573.022 933.145 573.118 932.749Z" fill="#FC164D"/>
<path opacity="0.1" d="M595.593 965.418C608.35 965.418 618.692 963.667 618.692 961.508C618.692 959.349 608.35 957.598 595.593 957.598C582.836 957.598 572.495 959.349 572.495 961.508C572.495 963.667 582.836 965.418 595.593 965.418Z" fill="#FC164D"/>
<path d="M1375.94 954.732C1375.94 954.732 1415.34 952.333 1410.72 979.917C1410.96 981.319 1410.75 982.759 1410.12 984.033C1409.49 985.308 1408.47 986.352 1407.22 987.017C1407.22 987.017 1407.15 984.966 1403.18 985.662C1401.76 985.903 1400.33 985.971 1398.9 985.866C1396.96 985.74 1395.12 984.982 1393.67 983.707V983.707C1393.67 983.707 1382.59 979.138 1378.28 961.028C1378.28 961.028 1375.09 957.083 1375.22 956.075L1381.87 958.906C1381.87 958.906 1379.6 963.703 1381.39 967.697C1381.39 967.697 1381.6 959.086 1382.87 959.301C1383.14 959.301 1386.33 960.956 1386.33 960.956C1386.33 960.956 1382.42 969.352 1385.37 975.348C1385.37 975.348 1384.25 965.058 1387.55 961.532L1392.23 964.255C1392.23 964.255 1387.66 972.889 1390.76 979.929C1390.76 979.929 1389.96 969.136 1393.16 964.926L1397.41 968.236C1397.41 968.236 1393.11 976.739 1395.73 982.628C1395.73 982.628 1396.08 970.059 1398.33 969.1C1398.33 969.1 1402.04 972.374 1402.6 973.717C1402.6 973.717 1399.66 979.893 1401.49 983.156C1401.49 983.156 1402.6 974.76 1403.52 974.76C1403.52 974.76 1407.22 980.313 1407.6 984.115C1407.42 980.6 1406.33 977.193 1404.42 974.233C1406.56 974.636 1408.52 975.653 1410.08 977.159C1410.08 977.159 1409.51 973.237 1403.5 972.89C1403.5 972.89 1400.45 968.68 1399.64 968.428C1399.64 968.428 1405.64 967.924 1409.23 969.531C1409.23 969.531 1406.04 965.838 1398.55 967.517L1394.36 964.099C1394.36 964.099 1402.22 963.019 1405.55 964.207C1405.55 964.207 1401.71 960.932 1393.23 963.319L1388.68 960.597C1388.68 960.597 1395.37 959.157 1399.36 959.673C1399.36 959.673 1395.15 957.407 1387.37 959.865L1384.11 958.402C1384.11 958.402 1389.01 957.431 1390.45 957.287C1391.89 957.143 1391.96 956.735 1391.96 956.735C1388.86 956.217 1385.67 956.57 1382.75 957.754C1382.75 957.754 1375.82 955.188 1375.94 954.732Z" fill="#FC164D"/>
<path opacity="0.1" d="M1403.07 994.189C1418.47 994.189 1430.95 992.079 1430.95 989.476C1430.95 986.873 1418.47 984.763 1403.07 984.763C1387.67 984.763 1375.19 986.873 1375.19 989.476C1375.19 992.079 1387.67 994.189 1403.07 994.189Z" fill="#FC164D"/>
<path d="M1336.69 663.578C1335.93 659.355 1335.5 655.082 1335.38 650.794C1335.38 645.649 1328.39 641.091 1328.39 641.091C1328.39 641.091 1324.07 631.101 1321.19 629.626C1318.31 628.151 1309.43 615.079 1309.43 615.079C1309.33 612.5 1308.39 610.025 1306.75 608.027C1304.09 604.527 1301.66 600.857 1299.47 597.041C1298.27 595.578 1298.87 594.547 1297.08 586.02C1296.98 585.576 1296.87 585.144 1296.74 584.736C1296.74 584.544 1296.62 584.377 1296.55 584.185C1298.46 582.27 1299.79 579.856 1300.39 577.219C1300.99 574.582 1300.83 571.83 1299.94 569.277C1299.62 568.262 1299.03 567.351 1298.24 566.639C1296.21 564.984 1292.97 565.667 1290.89 564.096L1293.11 554.286C1293.63 551.888 1293.91 548.853 1291.81 547.558C1291.02 547.184 1290.19 546.907 1289.34 546.731C1285.74 545.531 1283.66 541.729 1282.72 538.072C1281.82 534.548 1281.58 530.889 1282 527.278C1282.41 523.8 1283.43 520.418 1283.8 516.928C1284.48 510.473 1282.92 503.981 1279.4 498.531C1278.03 496.179 1276.01 494.272 1273.58 493.038C1271.36 492.043 1268.78 491.839 1266.71 490.639C1262.25 487.797 1262.48 481.045 1258.91 477.171C1255.35 473.297 1249.04 473.309 1243.85 474.641C1238.66 475.972 1233.49 478.239 1228.16 477.675C1224.73 477.291 1221.52 475.732 1218.08 475.372C1217.09 475.279 1216.1 475.323 1215.13 475.504V475.396C1212.58 475.852 1210.25 477.267 1209.65 479.678C1209.51 480.251 1209.46 480.84 1209.48 481.429C1209.48 482.832 1209.81 484.295 1209.84 485.638C1209.88 486.172 1209.82 486.709 1209.65 487.218C1209.49 487.727 1209.22 488.197 1208.87 488.601C1208.18 489.332 1207.18 489.716 1206.47 490.471C1206.18 490.76 1205.95 491.105 1205.8 491.484C1205.65 491.864 1205.58 492.27 1205.59 492.678C1205.59 494.813 1208.26 496.696 1210.04 497.559H1210.11C1209.63 498.039 1209.15 498.543 1208.71 499.058C1203.59 504.844 1200.76 512.307 1200.77 520.034C1200.82 526.276 1202.68 532.368 1206.14 537.563C1209.6 542.758 1214.51 546.828 1220.25 549.273L1220 550.053C1219.49 551.595 1218.9 553.108 1218.23 554.586C1216.99 554.169 1215.68 554.028 1214.37 554.173C1213.07 554.318 1211.82 554.745 1210.7 555.425C1207.27 557.824 1200.57 557.632 1198.78 557.188C1196.99 556.745 1178.39 554.394 1176.89 554.982C1175.39 555.569 1172.43 552.931 1170.5 556.457C1168.57 559.983 1167.67 561.89 1165.7 562.777C1163.74 563.665 1160.34 566.447 1160.8 567.035C1161.25 567.622 1155.88 571.148 1155.88 571.148C1155.88 571.148 1151.26 575.945 1148.59 576.581C1145.92 577.217 1140.25 580.851 1140.25 580.851L1133.69 585.984C1133.69 585.984 1128.79 586.727 1130.28 583.345C1131.76 579.963 1127.59 575.706 1127.59 575.706C1127.59 575.706 1119.26 558.807 1119.26 555.318C1119.26 551.828 1112.41 536.944 1112.41 536.944L1111.57 536.86L1111.18 535.769C1109.92 532.231 1108.29 527.89 1107.05 525.347C1104.65 520.49 1103.17 519.986 1103.17 519.986C1103.17 519.986 1074.29 498.303 1055.54 504.911C1036.78 511.519 1089.78 531.212 1094.54 533.274C1096.2 533.994 1097.4 536.321 1098.24 539.043C1094.02 541.08 1090.46 544.28 1087.99 548.266C1087.99 548.266 1099.45 573.679 1099.75 579.999C1100.05 586.319 1107.65 603.985 1107.65 603.985C1107.65 603.985 1110.48 617.069 1125.8 616.326C1125.8 616.326 1146.95 620.212 1151.56 616.326C1156.18 612.44 1160.34 609.394 1162.59 608.95C1164.24 608.408 1165.68 607.385 1166.75 606.012C1166.75 606.012 1159.76 650.086 1156.33 653.912C1152.9 657.738 1122.59 707.221 1133.47 716.072C1142.08 722.742 1151.19 728.756 1160.7 734.061C1161.63 734.517 1164.4 729.899 1168.35 726.625C1168.35 727.453 1168.35 728.292 1168.35 729.18C1168.43 746.786 1170.75 773.554 1173.97 779.55C1178.76 788.365 1176.8 805.407 1176.8 805.407C1179.32 806.594 1182.06 807.251 1184.84 807.338C1184.99 807.914 1185.16 808.537 1185.31 809.137C1187.94 819.055 1192.2 834.394 1194.37 838.472C1197.64 844.648 1200.02 864.197 1200.02 864.197C1200.02 864.197 1201.96 883.386 1201.22 886.084C1200.93 887.104 1202.19 895.091 1204.17 905.273C1202.97 919.053 1200.69 945.617 1200.3 955.224C1200.3 955.404 1200.3 955.583 1200.3 955.751V955.919C1200.31 956.027 1200.31 956.135 1200.3 956.243C1200.3 956.459 1200.3 956.651 1200.3 956.831C1200.27 957.435 1200.29 958.042 1200.38 958.642C1200.52 959.557 1200.45 960.493 1200.17 961.376C1199.32 964.032 1198.24 966.608 1196.95 969.076C1196.4 970.288 1195.92 971.529 1195.51 972.793C1194.31 973.321 1192.84 974.604 1192.03 977.735C1190.54 983.467 1188.31 999.322 1188.31 999.322C1188.31 999.322 1187.41 1009.02 1185.64 1011.23C1183.86 1013.44 1182.04 1027.24 1194.72 1029C1207.39 1030.77 1212.87 1022.29 1212.87 1022.29L1212.43 983.815V983.743C1212.68 983.42 1212.91 983.07 1213.09 982.7V982.604C1213.17 982.424 1213.27 982.232 1213.35 982.016L1213.46 981.728L1213.65 981.26C1213.65 981.205 1213.65 981.148 1213.65 981.093C1214.88 977.407 1215.25 973.489 1214.73 969.639V969.447V969.148C1214.73 969.052 1214.73 968.944 1214.73 968.848V968.248C1214.73 968.176 1214.73 968.092 1214.73 968.02C1214.73 967.764 1214.76 967.501 1214.8 967.229C1214.8 967.229 1214.8 967.133 1214.8 967.085L1214.88 966.617V966.413C1214.88 966.257 1214.88 966.101 1214.97 965.933C1214.97 965.894 1214.97 965.853 1214.97 965.814C1215.09 965.262 1215.24 964.614 1215.39 964.087V963.955L1215.57 963.379C1215.75 962.767 1215.95 962.18 1216.17 961.532V961.412C1216.17 961.22 1216.3 961.028 1216.37 960.848V960.776C1216.59 960.189 1216.82 959.577 1217.03 959.073L1217.09 958.918L1217.29 958.438L1217.35 958.294L1217.8 957.227L1221.32 968.08C1221.32 968.08 1223.26 976.164 1222.21 978.07C1221.17 979.977 1223.41 987.917 1224.89 988.061L1223.51 998.051C1222.76 1003.56 1222.32 1009.1 1222.18 1014.66C1222.08 1015.3 1221.99 1015.86 1221.92 1016.24C1220.96 1021.37 1223.26 1029.3 1223.26 1029.3C1235.01 1043.2 1249.02 1030.38 1249.02 1030.38C1249.02 1030.38 1250.65 1023.03 1249.02 1021.57C1247.39 1020.11 1248.12 1014.8 1248.12 1014.8C1248.12 1014.8 1248.86 1001.72 1249.01 992.174C1249.15 982.628 1241.2 974.185 1241.2 974.185L1240.76 974.58C1239.3 970.839 1237.65 966.473 1238 964.518C1238.6 961.136 1236.35 925.433 1236.35 925.433C1237.18 915.862 1237.36 906.245 1236.88 896.65V896.65C1237.07 895.031 1237.25 893.436 1237.43 891.853C1238.33 884.177 1239.07 877.617 1239.35 874.175V873.767C1239.42 872.844 1239.46 872.184 1239.45 871.872C1239.45 870.673 1239.45 869.306 1239.57 867.807C1239.84 863.681 1240.49 859.088 1240.49 859.088L1243.61 840.127C1243.61 840.127 1246.01 830.868 1249.43 825.735L1249.83 825.088C1249.97 824.86 1250.1 824.608 1250.24 824.344L1250.3 824.236C1250.43 823.984 1250.58 823.721 1250.71 823.445L1250.77 823.337C1251.25 822.389 1251.77 821.298 1252.31 820.099C1252.31 820.003 1252.39 819.919 1252.43 819.823L1252.83 818.911C1252.83 818.791 1252.93 818.672 1252.99 818.552C1253.05 818.432 1253.24 817.94 1253.37 817.64C1253.43 817.519 1253.48 817.395 1253.53 817.268C1253.68 816.909 1253.85 816.537 1254.01 816.153L1254.24 815.601C1254.34 815.326 1254.46 815.05 1254.58 814.774L1254.87 814.042C1254.96 813.862 1255.03 813.682 1255.1 813.503L1255.42 812.675C1255.42 812.555 1255.53 812.423 1255.58 812.303C1256.43 810.181 1257.25 808.082 1257.98 806.175C1258.21 805.575 1258.43 804.976 1258.64 804.448C1266.27 804.916 1271.45 805.335 1271.45 805.335C1271.45 805.335 1273.84 788.149 1273.08 776.84C1272.57 769.117 1274.01 759.402 1274.96 754.053C1275.07 753.466 1275.16 752.938 1275.26 752.458L1275.46 752.626C1279.19 755.564 1281.87 745.862 1281.87 745.862C1281.87 745.862 1280.86 736.807 1279.47 725.834L1279.33 724.742C1281.48 725.201 1283.65 725.533 1285.84 725.738C1285.84 725.738 1287.04 725.63 1288.68 725.426C1293.23 728.057 1298.02 730.227 1303 731.902L1310.93 717.271C1312.42 714.238 1314.16 711.337 1316.14 708.6C1318.54 705.662 1327.01 696.259 1326.87 694.496C1326.72 692.733 1329.7 682.587 1332.67 678.03C1335.64 673.472 1336.83 664.31 1336.69 663.578ZM1303.64 674.744C1300.51 676.063 1297.53 683.415 1297.39 685.621C1297.24 687.828 1293.96 697.518 1290.54 698.694C1287.38 699.773 1281.36 705.314 1280.4 706.201C1279.42 706.285 1278.31 706.417 1277.14 706.609C1275.84 697.338 1274.54 689.663 1273.71 688.116C1271.31 683.702 1276.34 669.599 1276.34 669.599C1276.34 669.599 1276.83 655.351 1279.94 651.969C1283.04 648.587 1282.34 640.06 1282.34 640.06C1282.34 640.06 1283.08 636.534 1283.38 634.927C1283.68 633.32 1287.8 634.927 1287.84 634.927C1287.84 634.927 1295.88 639.328 1297.08 645.937C1298.27 652.545 1307.05 664.01 1307.05 664.01C1307.05 664.01 1305.71 667.98 1307.05 670.007C1308.4 672.033 1306.77 673.424 1303.64 674.744V674.744Z" fill="url(#paint0_linear)"/>
<path d="M1088.33 549.165C1090.77 545.133 1094.35 541.91 1098.62 539.901C1102.88 537.892 1107.65 537.184 1112.31 537.868V555.03H1101.89L1093.73 552.967L1088.33 549.165Z" fill="#4C4981"/>
<path opacity="0.1" d="M1088.33 549.165C1090.77 545.133 1094.35 541.91 1098.62 539.901C1102.88 537.892 1107.65 537.184 1112.31 537.868V555.03H1101.89L1093.73 552.967L1088.33 549.165Z" fill="black"/>
<path d="M1113.09 542.413L1100.32 551.36C1100.32 551.36 1100.21 549.573 1099.89 547.126C1099.25 542.497 1097.82 535.553 1094.74 534.21C1090.05 532.147 1037.85 512.503 1056.36 505.895C1074.88 499.287 1103.29 520.946 1103.29 520.946C1103.29 520.946 1104.76 521.45 1107.09 526.283C1108.29 528.825 1109.94 533.155 1111.17 536.693C1112.31 539.883 1113.09 542.413 1113.09 542.413Z" fill="#AE6E79"/>
<path d="M1215.13 556.193L1216.58 555.509L1220.65 560.162L1217.32 567.274L1211.64 564.995L1212.96 559.311L1215.13 556.193Z" fill="#4C4981"/>
<path d="M1195.81 972.722C1195.81 972.722 1192.14 972.29 1190.67 978.011C1189.21 983.731 1187 999.598 1187 999.598C1187 999.598 1186.13 1009.28 1184.36 1011.48C1182.6 1013.69 1180.85 1027.47 1193.31 1029.22C1205.77 1030.97 1211.21 1022.52 1211.21 1022.52L1210.76 984.055L1195.81 972.722Z" fill="#444053"/>
<path d="M1239.29 974.449C1239.29 974.449 1247.14 982.844 1246.99 992.366C1246.85 1001.89 1246.11 1014.95 1246.11 1014.95C1246.11 1014.95 1245.39 1020.24 1246.99 1021.7C1248.6 1023.16 1246.99 1030.5 1246.99 1030.5C1246.99 1030.5 1233.2 1043.3 1221.62 1029.42C1221.62 1029.42 1219.36 1021.5 1220.3 1016.39C1221.23 1011.28 1223.85 988.313 1223.85 988.313L1239.29 974.449Z" fill="#444053"/>
<path d="M1258.72 799.075C1258.72 799.075 1250.81 821.214 1247.42 826.347C1244.04 831.48 1241.72 840.739 1241.72 840.739L1238.63 859.652C1238.03 863.88 1237.69 868.142 1237.6 872.412C1237.75 876.67 1229.97 938.697 1229.97 938.697L1217.66 954.396C1217.66 954.396 1212.24 965.394 1213.11 969.987C1213.99 974.58 1212.52 981.872 1210.71 984.067C1210.71 984.067 1210.43 998.459 1209.98 1001.66C1209.54 1004.86 1211.6 1013.99 1209.98 1015.6C1208.36 1017.2 1186.81 1016.48 1186.22 1013.83C1185.64 1011.18 1188.86 998.435 1188.86 998.435L1190.77 986.118C1190.77 986.118 1194.58 979.378 1193.71 977.171C1192.83 974.964 1195.31 969.843 1195.46 969.399C1195.6 968.956 1199.57 961.772 1198.84 958.99C1198.11 956.207 1203.46 897.034 1203.46 897.034L1218.56 791.004L1258.72 799.075Z" fill="#AE6E79"/>
<path opacity="0.1" d="M1258.72 799.075C1258.72 799.075 1257.52 802.409 1255.88 806.786C1253.26 813.694 1249.5 823.205 1247.42 826.347C1244.05 831.48 1241.7 840.739 1241.7 840.739L1238.62 859.664C1238.03 863.893 1237.69 868.154 1237.6 872.424C1237.6 874.103 1236.47 884.813 1235.04 897.154C1232.82 916.019 1229.97 938.71 1229.97 938.71L1217.66 954.408C1217.66 954.408 1217.03 955.608 1216.25 957.503C1214.71 961.1 1212.52 966.941 1213.11 969.951C1213.99 974.497 1212.52 981.824 1210.71 984.031C1210.71 984.031 1210.41 998.423 1209.98 1001.62C1209.55 1004.83 1211.6 1013.94 1209.98 1015.56C1208.36 1017.18 1186.81 1016.45 1186.22 1013.81C1185.64 1011.17 1188.86 998.411 1188.86 998.411L1190.77 986.082C1190.77 986.082 1194.58 979.342 1193.7 977.135C1192.81 974.928 1195.31 969.807 1195.46 969.364C1195.6 968.92 1199.57 961.736 1198.84 958.954C1198.28 956.831 1201.24 922.087 1202.62 905.609C1203.09 900.428 1203.39 897.058 1203.39 897.058L1216.37 805.839L1217.43 798.487L1218.49 791.028L1258.72 799.075Z" fill="black"/>
<path d="M1245.53 1019.64C1245.66 1021.26 1224.84 1023.61 1221.87 1021.84C1218.89 1020.08 1221.87 998.23 1221.87 998.23L1223.22 988.264C1221.77 988.108 1219.56 980.193 1220.58 978.286C1221.6 976.379 1219.71 968.32 1219.71 968.32L1216.25 957.526L1214.14 950.918C1210.71 943.351 1205.75 921.763 1202.67 905.645C1200.72 895.523 1199.49 887.547 1199.76 886.528C1200.5 883.889 1198.56 864.677 1198.56 864.677C1198.56 864.677 1196.17 845.164 1193 839.012C1190.85 834.934 1186.67 819.619 1184.08 809.737C1182.76 804.664 1181.85 801.018 1181.85 801.018C1181.85 801.018 1204.01 799.159 1217.45 798.511C1223.63 798.212 1227.97 798.176 1227.47 798.679C1226.96 799.183 1226.83 801.869 1226.86 805.755C1226.92 815.817 1228.32 833.519 1229.81 838.28C1231.86 844.876 1233.91 864.665 1233.03 866.584C1232.16 868.502 1232.44 881.251 1232.44 881.251C1233.96 886.43 1234.83 891.775 1235.04 897.166C1235.5 906.717 1235.34 916.288 1234.53 925.817C1234.53 925.817 1236.73 961.46 1236.14 964.83C1235.55 968.2 1240.83 978.766 1240.83 980.817C1240.83 982.867 1242.29 996.803 1242.29 996.803C1242.29 996.803 1245.43 1018.03 1245.53 1019.64Z" fill="#AE6E79"/>
<path d="M1257.1 591.249L1254.58 593.971L1252.94 595.746L1243.35 606.06L1218.56 608.854L1205.36 605.328L1202.1 604.453C1202.1 604.453 1202.1 597.833 1202.69 589.893C1203.53 579.711 1205.53 567.346 1210.32 563.976C1212.71 562.101 1214.63 559.679 1215.89 556.913C1216.85 555.005 1217.65 553.024 1218.29 550.988C1218.39 550.724 1218.46 550.472 1218.54 550.209C1219.62 546.654 1220.4 543.016 1220.87 539.331C1220.87 539.331 1224.04 537.58 1228.44 535.541C1239.92 530.18 1259.74 522.781 1252.84 539.331C1251.83 541.755 1250.97 544.238 1250.25 546.767C1250.15 547.138 1250.05 547.51 1249.97 547.87C1247.66 557.08 1249.19 562.669 1250.9 565.751C1251.19 566.285 1251.52 566.795 1251.9 567.275C1252.37 567.918 1252.93 568.488 1253.56 568.966L1256.42 587.087L1256.66 588.586L1257.1 591.249Z" fill="#AE6E79"/>
<path opacity="0.1" d="M1252.86 540.218C1251.55 543.361 1253.49 537.652 1252.86 540.218C1247.63 543.936 1235.31 554.526 1228.39 554.526C1223.71 554.526 1222.31 553.674 1218.31 551.864C1219.52 548.068 1220.38 544.17 1220.88 540.218C1220.88 540.218 1262.39 517.336 1252.86 540.218Z" fill="black"/>
<path d="M1263.42 520.946C1263.42 528.844 1260.49 536.461 1255.2 542.33C1249.92 548.2 1242.65 551.907 1234.8 552.739C1233.69 552.847 1232.58 552.919 1231.45 552.919C1225.13 552.919 1218.94 551.044 1213.69 547.53C1208.43 544.017 1204.33 539.024 1201.91 533.181C1199.49 527.339 1198.86 520.91 1200.09 514.708C1201.32 508.506 1204.37 502.809 1208.84 498.337C1213.31 493.866 1219.01 490.82 1225.21 489.587C1231.41 488.353 1237.84 488.986 1243.68 491.406C1249.53 493.826 1254.52 497.924 1258.03 503.182C1261.55 508.44 1263.42 514.622 1263.42 520.946V520.946Z" fill="#AE6E79"/>
<path opacity="0.1" d="M1267.97 662.679L1263.41 674.564C1263.41 674.564 1259.7 674.72 1253.92 674.9C1234.41 675.523 1191.42 676.315 1189.5 671.302C1189.07 670.03 1188.84 668.699 1188.83 667.356C1188.57 659.717 1192.14 647.987 1192.14 647.987C1192.14 647.987 1194.19 624.517 1194.19 623.498C1194.19 622.478 1192.42 606.036 1192.42 606.036L1195.95 592.844L1205.77 585.948C1205.77 585.948 1210.17 592.7 1212.81 593.275C1215.45 593.851 1218.98 597.101 1218.98 597.101C1218.98 597.101 1227.62 602.378 1230.42 599.44C1233.21 596.502 1254.91 583.597 1254.91 583.597L1266.35 596.214L1267.97 662.679Z" fill="black"/>
<path d="M1267.97 664.502L1263.41 676.375C1263.41 676.375 1259.7 676.543 1253.92 676.723H1253.36C1250.87 676.807 1248.01 676.891 1244.97 676.95C1229.46 677.31 1208.1 677.406 1196.93 675.751C1192.74 675.152 1189.99 674.288 1189.53 673.113C1189.28 672.406 1189.1 671.674 1189.01 670.93C1188.93 670.378 1188.89 669.731 1188.86 669.167C1188.61 661.528 1192.17 649.798 1192.17 649.798C1192.17 649.798 1194.22 626.328 1194.22 625.309C1194.22 624.289 1192.46 607.847 1192.46 607.847L1195.99 594.655L1202.74 589.929L1205.81 587.771C1206.84 589.316 1207.97 590.798 1209.18 592.208C1210.13 593.479 1211.39 594.476 1212.85 595.098C1215.5 595.686 1219.01 598.924 1219.01 598.924C1219.01 598.924 1227.66 604.201 1230.45 601.263C1232.58 599.02 1245.77 590.949 1251.86 587.267C1253.73 586.128 1254.94 585.42 1254.94 585.42L1256.48 587.123L1266.38 598.037L1267.97 664.502Z" fill="white"/>
<path opacity="0.1" d="M1113.09 542.413L1100.32 551.359C1100.32 551.359 1100.21 549.572 1099.89 547.125C1106.19 544.463 1110.03 538.575 1111.13 536.692C1112.31 539.882 1113.09 542.413 1113.09 542.413Z" fill="black"/>
<path d="M1157.97 572.779L1155.19 572.036C1155.19 572.036 1150.63 576.833 1147.99 577.469C1145.35 578.104 1139.79 581.714 1139.79 581.714L1133.32 586.847C1133.32 586.847 1128.53 587.591 1129.95 584.209C1131.38 580.827 1127.31 576.581 1127.31 576.581C1127.31 576.581 1119.1 559.719 1119.1 556.193C1119.1 552.667 1112.31 537.868 1112.31 537.868C1112.31 537.868 1103.8 554.442 1088.25 549.165C1088.25 549.165 1099.55 574.53 1099.84 580.839C1100.13 587.147 1107.61 604.741 1107.61 604.741C1107.61 604.741 1110.4 617.801 1125.5 617.069C1125.5 617.069 1146.33 620.943 1150.88 617.069C1155.43 613.196 1159.53 610.149 1161.67 609.706C1163.82 609.262 1165.78 606.779 1165.78 606.779V589.342L1157.97 572.779Z" fill="#4C4981"/>
<path opacity="0.1" d="M1131.86 589.342C1131.86 589.342 1135.53 602.99 1133.18 604.453L1131.86 589.342Z" fill="black"/>
<path opacity="0.1" d="M1253.92 676.663C1234.41 677.286 1191.42 678.066 1189.5 673.065C1189.07 671.793 1188.84 670.461 1188.83 669.119L1252.57 672.477L1253.92 676.663Z" fill="black"/>
<path opacity="0.1" d="M1258.72 799.075C1258.72 799.075 1257.52 802.409 1255.88 806.786C1247.78 806.295 1237.06 805.779 1226.88 805.707C1223.28 805.707 1219.76 805.707 1216.42 805.827C1209.35 806.043 1203.23 806.618 1199.33 807.722C1194.4 809.239 1189.25 809.904 1184.1 809.689C1182.78 804.616 1181.87 800.97 1181.87 800.97C1181.87 800.97 1204.03 799.111 1217.48 798.463L1218.53 791.004L1258.72 799.075Z" fill="black"/>
<path d="M1275.88 745.394L1273.39 750.671C1273.39 750.671 1273.04 752.242 1272.6 754.737C1271.66 760.11 1270.2 769.8 1270.75 777.524C1271.48 788.821 1269.13 805.971 1269.13 805.971C1269.13 805.971 1215.16 801.426 1199.33 805.971C1183.5 810.516 1175.71 805.971 1175.71 805.971C1175.71 805.971 1177.62 788.965 1172.92 780.162C1169.72 774.166 1167.47 747.397 1167.39 729.792C1167.39 721.672 1167.8 715.52 1168.82 714.273C1172.05 710.315 1185.83 670.714 1185.83 670.714L1188.97 670.882L1197.36 671.326L1245.1 673.844L1252.59 674.24L1253.38 676.639L1275.88 745.394Z" fill="#444053"/>
<path d="M1299.64 727.789L1300.08 732.49C1300.08 732.49 1276.45 724.791 1277.65 715.328C1278.85 705.866 1277.65 706.933 1277.65 706.933L1296.64 708.54L1299.64 727.789Z" fill="#4C4981"/>
<path opacity="0.1" d="M1299.64 727.789L1300.08 732.49C1300.08 732.49 1276.45 724.791 1277.65 715.328C1278.85 705.866 1277.65 706.933 1277.65 706.933L1296.64 708.54L1299.64 727.789Z" fill="black"/>
<path opacity="0.1" d="M1147.63 593.131C1150.04 595.182 1152.89 596.661 1155.95 597.46C1155.07 597.268 1154.24 596.855 1153.55 596.261C1151.86 595.062 1150.26 593.755 1148.63 592.484C1147.31 591.452 1145.66 589.737 1144.04 589.318C1145.1 590.71 1146.31 591.988 1147.63 593.131V593.131Z" fill="black"/>
<path opacity="0.1" d="M1147.99 599.308C1148.75 600.166 1149.37 601.142 1149.81 602.198C1150.57 605.183 1150.52 608.315 1149.68 611.277L1145.89 602.138C1145.23 600.579 1144.57 599.02 1143.78 597.533C1143.43 596.897 1141.25 594.247 1141.5 593.695C1142.17 592.136 1147.28 598.432 1147.99 599.308Z" fill="black"/>
<path opacity="0.1" d="M1253.73 649.918C1256.32 649.605 1258.73 648.475 1260.63 646.692C1256.73 647.184 1253.04 648.719 1249.2 649.522C1245.64 650.35 1241.9 650.005 1238.55 648.539C1242.96 650.698 1249.03 650.77 1253.73 649.918Z" fill="black"/>
<path opacity="0.1" d="M1242.71 623.066C1242.01 623.17 1241.3 622.993 1240.73 622.574C1237.81 620.895 1234.92 619.144 1232.07 617.321C1229.3 615.534 1225.96 613.723 1223.59 611.469C1229.41 616.722 1234.83 621.159 1242.71 623.066Z" fill="black"/>
<path opacity="0.1" d="M1250.84 654.176C1252.38 654.245 1253.92 654.121 1255.42 653.804C1256.95 653.487 1258.29 652.604 1259.19 651.334C1258.64 651.208 1258.07 651.298 1257.59 651.585C1252.95 653.541 1247.84 654.152 1242.87 653.348C1245.25 654.368 1248.31 654.164 1250.84 654.176Z" fill="black"/>
<path opacity="0.1" d="M1223.07 722.272C1220.01 723.193 1216.88 723.807 1213.7 724.107C1211.23 724.221 1208.75 724.173 1206.29 723.963L1194.3 723.207L1188.3 722.824C1187.59 722.824 1184.7 722.824 1186.13 721.397C1186.85 720.701 1190.85 721.145 1191.88 721.109C1193.88 721.045 1195.87 721.009 1197.88 721.001C1201.85 721.001 1205.83 721.001 1209.8 721.241C1214.25 721.457 1218.63 721.792 1223.07 722.272Z" fill="black"/>
<path opacity="0.1" d="M1209.17 728.208C1207.13 728.124 1204.5 729.336 1202.4 729.6C1200.05 729.878 1197.69 729.97 1195.33 729.876C1190.65 729.764 1186.04 728.821 1181.69 727.093C1190.84 727.561 1200.02 727.837 1209.17 728.208Z" fill="black"/>
<path opacity="0.1" d="M1183.48 734.493C1184.36 734.672 1185.24 734.912 1186.09 735.212C1191.15 736.651 1196.54 735.38 1201.68 734.109C1200.4 736.04 1198.08 736.867 1195.77 737.395C1192.01 738.349 1188.08 738.492 1184.26 737.815C1183.06 737.575 1180.05 737.143 1179.46 735.896C1178.48 734.061 1182.35 734.313 1183.48 734.493Z" fill="black"/>
<path opacity="0.1" d="M1211.85 743.955C1213.37 744.266 1214.87 744.666 1216.34 745.154C1222.03 746.57 1227.95 744.627 1233.67 743.319C1240.55 741.758 1247.6 741.105 1254.64 741.376C1253.38 741.376 1251.38 742.48 1250.15 742.852C1248.53 743.343 1246.88 743.799 1245.24 744.207C1242.02 744.999 1238.74 745.646 1235.44 746.114C1228.78 747.077 1222.05 747.37 1215.33 746.99C1212.26 746.822 1206.94 747.133 1204.31 745.586C1206.58 744.237 1209.23 743.664 1211.85 743.955Z" fill="black"/>
<path opacity="0.1" d="M1214 563.077C1214 563.077 1214.29 576.581 1212.09 582.746C1211.4 584.664 1210.32 588.202 1209.14 592.172C1207.86 596.573 1206.46 601.503 1205.38 605.364C1204.3 609.226 1203.58 611.817 1203.58 611.817C1203.58 611.817 1198.62 652.161 1197.34 671.386C1197.34 671.722 1197.34 672.069 1197.27 672.393C1197.2 673.473 1197.08 674.6 1196.9 675.763C1194.04 694.856 1177.58 724.299 1172.05 726.65C1170.32 727.441 1168.75 728.524 1167.39 729.852C1167.39 721.732 1167.8 715.58 1168.82 714.333C1172.05 710.375 1185.83 670.774 1185.83 670.774L1188.97 670.942C1188.9 670.39 1188.85 669.743 1188.83 669.179C1188.57 661.54 1192.14 649.81 1192.14 649.81C1192.14 649.81 1194.19 626.34 1194.19 625.321C1194.19 624.301 1192.42 607.859 1192.42 607.859L1195.95 594.667L1202.7 589.941C1203.54 579.759 1205.54 567.395 1210.33 564.024C1212.73 562.149 1214.64 559.727 1215.91 556.961C1216.85 557.092 1215.13 556.253 1215.13 556.253L1214 563.077Z" fill="black"/>
<path d="M1216.58 555.509C1215.36 555.091 1214.06 554.95 1212.77 555.095C1211.49 555.24 1210.25 555.668 1209.15 556.349C1205.77 558.748 1199.18 558.544 1197.41 558.112C1195.65 557.68 1177.32 555.318 1175.83 555.905C1174.33 556.493 1171.42 553.854 1169.52 557.38C1167.61 560.906 1166.73 562.801 1164.83 563.677C1162.92 564.552 1159.54 567.347 1160.03 567.934C1160.52 568.522 1155.23 572.036 1155.23 572.036L1165.93 606.816C1165.93 606.816 1159.04 650.806 1155.67 654.62C1152.3 658.433 1122.37 707.857 1133.08 716.66C1141.56 723.327 1150.53 729.34 1159.92 734.649C1161.12 735.237 1165.34 727.321 1171.21 724.827C1177.07 722.332 1195.27 689.327 1196.39 670.558C1197.52 651.789 1202.7 609.994 1202.7 609.994C1202.7 609.994 1209.01 587.111 1211.2 580.947C1213.4 574.782 1213.11 561.278 1213.11 561.278L1216.58 555.509Z" fill="#4C4981"/>
<path opacity="0.1" d="M1275.88 745.394L1273.39 750.671C1273.39 750.671 1273.04 752.242 1272.6 754.737C1272.15 754.681 1271.73 754.493 1271.4 754.197C1267.73 751.259 1246.21 729.12 1245.15 709.463C1244.39 694.964 1244.75 682.467 1244.99 676.903C1245.06 675.152 1245.13 674.096 1245.13 673.868C1245.13 673.868 1261.85 653.624 1259.94 646.452C1258.04 639.281 1253.64 600.879 1253.64 600.879L1252.99 595.842L1251.87 587.327L1249.21 566.723L1251.97 567.371C1252.44 568.014 1253 568.584 1253.64 569.062L1256.49 587.183L1266.4 598.097L1268.02 664.538L1263.46 676.411C1263.46 676.411 1259.75 676.579 1253.97 676.759H1253.41L1275.88 745.394Z" fill="black"/>
<path d="M1285.12 635.719C1285.12 635.719 1281.02 634.1 1280.73 635.719C1280.44 637.338 1279.7 640.84 1279.7 640.84C1279.7 640.84 1280.43 649.355 1277.3 652.725C1274.17 656.095 1273.7 670.318 1273.7 670.318C1273.7 670.318 1268.76 684.398 1271.1 688.8C1271.95 690.395 1273.27 698.394 1274.59 707.988C1275.43 713.985 1276.26 720.569 1276.99 726.59C1278.32 737.527 1279.31 746.582 1279.31 746.582C1279.31 746.582 1276.66 756.26 1272.99 753.322C1269.32 750.384 1247.81 728.245 1246.75 708.588C1246.03 694.784 1246.32 682.791 1246.56 676.879C1246.66 674.372 1246.75 672.957 1246.75 672.957C1246.75 672.957 1263.47 652.713 1261.56 645.529C1259.66 638.345 1255.26 599.955 1255.26 599.955L1254.49 594.019L1253.66 587.639L1253.47 586.235L1250.82 565.847C1251.29 565.955 1267.74 569.673 1269.91 571.844C1272.08 574.015 1285.5 577.121 1285.5 577.121C1287.53 577.67 1289.37 578.752 1290.83 580.254C1292.29 581.756 1293.33 583.622 1293.83 585.66C1293.96 586.068 1294.05 586.499 1294.15 586.943C1295.91 595.458 1295.35 596.478 1296.55 597.953C1297.75 599.428 1285.12 635.719 1285.12 635.719Z" fill="#4C4981"/>
<path opacity="0.1" d="M1277.08 726.577C1271.09 725.378 1262.19 722.608 1262.39 716.491C1262.57 710.771 1269.46 708.708 1274.67 707.976C1275.51 713.949 1276.34 720.557 1277.08 726.577Z" fill="black"/>
<path d="M1295.68 723.531C1295.44 724.047 1294.48 724.491 1293.12 724.887C1289.91 725.65 1286.65 726.183 1283.37 726.482C1283.37 726.482 1262.98 724.863 1263.27 715.616C1263.48 708.984 1272.69 707.221 1277.86 706.825C1279.01 706.718 1280.16 706.67 1281.3 706.681C1281.3 706.681 1296.56 721.636 1295.68 723.531Z" fill="#AE6E79"/>
<path opacity="0.1" d="M1295.68 723.531C1295.44 724.047 1294.48 724.491 1293.12 724.886C1287.8 717.775 1280.39 708.648 1276.76 707.844L1277.86 706.825C1279.01 706.718 1280.16 706.67 1281.3 706.681C1281.3 706.681 1296.56 721.636 1295.68 723.531Z" fill="black"/>
<path d="M1290.55 596.969L1296.55 597.857C1298.71 601.67 1301.12 605.343 1303.74 608.854C1305.35 610.857 1306.28 613.325 1306.38 615.894C1306.38 615.894 1315.18 628.943 1317.97 630.406C1320.75 631.869 1325.01 641.847 1325.01 641.847C1325.01 641.847 1331.9 646.392 1331.9 651.525C1332.03 655.806 1332.47 660.071 1333.22 664.286C1333.38 665.017 1332.2 674.12 1329.26 678.678C1326.33 683.235 1323.39 693.285 1323.54 695.084C1323.7 696.883 1315.33 706.237 1312.99 709.164C1311.04 711.9 1309.32 714.797 1307.86 717.823L1300.09 732.49C1300.09 732.49 1283.65 708.288 1277.65 706.969C1277.65 706.969 1284.39 700.517 1287.76 699.341C1291.13 698.166 1294.36 688.548 1294.51 686.293C1294.65 684.038 1297.59 676.759 1300.66 675.499C1303.73 674.24 1305.36 672.861 1304.04 670.798C1302.72 668.735 1304.04 664.802 1304.04 664.802C1304.04 664.802 1295.38 653.36 1294.21 646.812C1293.03 640.264 1285.12 635.815 1285.12 635.815L1280.57 624.661L1290.55 596.969Z" fill="#4C4981"/>
<path opacity="0.1" d="M1312.37 651.717C1315.68 648.915 1319.86 647.333 1324.2 647.232C1321.42 647.711 1318.49 648.323 1316.46 650.266C1315.65 651.107 1314.94 652.023 1314.31 653C1313.61 653.996 1307.95 661.192 1307.11 660.052C1305.71 658.385 1311.23 652.689 1312.37 651.717Z" fill="black"/>
<path opacity="0.1" d="M1299.08 644.773C1299.98 644.696 1300.84 644.381 1301.57 643.86C1302.31 643.339 1302.89 642.632 1303.26 641.811C1303.98 640.158 1304.42 638.4 1304.57 636.606C1305 633.603 1305.6 630.628 1306.38 627.695C1306.61 627.116 1306.71 626.49 1306.67 625.867C1306.63 625.244 1306.44 624.639 1306.13 624.097C1305.81 623.16 1305.37 622.266 1304.83 621.435C1303.76 622.634 1303.44 625.428 1303 627.036C1302.45 629.026 1301.94 631.029 1301.46 633.032C1301.21 633.992 1299.22 644.773 1299.08 644.773Z" fill="black"/>
<path opacity="0.1" d="M1293.88 585.564C1293.29 586.337 1292.61 587.037 1291.86 587.651C1289.46 589.558 1286.28 591.165 1285.98 594.175C1286.06 595.153 1285.94 596.137 1285.62 597.065C1284.85 598.384 1282.97 598.264 1281.47 598.013C1280.21 597.899 1278.99 597.452 1277.96 596.717C1276.39 595.374 1276.24 592.976 1275.04 591.285C1274.31 590.412 1273.39 589.719 1272.35 589.259C1271.31 588.799 1270.18 588.585 1269.05 588.634C1266.8 588.562 1264.57 589.066 1262.33 589.162C1260.89 589.234 1259.44 589.138 1258.03 588.874C1257.56 588.802 1257.09 588.706 1256.63 588.586C1255.63 588.339 1254.65 588.006 1253.71 587.591C1253.22 587.396 1252.74 587.172 1252.28 586.919C1250.78 586.148 1249.39 585.18 1248.14 584.041C1245.95 582.026 1244.13 579.244 1244.31 576.257C1244.41 574.422 1245.24 572.731 1245.5 570.92C1246.4 565.739 1242.96 560.846 1239.23 557.141C1237.75 555.665 1236.16 554.238 1234.68 552.739C1232.36 550.603 1230.53 547.993 1229.31 545.088C1228.31 541.995 1227.99 538.723 1228.35 535.493C1228.69 532.219 1228.78 528.923 1228.63 525.635C1227.53 513.978 1217.57 505.043 1207.62 500.186L1207.18 499.958C1210.13 496.569 1213.76 493.841 1217.84 491.952C1221.92 490.063 1226.35 489.056 1230.85 488.997C1235.34 488.937 1239.8 489.826 1243.93 491.606C1248.05 493.385 1251.76 496.016 1254.8 499.325C1257.84 502.635 1260.15 506.548 1261.58 510.811C1263.01 515.074 1263.52 519.589 1263.08 524.063C1262.64 528.537 1261.27 532.868 1259.04 536.774C1256.82 540.68 1253.8 544.073 1250.17 546.731C1250.06 547.102 1249.97 547.474 1249.88 547.834C1247.58 557.045 1249.1 562.633 1250.82 565.716C1251.29 565.823 1267.74 569.541 1269.91 571.712C1272.08 573.883 1285.5 576.989 1285.5 576.989C1287.54 577.532 1289.4 578.615 1290.87 580.124C1292.35 581.633 1293.39 583.513 1293.88 585.564V585.564Z" fill="black"/>
<path d="M1205.06 491.503C1205.72 490.747 1206.72 490.363 1207.39 489.632C1209.47 487.377 1207.39 483.695 1208.15 480.721C1208.96 477.423 1213.02 475.984 1216.4 476.332C1219.78 476.679 1222.95 478.239 1226.33 478.622C1231.58 479.21 1236.67 476.931 1241.79 475.6C1246.91 474.269 1253.1 474.197 1256.62 478.119C1260.15 482.04 1259.91 488.72 1264.3 491.563C1266.32 492.87 1268.88 493.014 1271.07 493.961C1273.48 495.194 1275.47 497.098 1276.81 499.442C1280.28 504.899 1281.81 511.369 1281.15 517.803C1280.78 521.281 1279.77 524.663 1279.36 528.141C1278.95 531.753 1279.19 535.41 1280.08 538.935C1281 542.533 1283.01 546.419 1286.59 547.57C1287.42 547.752 1288.23 548.03 1288.99 548.398C1291.07 549.693 1290.79 552.739 1290.26 555.114L1288.13 564.96C1290.18 566.519 1293.37 565.847 1295.32 567.49C1296.11 568.206 1296.69 569.116 1297 570.129C1297.97 572.882 1298.07 575.864 1297.3 578.678C1296.53 581.493 1294.93 584.007 1292.7 585.888C1290.3 587.795 1287.12 589.402 1286.82 592.4C1286.91 593.378 1286.79 594.364 1286.46 595.29C1285.71 596.609 1283.81 596.49 1282.31 596.238C1281.05 596.122 1279.84 595.675 1278.81 594.942C1277.23 593.599 1277.09 591.201 1275.9 589.51C1275.17 588.638 1274.25 587.946 1273.21 587.487C1272.17 587.027 1271.03 586.812 1269.9 586.859C1267.64 586.787 1265.43 587.291 1263.17 587.399C1257.97 587.612 1252.89 585.778 1249.03 582.29C1246.82 580.263 1245.01 577.493 1245.18 574.494C1245.29 572.671 1246.12 570.968 1246.38 569.157C1247.27 563.989 1243.84 559.083 1240.11 555.378C1236.38 551.672 1232 548.254 1230.18 543.325C1227.9 537.22 1230.11 530.408 1229.49 523.932C1228.39 512.263 1218.45 503.34 1208.48 498.471C1206.26 497.331 1202.49 494.441 1205.06 491.503Z" fill="#444053"/>
<path opacity="0.1" d="M1283.5 592.22C1281.92 590.865 1281.78 588.478 1280.58 586.787C1279.85 585.915 1278.93 585.222 1277.9 584.76C1276.86 584.299 1275.72 584.081 1274.59 584.125C1272.33 584.053 1270.1 584.557 1267.86 584.664C1262.64 584.894 1257.54 583.053 1253.67 579.543C1251.47 577.529 1249.67 574.746 1249.83 571.76C1249.94 569.925 1250.77 568.222 1251.03 566.423C1251.93 561.242 1248.49 556.337 1244.76 552.631C1241.03 548.925 1236.67 545.507 1234.83 540.578C1232.56 534.486 1234.83 527.674 1234.16 521.186C1233.04 509.516 1223.1 500.593 1213.15 495.724C1210.82 494.585 1207.04 491.695 1209.62 488.756C1210.27 488.001 1211.27 487.617 1211.94 486.885C1214.01 484.643 1211.94 480.949 1212.7 477.987C1212.85 477.397 1213.11 476.84 1213.46 476.344C1210.95 476.811 1208.66 478.227 1208.05 480.625C1207.32 483.599 1209.37 487.281 1207.3 489.536C1206.62 490.268 1205.63 490.651 1204.97 491.395C1202.39 494.333 1206.17 497.235 1208.49 498.363C1218.46 503.232 1228.4 512.167 1229.51 523.824C1230.12 530.312 1227.91 537.124 1230.19 543.229C1232.01 548.146 1236.39 551.624 1240.12 555.282C1243.85 558.939 1247.32 563.881 1246.39 569.062C1245.89 570.815 1245.49 572.597 1245.19 574.398C1245.03 577.385 1246.84 580.167 1249.04 582.182C1252.91 585.693 1258 587.534 1263.22 587.303C1265.47 587.195 1267.69 586.703 1269.95 586.763C1271.08 586.721 1272.21 586.938 1273.25 587.4C1274.29 587.861 1275.21 588.554 1275.94 589.426C1277.14 591.117 1277.27 593.515 1278.86 594.859C1279.89 595.587 1281.1 596.029 1282.36 596.142C1283.86 596.418 1285.75 596.514 1286.51 595.206C1286.78 594.673 1286.89 594.075 1286.84 593.479C1285.64 593.361 1284.48 592.927 1283.5 592.22V592.22Z" fill="black"/>
<path d="M1108.92 520.946H1025.96V439.201H1108.98L1108.92 520.946ZM1107.72 397.694H1027.16C1027.16 270.664 1147.91 278.088 1147.91 197.723C1147.91 153.456 1111.68 117.993 1067.41 117.993C1023.14 117.993 986.924 156.227 986.924 198.982H906.427C906.391 177.831 910.53 156.881 918.608 137.334C926.685 117.786 938.541 100.025 953.497 85.0695C968.453 70.1137 986.214 58.2572 1005.76 50.18C1025.31 42.1028 1046.26 37.9637 1067.41 38C1156.33 38 1228.39 108.939 1228.39 197.723C1228.39 298.212 1107.66 309.653 1107.66 397.694H1107.72Z" fill="#FC164D"/>
<path opacity="0.1" d="M695.171 496.6H673.775V475.468H695.171V496.6ZM694.847 464.819H674.099C674.099 432.078 705.221 433.985 705.221 413.249C705.21 410.536 704.665 407.851 703.616 405.349C702.567 402.847 701.036 400.576 699.109 398.666C697.182 396.756 694.898 395.244 692.386 394.217C689.875 393.19 687.186 392.668 684.473 392.681C678.994 392.807 673.777 395.052 669.917 398.943C666.058 402.833 663.856 408.068 663.773 413.548H643.025C643.163 402.66 647.574 392.261 655.308 384.595C663.042 376.928 673.478 372.608 684.368 372.566C695.257 372.523 705.728 376.762 713.521 384.368C721.314 391.974 725.806 402.337 726.029 413.225C725.969 439.13 694.847 442.08 694.847 464.771V464.819Z" fill="#FC164D"/>
<path opacity="0.1" d="M857.172 643.406H835.777V622.334H857.172V643.406ZM856.86 611.637H836.113C836.113 578.884 867.234 580.803 867.234 560.067C867.223 557.354 866.678 554.67 865.629 552.169C864.58 549.667 863.048 547.397 861.121 545.488C859.194 543.579 856.91 542.068 854.399 541.043C851.888 540.017 849.199 539.497 846.486 539.511C840.984 539.61 835.737 541.845 831.853 545.744C827.97 549.643 825.756 554.9 825.679 560.403H804.931C805.068 549.514 809.48 539.115 817.213 531.449C824.947 523.783 835.384 519.462 846.273 519.42C857.163 519.377 867.633 523.616 875.426 531.222C883.219 538.828 887.712 549.191 887.934 560.079C887.97 585.984 856.86 588.946 856.86 611.637Z" fill="#FC164D"/>
<path opacity="0.1" d="M955.683 383.518H940.176V368.275H955.683V383.518ZM955.455 360.48H940.416C940.416 336.757 962.974 338.137 962.974 323.121C962.965 321.156 962.569 319.211 961.808 317.399C961.047 315.587 959.936 313.942 958.54 312.559C957.143 311.176 955.488 310.081 953.668 309.338C951.849 308.594 949.901 308.217 947.935 308.226C943.955 308.306 940.162 309.93 937.356 312.754C934.55 315.577 932.951 319.381 932.896 323.361H917.857C917.825 315.384 920.963 307.721 926.582 302.057C932.2 296.394 939.838 293.195 947.815 293.163C955.793 293.131 963.456 296.269 969.119 301.888C974.782 307.506 977.982 315.144 978.014 323.121C977.99 341.89 955.455 344.037 955.455 360.48V360.48Z" fill="#FC164D"/>
<path opacity="0.1" d="M1220.54 405.033H1211.77V396.398H1220.54V405.033ZM1220.4 392.021H1211.85C1211.85 378.613 1224.6 379.392 1224.6 370.901C1224.6 369.791 1224.38 368.691 1223.95 367.666C1223.53 366.642 1222.9 365.712 1222.11 364.931C1221.32 364.15 1220.38 363.534 1219.35 363.118C1218.32 362.701 1217.22 362.494 1216.11 362.506C1213.86 362.553 1211.72 363.47 1210.13 365.065C1208.55 366.66 1207.64 368.808 1207.61 371.057H1199.1C1199.2 366.625 1201.03 362.408 1204.19 359.302C1207.36 356.197 1211.61 354.449 1216.04 354.432C1220.47 354.415 1224.74 356.129 1227.92 359.21C1231.11 362.291 1232.97 366.494 1233.1 370.925C1233.15 381.467 1220.4 382.726 1220.4 392.021V392.021Z" fill="#FC164D"/>
<path opacity="0.1" d="M1354.57 797.768H1345.8V789.133H1354.57V797.768ZM1354.44 784.755H1345.93C1345.93 771.335 1358.69 772.127 1358.69 763.636C1358.68 761.395 1357.77 759.253 1356.18 757.679C1354.59 756.105 1352.43 755.228 1350.19 755.241C1347.94 755.284 1345.8 756.2 1344.21 757.796C1342.62 759.392 1341.72 761.542 1341.69 763.792H1333.19C1333.29 759.36 1335.11 755.142 1338.27 752.037C1341.44 748.931 1345.69 747.184 1350.12 747.167C1354.55 747.149 1358.82 748.864 1362.01 751.945C1365.19 755.025 1367.05 759.229 1367.19 763.66C1367.23 774.25 1354.49 775.461 1354.49 784.755H1354.44Z" fill="#FC164D"/>
</g>
<defs>
<linearGradient id="paint0_linear" x1="1194.15" y1="1035.88" x2="1194.15" y2="473.705" gradientUnits="userSpaceOnUse">
<stop stop-color="#808080" stop-opacity="0.25"/>
<stop offset="0.54" stop-color="#808080" stop-opacity="0.12"/>
<stop offset="1" stop-color="#808080" stop-opacity="0.1"/>
</linearGradient>
<clipPath id="clip0">
<rect x="358" y="38" width="1204" height="1003.55" fill="white"/>
</clipPath>
</defs>
</svg>
