<svg width="1920" height="1080" viewBox="0 0 1920 1080" fill="none" xmlns="http://www.w3.org/2000/svg">
<g clip-path="url(#clip0)">
<path opacity="0.1" d="M605.113 528.856C565.032 547.382 528.077 572.832 486.294 587.087C435.444 604.435 380.535 604.255 326.804 603.862L110 602.34C153.911 681.209 231.487 740.586 319.079 762.37C353.449 770.929 390.158 774.285 420.469 792.664C458.242 815.577 480.631 858.653 519.026 880.469C561.35 904.495 613.951 898.014 661.119 909.928C722.607 925.362 774.046 971.777 836.762 980.909C897.415 989.73 956.547 962.333 1015.33 945.034C1225.31 883.235 1452.17 949.24 1668.91 918.684C1677.24 917.506 1686.11 915.918 1692.13 910.059C1699.87 902.547 1700.51 890.42 1698.97 879.667C1691.25 826.084 1643.05 786.707 1592.51 767.28C1484.83 725.906 1363.87 751.895 1249.49 737.002C1170.93 726.757 1096.2 697.265 1022.49 668.018C945.303 637.397 866.908 607.348 793.767 567.725C719.415 527.383 695.308 487.22 605.113 528.856Z" fill="#FC164D"/>
<path d="M1283.82 813.302C1283.82 813.302 1287.1 862.401 1280.55 870.584C1280.55 870.584 1424.57 896.77 1442.58 888.587C1460.58 880.404 1452.4 867.311 1442.58 862.401C1432.76 857.491 1383.66 839.488 1377.11 805.119C1377.11 805.119 1398.39 795.299 1329.65 808.392C1260.91 821.485 1283.82 813.302 1283.82 813.302Z" fill="#DC9BA3"/>
<path opacity="0.05" d="M1283.82 813.302C1283.82 813.302 1287.1 862.401 1280.55 870.584C1280.55 870.584 1424.57 896.77 1442.58 888.587C1460.58 880.404 1452.4 867.311 1442.58 862.401C1432.76 857.491 1383.66 839.488 1377.11 805.119C1377.11 805.119 1398.39 795.299 1329.65 808.392C1260.91 821.485 1283.82 813.302 1283.82 813.302Z" fill="black"/>
<path d="M722.149 129.583L721.527 129.878C691.817 143.891 665.975 164.941 646.242 191.202C635.08 205.932 621.365 219.974 608.321 222.298C579.353 227.405 366.345 448.939 417.474 655.122C468.602 861.305 766.878 869.815 766.878 869.815C766.878 869.815 830.313 880.568 866.712 902.073C875.211 907.099 884.712 910.193 894.54 911.138C904.368 912.083 914.284 910.854 923.585 907.54C966.923 892.122 1038.15 869.766 1070.26 876.64C1117.97 886.869 1526.88 716.463 1526.88 716.463C1526.88 716.463 1356.47 552.8 1105.99 556.286C1105.99 556.286 710.659 280.235 724.293 166.064L722.149 129.583Z" fill="#FC164D"/>
<path opacity="0.1" d="M722.149 129.583L721.527 129.878C691.817 143.891 665.975 164.941 646.242 191.202C635.08 205.932 621.365 219.974 608.321 222.298C579.353 227.405 366.345 448.939 417.474 655.122C468.602 861.305 766.878 869.815 766.878 869.815C766.878 869.815 830.313 880.568 866.712 902.073C875.211 907.099 884.712 910.193 894.54 911.138C904.368 912.083 914.284 910.854 923.585 907.54C966.923 892.122 1038.15 869.766 1070.26 876.64C1117.97 886.869 1526.88 716.463 1526.88 716.463C1526.88 716.463 1356.47 552.8 1105.99 556.286C1105.99 556.286 710.659 280.235 724.293 166.064L722.149 129.583Z" fill="black"/>
<path d="M722.46 129.19L681.544 168.47C681.544 168.47 650.448 229.025 622.625 233.935C594.803 238.845 390.224 451.607 439.323 649.639C488.422 847.671 774.832 855.854 774.832 855.854C774.832 855.854 834.438 865.952 869.511 886.165C878.015 891.143 887.498 894.218 897.306 895.176C907.113 896.134 917.012 894.952 926.318 891.713C968.036 876.983 1035.61 855.854 1066.14 862.401C1111.96 872.22 1504.75 708.557 1504.75 708.557C1504.75 708.557 1341.09 551.441 1100.5 554.714C1100.5 554.714 720.807 289.58 733.9 179.926L722.46 129.19Z" fill="#FC164D"/>
<path opacity="0.1" d="M996.241 757.348C1046.64 706.945 1013.12 591.703 921.365 499.947C829.61 408.192 714.367 374.669 663.965 425.072C613.562 475.475 647.085 590.717 738.84 682.472C830.596 774.228 945.838 807.751 996.241 757.348Z" fill="black"/>
<path d="M722.459 337.042C722.459 337.042 740.462 366.502 729.006 423.784C717.55 481.066 758.465 481.066 758.465 481.066H840.297L868.119 409.054L828.84 412.328C828.84 412.328 802.654 405.781 814.111 345.226L722.459 337.042Z" fill="#FFD2D9"/>
<path d="M967.954 268.304C955.434 308.156 939.738 356.682 931.359 382.573L925.401 400.871L871.393 345.226C871.393 345.226 873.766 339.71 877.317 331.985C885.222 314.866 898.986 286.929 905.762 284.67C905.762 284.67 830.477 279.76 807.564 297.763C784.651 315.766 791.198 248.664 791.198 248.664C791.198 248.664 835.387 245.391 851.753 235.571C868.119 225.752 956.497 215.932 956.497 215.932C956.497 215.932 985.957 211.022 967.954 268.304Z" fill="#FFD2D9"/>
<path opacity="0.1" d="M671.724 762.566C671.724 762.566 810.838 698.738 859.936 708.557Z" fill="black"/>
<path opacity="0.1" d="M529.337 611.996C529.337 611.996 697.91 605.45 789.561 664.368Z" fill="black"/>
<path opacity="0.1" d="M612.805 679.098C612.805 679.098 745.372 646.365 815.747 657.822Z" fill="black"/>
<path d="M1458.94 749.473L1447.49 832.941L1418.03 829.668C1418.03 829.668 1416.24 828.031 1413.22 825.282C1405.28 818.294 1388.76 804.595 1372.95 797.132C1367.61 794.402 1361.8 792.672 1355.83 792.026L1388.57 742.927C1396.53 745.91 1404.7 748.327 1413 750.161C1421.63 752.183 1430.46 753.226 1439.32 753.27C1446.05 753.394 1452.74 752.101 1458.94 749.473Z" fill="#FFD2D9"/>
<path d="M1377.11 808.392C1362.38 821.485 1295.28 793.662 1283.82 836.215L1273.28 795.855L1240.83 671.651L1236.36 654.549L1209.32 653.387L899.052 640.146L881.442 639.426L872.179 639.033L884.47 632.945L966.301 592.389C966.301 592.389 995.761 590.327 1036.43 584.746C1098.07 576.301 1185.36 559.788 1234.66 530.214C1316.49 481.115 1347.59 646.415 1347.59 646.415C1347.59 646.415 1360.03 688.361 1369.52 729.686C1374.03 749.326 1377.88 768.965 1379.34 783.793C1380.73 796.379 1380.3 805.56 1377.11 808.392Z" fill="#E9E9EF"/>
<path opacity="0.05" d="M1377.11 808.392C1362.38 821.485 1295.28 793.662 1283.82 836.215L1273.28 795.855L1240.83 671.652L1236.36 654.549L1208.54 652.912L908.708 634.402L890.198 633.256L884.502 632.912L877.121 632.454L966.317 592.357C966.317 592.357 995.777 590.295 1036.45 584.714C1098.08 576.269 1185.38 559.755 1234.68 530.181C1316.51 481.082 1347.6 646.382 1347.6 646.382C1347.6 646.382 1360.04 688.329 1369.53 729.654C1374.05 749.293 1377.9 768.933 1379.35 783.761C1380.73 796.379 1380.3 805.56 1377.11 808.392Z" fill="black"/>
<path opacity="0.1" d="M1413 750.161L1384.36 783.744L1372.91 797.132C1367.56 794.402 1361.76 792.672 1355.79 792.026L1388.52 742.927C1396.5 745.912 1404.68 748.329 1413 750.161V750.161Z" fill="black"/>
<path d="M1411.48 746.2L1379.45 783.744L1364.02 801.845V806.755C1345.13 811.109 1286.26 798.703 1273.28 795.855C1271.65 795.512 1270.73 795.299 1270.73 795.299C1233.09 796.936 1093.97 715.104 1093.97 715.104C1093.97 715.104 941.768 741.29 868.12 734.744C826.991 731.078 815.469 716.201 813.309 703.762C812.359 697.614 813.206 691.323 815.747 685.645L881.442 639.426L890.165 633.289L904.093 623.469C904.093 623.469 928.298 617.986 959.051 611.194C1007.09 600.605 1071.11 586.841 1084.07 585.843C1105.35 584.206 1159.36 602.209 1190.45 638.215C1195.81 643.868 1201.86 648.817 1208.46 652.945L1209.31 653.501C1218.05 659.295 1228.82 665.465 1240.81 671.766C1280.44 692.633 1333.25 715.039 1369.57 729.752C1394.38 739.719 1411.48 746.2 1411.48 746.2Z" fill="#E9E9EF"/>
<path opacity="0.1" d="M1458.94 749.473L1447.49 832.941L1418.03 829.668C1418.03 829.668 1416.24 828.031 1413.22 825.282C1419.76 825.429 1430.5 823.547 1432.76 810.029C1432.76 810.029 1421.42 770.34 1439.3 753.27C1446.04 753.397 1452.74 752.103 1458.94 749.473V749.473Z" fill="black"/>
<path d="M1436.03 810.028C1436.03 810.028 1419.66 752.746 1457.31 746.2L1519.5 770.749L1591.51 775.659C1591.51 775.659 1610.32 806.362 1580.17 840.732C1571.91 850.051 1561.85 857.608 1550.61 862.952C1539.36 868.295 1527.15 871.313 1514.7 871.828L1436.01 875.51L1411.46 824.774C1411.46 824.774 1432.76 829.668 1436.03 810.028Z" fill="#DC9BA3"/>
<path opacity="0.1" d="M1036.45 584.714C1028.26 587.12 994.091 597.316 959.133 611.162C941.859 617.812 925.032 625.57 908.757 634.385C905.369 636.284 902.211 638.199 899.101 640.13C889.936 645.94 882.555 651.897 877.989 657.806C857.793 683.992 828.121 698.001 813.358 703.746C812.408 697.598 813.255 691.306 815.797 685.628L881.442 639.426L872.179 639.033L884.47 632.945L877.089 632.487L966.285 592.389C966.285 592.389 995.793 590.327 1036.45 584.714Z" fill="black"/>
<path opacity="0.1" d="M931.359 382.573L925.401 400.871L871.393 345.226C871.393 345.226 873.766 339.71 877.317 331.985C884.142 346.469 916.744 371.723 931.359 382.573Z" fill="black"/>
<path d="M736.502 409.758C734.571 404.21 733.157 398.496 732.279 392.688L661.904 417.237C661.904 417.237 613.624 454.061 618.534 534.256C618.534 534.256 678.271 512.162 704.457 538.348L704.997 542.963C710.535 588.718 730.78 631.438 762.688 664.696C775.781 678.362 787.974 693.779 794.471 708.557C794.471 708.557 840.297 695.464 868.12 659.459C895.942 623.453 1028.51 585.81 1028.51 585.81C1028.51 585.81 958.134 587.447 948.315 562.897C938.495 538.348 905.762 485.976 917.219 445.06C928.675 404.144 935.222 391.051 935.222 391.051C935.222 391.051 868.12 343.589 873.03 328.859L830.477 377.958L810.838 384.505C812.38 388.304 813.164 392.368 813.145 396.468C814.193 440.968 751.412 451.672 736.502 409.758Z" fill="#CEDAD5"/>
<path d="M345.364 614.877C345.364 614.877 359.079 632.88 339.03 659.884C318.981 686.888 302.451 709.818 309.145 726.708C309.145 726.708 339.39 676.414 364.005 675.71C388.62 675.007 372.45 645.171 345.364 614.877Z" fill="#FC164D"/>
<path opacity="0.1" d="M345.364 614.877C346.559 616.611 347.501 618.507 348.162 620.507C372.188 648.722 384.97 675.056 361.894 675.727C340.388 676.349 314.595 714.793 308.409 724.515C308.613 725.264 308.859 726.002 309.145 726.724C309.145 726.724 339.39 676.43 364.005 675.727C388.62 675.023 372.45 645.171 345.364 614.877Z" fill="black"/>
<path d="M370.813 637.79C370.813 644.107 370.11 649.246 369.177 649.246C368.244 649.246 367.54 644.123 367.54 637.79C367.54 631.456 368.424 634.516 369.291 634.516C370.159 634.516 370.813 631.472 370.813 637.79Z" fill="#FFD037"/>
<path d="M379.602 645.334C374.054 648.362 369.226 650.244 368.816 649.41C368.407 648.575 372.548 645.564 378.096 642.552C383.644 639.541 381.451 641.734 381.877 642.552C382.302 643.37 385.15 642.307 379.602 645.334Z" fill="#FFD037"/>
<path d="M272.91 614.877C272.91 614.877 259.195 632.88 279.244 659.884C299.292 686.888 315.822 709.818 309.128 726.708C309.128 726.708 278.884 676.414 254.269 675.71C229.654 675.007 245.84 645.171 272.91 614.877Z" fill="#FC164D"/>
<path opacity="0.1" d="M272.91 614.877C271.715 616.611 270.772 618.507 270.111 620.507C246.086 648.722 233.303 675.056 256.38 675.727C277.885 676.349 303.679 714.793 309.865 724.515C309.661 725.264 309.415 726.002 309.129 726.724C309.129 726.724 278.884 676.43 254.269 675.727C229.654 675.023 245.84 645.171 272.91 614.877Z" fill="black"/>
<path d="M247.411 637.79C247.411 644.107 248.115 649.246 249.048 649.246C249.981 649.246 250.684 644.123 250.684 637.79C250.684 631.456 249.801 634.516 248.933 634.516C248.066 634.516 247.411 631.472 247.411 637.79Z" fill="#FFD037"/>
<path d="M238.672 645.334C244.22 648.362 249.048 650.244 249.457 649.41C249.866 648.575 245.726 645.564 240.177 642.552C234.629 639.541 236.822 641.734 236.397 642.552C235.971 643.37 233.123 642.307 238.672 645.334Z" fill="#FFD037"/>
<path d="M251.781 724.416C251.781 724.416 290.127 723.238 301.682 715.006C313.237 706.774 360.601 697.003 363.53 710.096C366.46 723.189 421.156 775.741 377.867 776.085C334.578 776.429 277.28 769.342 265.742 762.321C254.203 755.3 251.781 724.416 251.781 724.416Z" fill="#A8A8A8"/>
<path opacity="0.2" d="M378.653 771.551C335.364 771.895 278.065 764.808 266.527 757.787C257.738 752.436 254.236 733.238 253.074 724.384H251.797C251.797 724.384 254.22 755.316 265.758 762.337C277.296 769.358 334.595 776.461 377.883 776.101C390.387 776.003 394.692 771.551 394.462 764.972C392.711 768.982 387.949 771.47 378.653 771.551Z" fill="black"/>
<path d="M558.306 940.877C561.305 938.432 563.491 935.133 564.574 931.417C565.392 927.653 563.788 923.152 560.188 921.778C556.162 920.239 551.857 923.021 548.6 925.853C545.344 928.684 541.596 931.892 537.324 931.286C539.52 929.296 541.162 926.771 542.091 923.958C543.021 921.144 543.205 918.137 542.627 915.231C542.442 914.026 541.933 912.895 541.154 911.958C538.912 909.568 534.869 910.599 532.185 912.482C523.675 918.472 521.301 930.026 521.252 940.435C520.401 936.687 521.121 932.776 521.089 928.979C521.056 925.182 520.008 920.796 516.768 918.799C514.758 917.719 512.502 917.183 510.221 917.244C506.392 917.097 502.136 917.49 499.518 920.288C496.245 923.758 497.112 929.601 499.943 933.381C502.775 937.162 507.063 939.601 511.023 942.252C514.198 944.139 516.905 946.718 518.945 949.797C519.185 950.224 519.382 950.673 519.534 951.139H543.478C548.861 948.404 553.849 944.952 558.306 940.877V940.877Z" fill="#FC164D"/>
<path d="M664.686 992.938C667.686 990.493 669.872 987.194 670.955 983.479C671.773 979.714 670.169 975.214 666.568 973.839C662.542 972.3 658.238 975.083 654.981 977.914C651.724 980.745 647.976 983.953 643.705 983.348C645.9 981.358 647.543 978.833 648.472 976.019C649.401 973.205 649.586 970.199 649.007 967.292C648.823 966.088 648.314 964.956 647.534 964.019C645.292 961.63 641.25 962.661 638.566 964.543C630.055 970.533 627.682 982.087 627.633 992.496C626.782 988.748 627.502 984.837 627.469 981.04C627.437 977.243 626.389 972.857 623.149 970.86C621.139 969.78 618.883 969.245 616.602 969.305C612.773 969.158 608.517 969.551 605.899 972.349C602.625 975.819 603.493 981.662 606.324 985.442C609.156 989.223 613.444 991.662 617.404 994.313C620.579 996.2 623.286 998.779 625.325 1001.86C625.565 1002.28 625.763 1002.73 625.915 1003.2H649.859C655.242 1000.47 660.23 997.013 664.686 992.938Z" fill="#FC164D"/>
<path d="M795.29 745.382C795.29 745.382 954.043 679.916 1083.34 742.108L1052.24 807.574L903.307 810.847L795.29 745.382Z" fill="#FC164D"/>
<path opacity="0.1" d="M811.623 366.731C812.122 360.613 812.952 354.527 814.111 348.499L722.459 340.316C722.459 340.316 728.81 345.798 731.576 366.256C742.328 372.639 754.881 381.231 768.285 381.231C783.926 381.255 799.146 376.163 811.623 366.731Z" fill="black"/>
<path d="M769.104 378.777C808.874 378.777 841.115 346.536 841.115 306.765C841.115 266.994 808.874 234.753 769.104 234.753C729.333 234.753 697.092 266.994 697.092 306.765C697.092 346.536 729.333 378.777 769.104 378.777Z" fill="#FFD2D9"/>
<path d="M715.913 325.586H725.733V297.763L735.552 268.304C735.552 268.304 784.651 245.391 807.564 250.301L825.567 266.667C825.567 266.667 830.477 227.388 801.018 212.659C771.558 197.929 719.186 204.475 706.093 215.932C693 227.388 671.724 247.028 688.09 301.037L693 314.13C693 314.13 712.639 307.583 715.913 325.586Z" fill="#844F6E"/>
<g opacity="0.05">
<path opacity="0.05" d="M843.112 363.392L848.48 361.608L873.259 333.082C872.772 331.73 872.715 330.261 873.095 328.876L843.112 363.392Z" fill="black"/>
<path opacity="0.05" d="M808.661 416.174C821.64 410.445 831.574 398.007 831.132 380.168C831.132 379.202 831.132 378.286 830.968 377.418L830.445 378.007L810.805 384.554C812.348 388.353 813.131 392.417 813.113 396.518C813.371 403.346 811.836 410.123 808.661 416.174V416.174Z" fill="black"/>
<path opacity="0.05" d="M999.574 584.468C958.56 598.74 903.012 621.211 886.122 643.092C885.713 643.632 885.288 644.14 884.862 644.729C929.804 613.911 1028.51 585.81 1028.51 585.81C1018.85 585.911 1009.19 585.463 999.574 584.468V584.468Z" fill="black"/>
<path opacity="0.05" d="M812.474 692.191C805.928 677.461 793.702 661.995 780.691 648.329C748.783 615.072 728.538 572.352 723 526.597L722.46 521.982C696.274 495.796 636.537 517.89 636.537 517.89C633.427 467.024 651.708 433.62 665.489 415.977L661.904 417.237C661.904 417.237 613.624 454.061 618.534 534.256C618.534 534.256 678.271 512.162 704.457 538.348L704.997 542.963C710.535 588.718 730.78 631.438 762.688 664.696C775.781 678.362 787.974 693.779 794.471 708.557C794.471 708.557 834.356 697.101 862.293 666.398C847.236 677.704 830.399 686.422 812.474 692.191V692.191Z" fill="black"/>
</g>
<path d="M794.471 500.705C794.471 500.705 715.913 613.633 674.997 646.366C634.081 679.098 622.625 631.636 622.625 631.636V526.892L694.637 518.708L695.406 528.643L696.273 539.985L763.375 467.973C763.375 467.973 830.477 407.418 843.57 443.423C856.663 479.429 794.471 500.705 794.471 500.705Z" fill="#FFD2D9"/>
<path opacity="0.1" d="M695.406 528.643C685.575 534.362 675.148 538.988 664.31 542.439C648.844 547.202 631.119 542.194 622.576 539.166V526.941L694.588 518.758L695.406 528.643Z" fill="black"/>
<path d="M621.807 516.253L617.502 533.782C617.502 533.782 643.083 545.713 664.359 539.166C685.636 532.62 702.002 521.163 705.275 519.527C708.548 517.89 692.182 499.887 692.182 499.887L621.807 516.253Z" fill="#CEDAD5"/>
<path opacity="0.1" d="M1093.16 715.922C1104.07 707.552 1116.22 700.927 1129.16 696.283C1141.46 692.054 1153.05 685.984 1163.53 678.28" fill="black"/>
<path opacity="0.2" d="M1591.51 775.659L1588.83 775.479C1592.72 785.299 1598.35 809.505 1575.26 835.871C1567 845.19 1556.94 852.748 1545.69 858.091C1534.45 863.434 1522.24 866.453 1509.79 866.967L1433.58 870.535L1436.01 875.559L1514.72 871.828C1527.16 871.314 1539.37 868.295 1550.62 862.952C1561.87 857.609 1571.92 850.051 1580.18 840.732C1610.31 806.362 1591.51 775.659 1591.51 775.659Z" fill="white"/>
<path opacity="0.05" d="M1220.39 859.946H1220.14C1220.36 863.808 1220.73 871.779 1220.8 880.535C1220.86 872.842 1220.62 865.281 1220.39 859.946Z" fill="#00FF00"/>
<path opacity="0.05" d="M1313.61 845.805C1313.84 846.798 1314.1 847.774 1314.38 848.734C1315.98 847.818 1318.29 846.083 1313.61 845.805Z" fill="#00FF00"/>
<path opacity="0.2" d="M1442.58 883.677C1425.8 891.304 1299.65 869.094 1282.5 866.017C1282.15 867.652 1281.49 869.204 1280.55 870.584C1280.55 870.584 1424.57 896.77 1442.58 888.587C1451.84 884.381 1454.16 878.865 1452.9 873.857C1451.95 877.343 1448.88 880.813 1442.58 883.677Z" fill="white"/>
<path opacity="0.05" d="M1220.14 859.961C1220.06 858.325 1219.99 857.491 1219.99 857.491C1219.99 857.491 1211.67 860.468 1220.14 859.961Z" fill="#00FF00"/>
<path opacity="0.1" d="M832.801 270.759H733.229C729.541 270.759 726.551 273.749 726.551 277.436V319.727C726.551 323.415 729.541 326.404 733.229 326.404H832.801C836.489 326.404 839.478 323.415 839.478 319.727V277.436C839.478 273.749 836.489 270.759 832.801 270.759Z" fill="black"/>
<path opacity="0.1" d="M727.468 288.762H687.992C685.787 288.762 683.999 290.55 683.999 292.755V306.045C683.999 308.25 685.787 310.038 687.992 310.038H727.468C729.673 310.038 731.461 308.25 731.461 306.045V292.755C731.461 290.55 729.673 288.762 727.468 288.762Z" fill="black"/>
<path d="M832.801 269.122H733.229C729.541 269.122 726.551 272.112 726.551 275.8V318.09C726.551 321.778 729.541 324.768 733.229 324.768H832.801C836.489 324.768 839.478 321.778 839.478 318.09V275.8C839.478 272.112 836.489 269.122 832.801 269.122Z" fill="#7679B4"/>
<path d="M832.687 272.396H746.404C742.716 272.396 739.726 275.385 739.726 279.073V314.817C739.726 318.505 742.716 321.494 746.404 321.494H832.687C836.375 321.494 839.364 318.505 839.364 314.817V279.073C839.364 275.385 836.375 272.396 832.687 272.396Z" fill="#565388"/>
<path d="M727.468 287.125H687.992C685.787 287.125 683.999 288.913 683.999 291.119V304.408C683.999 306.614 685.787 308.401 687.992 308.401H727.468C729.673 308.401 731.461 306.614 731.461 304.408V291.119C731.461 288.913 729.673 287.125 727.468 287.125Z" fill="#565388"/>
<path opacity="0.1" d="M814.864 272.363C832.575 261.655 846.957 246.23 856.402 227.814C857.498 225.67 858.546 223.264 857.94 220.94C856.778 216.488 850.968 215.703 846.778 213.788C838.972 210.204 835.682 201.153 830.559 194.263C826.18 188.516 820.293 184.096 813.552 181.495C806.811 178.895 799.481 178.216 792.377 179.533C784.914 181.039 778.007 184.738 770.479 185.851C754.243 188.224 736.535 178.388 721.952 185.851C715.308 189.271 710.807 195.67 706.846 202.053C696.912 217.945 684.457 234.786 693.491 253.427C698.68 264.081 706.961 272.919 718.597 276.029C730.234 279.138 743.703 276.553 755.536 275.26C765.274 274.212 775.47 271.986 785.274 273.017C796.746 274.261 803.915 278.942 814.864 272.363Z" fill="black"/>
<path d="M814.864 269.09C832.575 258.381 846.957 242.956 856.402 224.54C857.498 222.397 858.546 219.991 857.94 217.667C856.778 213.215 850.968 212.429 846.778 210.515C838.972 206.93 835.682 197.88 830.559 190.99C826.18 185.242 820.293 180.823 813.552 178.222C806.811 175.622 799.481 174.942 792.377 176.26C784.914 177.766 778.007 181.464 770.479 182.577C754.243 184.95 736.535 175.114 721.952 182.577C715.308 185.998 710.807 192.397 706.846 198.78C696.912 214.672 684.457 231.513 693.491 250.154C698.68 260.808 706.961 269.646 718.597 272.756C730.234 275.865 743.703 273.279 755.536 271.986C765.274 270.939 775.47 268.713 785.274 269.744C796.746 270.988 803.915 275.669 814.864 269.09Z" fill="#844F6E"/>
<path opacity="0.2" d="M1809.98 457.744L1098.07 584.992V203.248L1809.98 76V457.744Z" fill="#FC164D"/>
<path opacity="0.2" d="M1662.49 120.042L1794.16 97.3416L1796.07 156.342L1660.92 178.944L1662.49 120.042Z" fill="#FC164D"/>
<g opacity="0.2">
<path opacity="0.1" d="M1406.39 449.446C1410.86 448.437 1415.44 448.057 1420.01 448.317C1446.93 448.792 1474.87 451.427 1501.28 443.407C1515.31 439.185 1527.9 432.212 1542.36 429.217C1566.91 424.16 1591.46 431.541 1615.6 425.388C1620.51 424.128 1626.52 422.36 1630 424.258C1634.05 426.452 1631.18 432.147 1636.11 433.587C1637.67 433.781 1639.2 434.132 1640.69 434.635C1642.49 435.682 1641.36 437.908 1639.56 439.332C1628.61 448.219 1606.34 442.311 1592.62 449.495C1589.58 451.132 1587.29 453.194 1584.44 454.896C1579.93 457.22 1575.16 458.979 1570.22 460.133L1494.07 481.41C1475.83 486.499 1457.36 491.655 1438.5 493.897C1419.65 496.139 1400.09 495.223 1386.28 488.823C1383.32 487.449 1380.57 485.763 1379.44 483.472C1374.07 472.67 1387.42 454.487 1406.39 449.446Z" fill="#252223"/>
<path opacity="0.3" d="M1339.21 298.68L1402.92 349.055L1466.64 399.414L1361.99 419.201L1257.34 438.972L1298.28 368.826L1339.21 298.68Z" fill="#FC164D"/>
<path opacity="0.3" d="M1405.46 287.027L1469.17 337.386L1532.89 387.762L1428.24 407.532L1323.59 427.319L1364.53 357.173L1405.46 287.027Z" fill="#FC164D"/>
<path opacity="0.2" d="M1504 182.234L1381.04 416.468L1614.23 371.084L1700.4 354.8L1504 182.234Z" fill="#FC164D"/>
<path opacity="0.1" d="M1700.4 354.8L1614.23 371.084L1504 182.234L1700.4 354.8Z" fill="black"/>
<path opacity="0.2" d="M1568.83 290.824C1568.41 289.299 1567.47 287.969 1566.17 287.071C1564.87 286.172 1563.3 285.762 1561.72 285.914C1561.72 285.914 1563.36 273.05 1536.85 278.238C1536.39 277.31 1535.73 276.5 1534.91 275.868C1534.09 275.237 1533.14 274.801 1532.12 274.596C1531.11 274.39 1530.06 274.42 1529.06 274.683C1528.06 274.945 1527.14 275.434 1526.36 276.111L1525.23 270.137C1525.23 270.137 1510.69 278.467 1526.09 290.349L1527.94 300.169C1527.99 300.418 1528.07 300.66 1528.17 300.889C1528.26 301.068 1528.32 301.254 1528.37 301.446C1529.07 304.31 1534.24 327.01 1522.49 334.768C1509.91 343.196 1502.71 317.223 1502.71 317.223C1494.52 283.296 1478.94 283.426 1475.24 283.967C1474.8 283.967 1474.34 284.065 1473.89 284.098C1472.15 284.196 1466.77 286.127 1464.7 305.685C1462.23 329.154 1453.25 323.295 1453.25 323.295C1433.1 312.313 1418.88 321.92 1418.88 321.92C1383.92 342.476 1413.64 381.035 1419.78 388.351C1417.47 399.987 1412.81 420.494 1408.32 421.345C1401.97 422.54 1390.09 444.831 1422.27 479.495L1430.83 477.858C1430.83 477.858 1404.36 443.292 1425.2 426.091C1424.74 427.358 1424.2 428.589 1423.56 429.774C1411.89 449.724 1451.6 473.766 1451.6 473.766L1461.12 471.966L1439.12 444.258C1430.38 432.802 1446.69 423.44 1446.69 423.44C1465.98 407.303 1456.05 387.827 1456.05 387.827L1501.09 379.317C1495.52 391.624 1487.34 421.869 1514.54 461.705L1520.89 460.51L1515.7 412.196C1515.7 412.196 1517.34 401.804 1528.37 386.125C1532.76 405.765 1542.05 439.659 1556.09 453.849L1565.29 452.114C1565.29 452.114 1554.08 419.954 1553.84 407.925C1553.72 403.015 1553.51 398.187 1553.07 393.343L1550.77 368.007C1554.49 365.652 1557.4 362.223 1559.13 358.176C1560.85 354.128 1561.31 349.652 1560.43 345.34L1551.97 301.38C1551.85 300.762 1551.86 300.125 1551.99 299.51C1552.13 298.894 1552.39 298.313 1552.76 297.801C1553.12 297.289 1553.59 296.858 1554.13 296.534C1554.67 296.209 1555.27 295.998 1555.9 295.914L1566.75 294.441C1567.14 294.372 1567.51 294.218 1567.84 293.99C1568.16 293.761 1568.44 293.464 1568.63 293.119C1568.83 292.774 1568.95 292.389 1568.99 291.993C1569.02 291.596 1568.96 291.197 1568.83 290.824V290.824Z" fill="url(#paint0_linear)"/>
<path opacity="0.2" d="M1524.64 371.608C1524.64 371.608 1534.82 432.262 1554.74 452.359L1563.77 450.723C1563.77 450.723 1552.77 419.152 1552.48 407.385C1552.36 402.606 1552.17 397.827 1551.72 393.064L1548.03 352.149L1524.64 371.608Z" fill="#535461"/>
<path opacity="0.05" d="M1524.64 371.608C1524.64 371.608 1534.82 432.262 1554.74 452.359L1563.77 450.723C1563.77 450.723 1552.77 419.152 1552.48 407.385C1552.36 402.606 1552.17 397.827 1551.72 393.064L1548.03 352.149L1524.64 371.608Z" fill="black"/>
<path opacity="0.2" d="M1422.36 380.299C1422.36 380.299 1415.82 419.267 1409.63 420.445C1403.45 421.624 1391.73 443.505 1423.33 477.531L1431.74 475.894C1431.74 475.894 1402.61 437.859 1430.32 422.295C1430.3 422.344 1435.13 389.807 1422.36 380.299Z" fill="#535461"/>
<path opacity="0.05" d="M1422.36 380.299C1422.36 380.299 1415.82 419.267 1409.63 420.445C1403.45 421.624 1391.73 443.505 1423.33 477.531L1431.74 475.894C1431.74 475.894 1402.61 437.859 1430.32 422.295C1430.3 422.344 1435.13 389.807 1422.36 380.299Z" fill="black"/>
<path opacity="0.2" d="M1527.14 301.56L1525.33 291.97C1510.22 280.317 1524.47 272.134 1524.47 272.134L1526.42 282.412C1562.21 272.101 1560.3 287.616 1560.3 287.616C1561.84 287.46 1563.38 287.852 1564.66 288.723C1565.93 289.595 1566.86 290.89 1567.27 292.379C1567.4 292.753 1567.45 293.152 1567.41 293.547C1567.37 293.942 1567.24 294.322 1567.03 294.661C1566.83 295 1566.55 295.288 1566.21 295.505C1565.88 295.721 1565.5 295.861 1565.11 295.914L1554.46 297.371C1553.84 297.453 1553.25 297.66 1552.72 297.978C1552.19 298.297 1551.73 298.72 1551.37 299.223C1551.01 299.725 1550.75 300.296 1550.62 300.901C1550.49 301.505 1550.48 302.131 1550.59 302.739L1558.89 345.897C1559.5 348.985 1559.42 352.167 1558.67 355.223C1557.92 358.278 1556.51 361.133 1554.54 363.589C1551.46 367.369 1546.54 370.773 1538.68 372.017L1456.46 387.565C1456.46 387.565 1466.28 406.697 1447.26 422.524C1447.26 422.524 1431.25 431.672 1439.83 442.965L1461.42 470.166L1452.07 471.934C1452.07 471.934 1413.1 448.333 1424.56 428.743C1427.67 422.517 1429.06 415.575 1428.6 408.631C1428.14 401.687 1425.83 394.992 1421.92 389.235C1421.92 389.235 1381.99 345.176 1420.01 322.82C1420.01 322.82 1434.03 313.393 1453.8 324.179C1453.8 324.179 1462.63 329.923 1465.05 306.896C1467.06 287.698 1472.35 285.8 1474.05 285.701C1474.49 285.701 1474.93 285.701 1475.38 285.57C1479.01 285.047 1494.34 284.916 1502.35 318.221C1502.35 318.221 1509.42 343.654 1521.74 335.52C1533.28 327.91 1528.29 305.619 1527.52 302.788C1527.47 302.602 1527.4 302.421 1527.32 302.248V302.248C1527.24 302.026 1527.17 301.796 1527.14 301.56V301.56Z" fill="#535461"/>
<path opacity="0.2" d="M1503.93 373.261C1503.93 373.261 1478.63 408.367 1513.9 460.002L1520.14 458.824L1515.05 411.362C1515.05 411.362 1518.06 391.444 1545.37 365.307L1503.93 373.261Z" fill="#535461"/>
<path opacity="0.2" d="M1531.16 289.669C1534.77 288.986 1537.15 285.502 1536.47 281.887C1535.78 278.272 1532.3 275.895 1528.68 276.578C1525.07 277.261 1522.69 280.745 1523.38 284.36C1524.06 287.975 1527.54 290.352 1531.16 289.669Z" fill="#535461"/>
<path opacity="0.2" d="M1501.87 326.732C1509.56 315.03 1504.98 314.261 1502 311.184C1499.97 309.089 1482.92 308.287 1472.3 307.992C1472.07 307.174 1471.71 305.799 1471.28 304.13C1471.28 304.13 1470.43 301.053 1470.04 298.893H1470.71L1470.61 298.254L1483.71 297.551C1494.88 297.092 1495.42 292.641 1495.42 292.641C1495.69 284.998 1483.07 292.33 1483.07 292.33C1480.56 293.557 1473.92 292.641 1468.73 291.626C1468.59 290.541 1468.5 289.448 1468.48 288.353C1468.55 286.66 1468.44 284.966 1468.16 283.296C1467.97 281.853 1467.41 280.486 1466.52 279.335C1462.68 274.747 1458.25 270.696 1453.33 267.289C1453.04 264.401 1453.31 261.485 1454.11 258.697C1456.1 257.677 1457.71 256.047 1458.7 254.047C1459.69 252.047 1460.01 249.781 1459.61 247.584C1459.42 246.578 1459.08 245.607 1458.6 244.704C1460.94 241.594 1459.84 236.275 1456.6 233.362C1456.26 233.051 1455.88 232.772 1455.49 232.527C1453.39 231.122 1450.84 230.539 1448.34 230.891C1445.54 231.347 1442.89 232.433 1440.58 234.066C1437.81 235.899 1435.13 238.223 1431.82 238.583C1429.43 238.845 1426.91 238.026 1424.67 238.763C1421.71 239.712 1420.19 242.871 1419.24 245.768C1418.29 248.664 1417.37 251.856 1414.8 253.591C1412.56 255.096 1409.66 255.08 1407.03 255.718C1405.19 256.105 1403.47 256.939 1402.03 258.147C1400.59 259.354 1399.47 260.898 1398.76 262.641C1398.25 264.212 1398.26 265.909 1398.79 267.472C1399.33 269.036 1400.37 270.38 1401.74 271.299C1402.18 271.617 1402.65 271.876 1403.15 272.068C1403.71 272.241 1404.26 272.454 1404.79 272.707C1404.93 272.813 1405.05 272.948 1405.15 273.102C1405.24 273.257 1405.3 273.428 1405.33 273.607C1405.34 274.053 1405.24 274.496 1405.05 274.9C1404.74 275.802 1404.63 276.758 1404.71 277.707C1404.79 278.656 1405.07 279.578 1405.52 280.415C1405.83 281.026 1406.3 281.538 1406.88 281.888C1407.05 282.025 1407.23 282.141 1407.42 282.232C1409.34 283.066 1411.71 281.184 1413.61 282.035H1413.76C1414.49 282.833 1415.13 283.718 1415.65 284.67C1416.1 285.232 1416.66 285.7 1417.29 286.045C1418.96 287.136 1420.97 287.568 1422.94 287.256C1425.44 286.775 1427.82 285.819 1429.96 284.441C1432.86 282.805 1436.01 280.53 1436.24 277.289C1436.37 275.309 1435.34 273.394 1435.59 271.43C1435.72 270.492 1436.1 269.606 1436.68 268.86C1436.36 270.519 1436.24 272.213 1436.34 273.901C1436.4 275.27 1436.56 276.633 1436.83 277.977C1437.45 281.49 1438.72 284.858 1440.56 287.911C1443.04 291.884 1444.86 296.234 1445.95 300.791C1446.34 302.799 1446.37 304.86 1446.05 306.879C1445 312.739 1445.11 315.259 1445.41 316.323C1445.59 317.763 1446.06 317.779 1446.06 317.779H1446.18C1446.23 318.772 1446.48 319.744 1446.92 320.636C1447.36 321.528 1447.98 322.321 1448.73 322.968C1463.54 329.089 1493.67 320.414 1493.67 320.414C1487.58 322.558 1483.23 339.236 1483.23 339.236C1482.57 342.866 1481.05 346.287 1478.81 349.219V349.219C1475.54 348.728 1471.68 352.394 1468.76 354.538L1468.52 354.702C1468.23 354.896 1467.99 355.148 1467.82 355.442C1467.64 355.736 1467.53 356.064 1467.49 356.405C1467.45 356.746 1467.48 357.092 1467.58 357.419C1467.69 357.747 1467.86 358.048 1468.09 358.302L1479.68 371.003C1486.36 375.732 1490.2 376.043 1491.28 374.701C1491.99 373.818 1491.51 372.246 1489.88 370.724C1485.91 367.042 1486.49 355.095 1486.6 354.08C1488.42 349.988 1495.41 336.568 1501.87 326.732Z" fill="url(#paint1_linear)"/>
<path opacity="0.2" d="M1455.05 257.191C1455.05 257.191 1451.68 264.933 1453.9 271.594L1441.35 264.933C1441.35 264.933 1445.34 263.852 1444.51 254.344L1455.05 257.191Z" fill="#F9D5C6"/>
<path opacity="0.2" d="M1463.46 308.5C1463.46 308.5 1496.77 308.974 1499.6 311.986C1502.43 314.997 1506.77 315.799 1499.6 327.157C1492.43 338.515 1484.51 354.849 1484.51 354.849L1476.03 350.97C1479.1 347.722 1481.14 343.63 1481.87 339.219C1481.87 339.219 1485.9 322.967 1491.69 320.922C1491.69 320.922 1463.26 329.203 1449.14 323.147C1449.14 323.147 1445.38 320.316 1447.13 314.179C1448.88 308.041 1463.46 308.5 1463.46 308.5Z" fill="#353535"/>
<path opacity="0.1" d="M1444.97 265.227C1444.97 265.227 1436.65 263.181 1437.26 275.931C1437.5 280.551 1438.86 285.045 1441.22 289.024C1443.92 293.639 1447.77 301.577 1446.64 308.172C1445 318.156 1446.64 318.172 1446.64 318.172L1450.89 315.586C1456.63 312.085 1463.21 310.217 1469.93 310.185H1471.91C1471.91 310.185 1467.91 295.848 1467.83 289.498C1467.83 286.487 1467.83 283.688 1466.01 281.315C1460.33 273.983 1448.94 265.211 1444.97 265.227Z" fill="black"/>
<path opacity="0.2" d="M1444.85 264.638C1444.85 264.638 1436.54 262.592 1437.14 275.342C1437.38 279.962 1438.74 284.455 1441.1 288.435C1443.8 293.05 1447.65 300.987 1446.52 307.583C1444.89 317.567 1446.52 317.583 1446.52 317.583L1450.78 314.997C1456.51 311.496 1463.09 309.628 1469.81 309.596H1471.79C1471.79 309.596 1467.8 295.259 1467.72 288.909C1467.72 285.898 1467.72 283.099 1465.9 280.726C1460.22 273.361 1448.83 264.638 1444.85 264.638Z" fill="#409CD6"/>
<path opacity="0.1" d="M1441.76 274.851C1442.1 273.909 1442.68 273.07 1443.43 272.408C1444.18 271.746 1445.09 271.283 1446.06 271.061C1447.04 270.84 1448.06 270.867 1449.02 271.14C1449.98 271.413 1450.86 271.924 1451.58 272.625C1452.86 273.974 1453.88 275.55 1454.59 277.273C1458.53 286.209 1461.53 291.773 1461.53 291.773C1464.07 292.149 1466.57 292.73 1469.01 293.508C1469.39 296.569 1469.88 299.744 1469.88 299.744L1459.25 300.267L1444.7 283.017C1444.7 283.017 1440.27 279.368 1441.76 274.851Z" fill="black"/>
<path opacity="0.2" d="M1441.63 274.212C1441.97 273.271 1442.54 272.431 1443.3 271.769C1444.05 271.107 1444.95 270.644 1445.93 270.423C1446.91 270.202 1447.92 270.229 1448.89 270.502C1449.85 270.775 1450.73 271.285 1451.45 271.986C1452.73 273.335 1453.75 274.912 1454.46 276.634C1458.4 285.57 1461.4 291.135 1461.4 291.135C1461.4 291.135 1477.39 295.538 1481.51 293.459C1481.51 293.459 1493.39 286.372 1493.2 293.835C1493.2 293.835 1492.72 298.123 1482.15 298.5L1459.14 299.629L1444.59 282.379C1444.59 282.379 1440.15 278.664 1441.63 274.212Z" fill="#F9D5C6"/>
<path opacity="0.1" d="M1443.54 258.55C1443.85 257.06 1444.56 257.633 1444.33 255.015L1454.87 257.862C1454.43 258.926 1454.07 260.02 1453.79 261.136C1452.73 261.497 1451.63 261.701 1450.52 261.741C1448.19 262.199 1445.52 259.646 1443.54 258.55Z" fill="black"/>
<path opacity="0.2" d="M1451.03 261.588C1456.53 260.547 1460.15 255.24 1459.11 249.733C1458.07 244.226 1452.77 240.606 1447.26 241.646C1441.75 242.687 1438.13 247.994 1439.17 253.501C1440.21 259.008 1445.52 262.628 1451.03 261.588Z" fill="#F9D5C6"/>
<path opacity="0.1" d="M1453.3 249.188C1451.5 249.286 1449.53 248.714 1448.01 249.663C1446.49 250.612 1446.05 253.214 1446.37 255.244C1446.7 257.273 1447.55 259.319 1447.08 261.332C1446.44 263.967 1443.8 265.587 1441.51 266.978C1439.22 268.37 1436.6 270.252 1436.36 272.903C1436.14 274.818 1437.13 276.7 1437.01 278.631C1436.82 281.79 1433.85 283.967 1431.1 285.571C1429.12 286.889 1426.89 287.806 1424.56 288.271C1423.37 288.483 1422.14 288.376 1421.01 287.962C1419.87 287.548 1418.87 286.842 1418.09 285.914C1417.36 284.9 1416.91 283.541 1415.77 283.017C1413.97 282.166 1411.73 283.999 1409.93 283.181C1409.29 282.845 1408.79 282.31 1408.49 281.659C1408.05 280.841 1407.79 279.945 1407.71 279.023C1407.63 278.101 1407.73 277.172 1408.01 276.291C1408.19 275.895 1408.27 275.464 1408.26 275.031C1408.11 274 1406.85 273.656 1405.87 273.279C1404.25 272.506 1402.97 271.171 1402.27 269.524C1401.56 267.877 1401.48 266.03 1402.04 264.327C1402.67 262.647 1403.71 261.153 1405.07 259.98C1406.43 258.808 1408.06 257.995 1409.81 257.617C1412.3 256.995 1415.05 257.028 1417.14 255.587C1419.57 253.951 1420.42 250.792 1421.28 247.977C1422.15 245.162 1423.58 242.085 1426.37 241.185C1428.53 240.481 1430.87 241.283 1433.13 241.054C1436.26 240.727 1438.78 238.468 1441.32 236.701C1443.48 235.122 1445.99 234.074 1448.63 233.64C1449.96 233.435 1451.31 233.519 1452.6 233.886C1453.89 234.254 1455.08 234.895 1456.1 235.768C1460.61 239.876 1460.89 248.779 1453.3 249.188Z" fill="black"/>
<path opacity="0.2" d="M1452.92 248.943C1451.12 249.041 1449.16 248.468 1447.63 249.417C1446.11 250.367 1445.67 252.969 1446 254.998C1446.33 257.028 1447.18 259.073 1446.7 261.086C1446.06 263.721 1443.43 265.342 1441.14 266.733C1438.85 268.124 1436.23 270.006 1435.98 272.657C1435.77 274.572 1436.75 276.454 1436.64 278.386C1436.44 281.544 1433.48 283.721 1430.73 285.325C1428.74 286.643 1426.52 287.561 1424.18 288.025C1423 288.238 1421.78 288.135 1420.65 287.727C1419.51 287.319 1418.51 286.62 1417.73 285.701C1417 284.687 1416.56 283.328 1415.41 282.805C1413.61 281.954 1411.37 283.787 1409.57 282.968C1408.93 282.632 1408.43 282.098 1408.13 281.446C1407.69 280.628 1407.43 279.732 1407.35 278.81C1407.27 277.888 1407.37 276.959 1407.65 276.078C1407.83 275.682 1407.91 275.251 1407.9 274.818C1407.75 273.787 1406.49 273.443 1405.51 273.067C1403.89 272.293 1402.61 270.959 1401.91 269.311C1401.2 267.664 1401.12 265.817 1401.68 264.114C1402.31 262.435 1403.35 260.94 1404.71 259.768C1406.07 258.595 1407.7 257.783 1409.45 257.404C1411.94 256.782 1414.69 256.815 1416.78 255.375C1419.21 253.738 1420.06 250.579 1420.92 247.764C1421.79 244.949 1423.22 241.872 1426.01 240.972C1428.18 240.269 1430.52 241.07 1432.77 240.841C1435.9 240.514 1438.42 238.255 1440.96 236.488C1443.12 234.909 1445.63 233.861 1448.27 233.427C1449.6 233.222 1450.95 233.306 1452.24 233.674C1453.53 234.041 1454.72 234.683 1455.74 235.555C1460.24 239.63 1460.52 248.517 1452.92 248.943Z" fill="#2F302F"/>
<path opacity="0.1" d="M1455.9 274.605C1455.9 274.605 1442.81 275.456 1443.92 284.605C1445.03 293.754 1439.37 274.18 1439.37 274.18L1444.46 268.697L1451.73 269.581L1455.9 274.605Z" fill="black"/>
<path opacity="0.2" d="M1455.56 274.343C1455.56 274.343 1442.46 275.194 1443.58 284.343C1444.69 293.492 1439.03 273.918 1439.03 273.918L1444.12 268.435L1451.38 269.319L1455.56 274.343Z" fill="#409CD6"/>
<path opacity="0.2" d="M1467.63 357.68L1478.66 370.135C1485.02 374.783 1488.65 375.045 1489.66 373.817C1490.32 372.966 1489.86 371.428 1488.3 369.939C1484.36 366.174 1485.03 353.572 1485.03 353.572C1483.47 353.621 1481.93 353.194 1480.62 352.346C1479.3 351.498 1478.28 350.27 1477.68 348.826C1474.56 348.335 1470.96 351.887 1468.21 353.949L1467.98 354.113C1467.7 354.311 1467.47 354.566 1467.31 354.861C1467.14 355.155 1467.03 355.481 1467 355.819C1466.97 356.156 1467.01 356.497 1467.12 356.818C1467.23 357.139 1467.4 357.433 1467.63 357.68V357.68Z" fill="#409CD6"/>
<path opacity="0.1" d="M1485.05 353.605C1485.05 353.605 1478.76 354.473 1477.7 348.859C1478.32 350.287 1479.35 351.499 1480.66 352.344C1481.96 353.189 1483.49 353.627 1485.05 353.605V353.605Z" fill="black"/>
<path opacity="0.1" d="M1467.63 357.68L1478.66 370.135C1485.01 374.783 1488.65 375.045 1489.66 373.817C1486.49 372.835 1477.5 368.908 1468.24 353.998L1468.01 354.162C1467.74 354.358 1467.52 354.609 1467.35 354.897C1467.18 355.186 1467.08 355.506 1467.04 355.838C1467.01 356.169 1467.04 356.504 1467.14 356.821C1467.25 357.139 1467.41 357.431 1467.63 357.68V357.68Z" fill="black"/>
<path opacity="0.2" d="M1287.05 455.158C1287.05 455.158 1257.87 481.246 1324.36 500.313C1324.36 500.313 1333.04 472.948 1314.43 455.502C1310.81 452.097 1306.07 450.137 1301.11 449.992C1296.14 449.847 1291.3 451.528 1287.49 454.716L1287.05 455.158Z" fill="#FC164D"/>
<path opacity="0.2" d="M1287.33 454.667C1287.33 454.667 1319.62 470.853 1324.36 500.313" stroke="#535461" stroke-miterlimit="10"/>
<path opacity="0.2" d="M1322.53 500.591C1322.53 500.591 1305.59 467.498 1312.97 439.397C1316.16 427.603 1315.42 415.092 1310.88 403.752C1308.69 398.395 1306.01 393.251 1302.88 388.384" stroke="#535461" stroke-width="2" stroke-miterlimit="10"/>
<path opacity="0.2" d="M1307.42 370.724C1308.24 375.012 1302.81 388.94 1302.81 388.94C1302.81 388.94 1292.68 377.958 1291.88 373.67C1291.49 371.608 1291.93 369.476 1293.11 367.742C1294.29 366.008 1296.12 364.814 1298.18 364.423C1300.24 364.033 1302.37 364.477 1304.11 365.659C1305.84 366.84 1307.03 368.663 1307.42 370.724Z" fill="#FC164D"/>
<path opacity="0.2" d="M1324.77 392.082C1323.14 396.125 1311.01 404.864 1311.01 404.864C1311.01 404.864 1308.47 390.135 1310.12 386.092C1310.52 385.125 1311.1 384.245 1311.83 383.502C1312.57 382.759 1313.44 382.168 1314.4 381.762C1315.36 381.356 1316.39 381.144 1317.44 381.137C1318.48 381.13 1319.52 381.329 1320.48 381.723C1321.45 382.116 1322.33 382.696 1323.08 383.429C1323.82 384.163 1324.41 385.035 1324.82 385.997C1325.22 386.959 1325.43 387.992 1325.44 389.036C1325.45 390.08 1325.25 391.115 1324.85 392.082H1324.77Z" fill="#FC164D"/>
<path opacity="0.2" d="M1331.89 432.834C1328.42 435.486 1313.54 436.926 1313.54 436.926C1313.54 436.926 1318.8 422.933 1322.25 420.282C1323.92 419.005 1326.02 418.443 1328.1 418.717C1330.18 418.992 1332.06 420.082 1333.34 421.746C1334.62 423.411 1335.18 425.514 1334.9 427.594C1334.63 429.673 1333.54 431.558 1331.88 432.834H1331.89Z" fill="#FC164D"/>
<path opacity="0.2" d="M1330.34 464.88C1327.38 468.153 1312.96 471.999 1312.96 471.999C1312.96 471.999 1315.75 457.269 1318.73 454.127C1319.44 453.365 1320.29 452.75 1321.23 452.316C1322.18 451.882 1323.2 451.639 1324.23 451.599C1325.27 451.56 1326.31 451.725 1327.28 452.086C1328.26 452.446 1329.15 452.995 1329.91 453.701C1330.67 454.408 1331.29 455.257 1331.72 456.201C1332.16 457.144 1332.4 458.164 1332.44 459.202C1332.48 460.24 1332.31 461.276 1331.95 462.25C1331.59 463.224 1331.04 464.118 1330.34 464.88V464.88Z" fill="#FC164D"/>
<path opacity="0.2" d="M1294.84 408.776C1298.49 411.182 1313.41 411.575 1313.41 411.575C1313.41 411.575 1307.21 397.991 1303.59 395.568C1302.73 394.996 1301.76 394.599 1300.74 394.402C1299.72 394.205 1298.67 394.21 1297.65 394.418C1296.63 394.627 1295.66 395.033 1294.8 395.615C1293.94 396.197 1293.2 396.943 1292.63 397.81C1292.06 398.678 1291.66 399.649 1291.46 400.67C1291.27 401.69 1291.27 402.739 1291.48 403.758C1291.69 404.776 1292.09 405.743 1292.68 406.604C1293.26 407.465 1294 408.203 1294.87 408.776H1294.84Z" fill="#FC164D"/>
<path opacity="0.2" d="M1293.5 446.304C1297.7 447.515 1312.06 443.407 1312.06 443.407C1312.06 443.407 1302.07 432.294 1297.87 431.083C1295.85 430.504 1293.69 430.749 1291.85 431.765C1290.02 432.781 1288.66 434.484 1288.08 436.5C1287.5 438.517 1287.74 440.681 1288.76 442.516C1289.78 444.351 1291.48 445.708 1293.5 446.288V446.304Z" fill="#FC164D"/>
<path opacity="0.2" d="M1297.15 482.916C1301.07 484.814 1315.93 483.21 1315.93 483.21C1315.93 483.21 1307.96 470.575 1304.04 468.677C1302.15 467.763 1299.97 467.638 1297.99 468.328C1296 469.019 1294.38 470.469 1293.46 472.359C1292.55 474.249 1292.42 476.425 1293.12 478.408C1293.81 480.391 1295.26 482.018 1297.15 482.932V482.916Z" fill="#FC164D"/>
<path opacity="0.25" d="M1307.42 370.724C1308.24 375.012 1302.81 388.94 1302.81 388.94C1302.81 388.94 1292.68 377.958 1291.88 373.67C1291.49 371.608 1291.93 369.476 1293.11 367.742C1294.29 366.008 1296.12 364.814 1298.18 364.423C1300.24 364.033 1302.37 364.477 1304.11 365.659C1305.84 366.84 1307.03 368.663 1307.42 370.724Z" fill="black"/>
<path opacity="0.25" d="M1324.77 392.082C1323.14 396.125 1311.01 404.864 1311.01 404.864C1311.01 404.864 1308.47 390.135 1310.12 386.092C1310.52 385.125 1311.1 384.245 1311.83 383.502C1312.57 382.759 1313.44 382.168 1314.4 381.762C1315.36 381.356 1316.39 381.144 1317.44 381.137C1318.48 381.13 1319.52 381.329 1320.48 381.723C1321.45 382.116 1322.33 382.696 1323.08 383.429C1323.82 384.163 1324.41 385.035 1324.82 385.997C1325.22 386.959 1325.43 387.992 1325.44 389.036C1325.45 390.08 1325.25 391.115 1324.85 392.082H1324.77Z" fill="black"/>
<path opacity="0.25" d="M1331.89 432.834C1328.42 435.486 1313.54 436.926 1313.54 436.926C1313.54 436.926 1318.8 422.933 1322.25 420.282C1323.92 419.005 1326.02 418.443 1328.1 418.717C1330.18 418.992 1332.06 420.082 1333.34 421.746C1334.62 423.411 1335.18 425.514 1334.9 427.594C1334.63 429.673 1333.54 431.558 1331.88 432.834H1331.89Z" fill="black"/>
<path opacity="0.25" d="M1330.34 464.88C1327.38 468.153 1312.96 471.999 1312.96 471.999C1312.96 471.999 1315.75 457.269 1318.73 454.127C1319.44 453.365 1320.29 452.75 1321.23 452.316C1322.18 451.882 1323.2 451.639 1324.23 451.599C1325.27 451.56 1326.31 451.725 1327.28 452.086C1328.26 452.446 1329.15 452.995 1329.91 453.701C1330.67 454.408 1331.29 455.257 1331.72 456.201C1332.16 457.144 1332.4 458.164 1332.44 459.202C1332.48 460.24 1332.31 461.276 1331.95 462.25C1331.59 463.224 1331.04 464.118 1330.34 464.88V464.88Z" fill="black"/>
<path opacity="0.25" d="M1294.84 408.776C1298.49 411.182 1313.41 411.575 1313.41 411.575C1313.41 411.575 1307.21 397.991 1303.59 395.568C1302.73 394.996 1301.76 394.599 1300.74 394.402C1299.72 394.205 1298.67 394.21 1297.65 394.418C1296.63 394.627 1295.66 395.033 1294.8 395.615C1293.94 396.197 1293.2 396.943 1292.63 397.81C1292.06 398.678 1291.66 399.649 1291.46 400.67C1291.27 401.69 1291.27 402.739 1291.48 403.758C1291.69 404.776 1292.09 405.743 1292.68 406.604C1293.26 407.465 1294 408.203 1294.87 408.776H1294.84Z" fill="black"/>
<path opacity="0.25" d="M1293.5 446.304C1297.7 447.515 1312.06 443.407 1312.06 443.407C1312.06 443.407 1302.07 432.294 1297.87 431.083C1295.85 430.504 1293.69 430.749 1291.85 431.765C1290.02 432.781 1288.66 434.484 1288.08 436.5C1287.5 438.517 1287.74 440.681 1288.76 442.516C1289.78 444.351 1291.48 445.708 1293.5 446.288V446.304Z" fill="black"/>
<path opacity="0.25" d="M1297.15 482.916C1301.07 484.814 1315.93 483.21 1315.93 483.21C1315.93 483.21 1307.96 470.575 1304.04 468.677C1302.15 467.763 1299.97 467.638 1297.99 468.328C1296 469.019 1294.38 470.469 1293.46 472.359C1292.55 474.249 1292.42 476.425 1293.12 478.408C1293.81 480.391 1295.26 482.018 1297.15 482.932V482.916Z" fill="black"/>
<path opacity="0.2" d="M1354.43 506.859C1354.43 506.859 1337.49 473.766 1344.87 445.666C1348.04 433.898 1347.31 421.419 1342.79 410.102C1340.6 404.745 1337.92 399.601 1334.79 394.734" stroke="#535461" stroke-width="2" stroke-miterlimit="10"/>
<path opacity="0.2" d="M1339.39 376.976C1340.21 381.264 1334.77 395.192 1334.77 395.192C1334.77 395.192 1324.64 384.21 1323.84 379.922C1323.45 377.86 1323.89 375.728 1325.07 373.994C1326.26 372.26 1328.08 371.066 1330.14 370.675C1332.2 370.285 1334.33 370.729 1336.07 371.911C1337.8 373.092 1339 374.914 1339.39 376.976Z" fill="#FC164D"/>
<path opacity="0.2" d="M1356.74 398.334C1355.1 402.377 1342.97 411.116 1342.97 411.116C1342.97 411.116 1340.43 396.387 1342.09 392.344C1342.88 390.391 1344.42 388.833 1346.36 388.014C1348.31 387.194 1350.49 387.18 1352.45 387.974C1354.4 388.769 1355.96 390.306 1356.78 392.249C1357.6 394.192 1357.61 396.381 1356.82 398.334H1356.74Z" fill="#FC164D"/>
<path opacity="0.2" d="M1363.86 439.086C1360.39 441.738 1345.51 443.178 1345.51 443.178C1345.51 443.178 1350.76 429.185 1354.22 426.533C1355.88 425.257 1357.98 424.695 1360.06 424.969C1362.14 425.244 1364.03 426.334 1365.3 427.998C1366.58 429.663 1367.14 431.766 1366.87 433.846C1366.59 435.925 1365.5 437.81 1363.84 439.086H1363.86Z" fill="#FC164D"/>
<path opacity="0.2" d="M1362.3 471.131C1359.34 474.405 1344.92 478.251 1344.92 478.251C1344.92 478.251 1347.72 463.521 1350.7 460.379C1352.12 458.84 1354.1 457.931 1356.2 457.851C1358.29 457.771 1360.34 458.527 1361.88 459.953C1363.41 461.379 1364.32 463.358 1364.4 465.454C1364.48 467.551 1363.73 469.593 1362.3 471.131V471.131Z" fill="#FC164D"/>
<path opacity="0.2" d="M1326.8 415.028C1330.45 417.434 1345.38 417.827 1345.38 417.827C1345.38 417.827 1339.18 404.243 1335.56 401.82C1334.69 401.248 1333.72 400.851 1332.7 400.654C1331.68 400.457 1330.63 400.462 1329.61 400.67C1328.59 400.879 1327.63 401.285 1326.76 401.867C1325.9 402.449 1325.17 403.195 1324.59 404.062C1324.02 404.93 1323.62 405.901 1323.43 406.922C1323.23 407.942 1323.23 408.991 1323.44 410.01C1323.65 411.028 1324.06 411.995 1324.64 412.856C1325.22 413.717 1325.97 414.455 1326.83 415.028H1326.8Z" fill="#FC164D"/>
<path opacity="0.2" d="M1325.46 452.539C1329.67 453.751 1344.02 449.643 1344.02 449.643C1344.02 449.643 1334.04 438.53 1329.83 437.319C1327.81 436.739 1325.65 436.985 1323.81 438.001C1321.98 439.016 1320.62 440.72 1320.04 442.736C1319.46 444.752 1319.71 446.916 1320.72 448.752C1321.74 450.587 1323.44 451.944 1325.46 452.523V452.539Z" fill="#FC164D"/>
<path opacity="0.2" d="M1329.16 489.167C1333.09 491.066 1347.95 489.462 1347.95 489.462C1347.95 489.462 1339.98 476.827 1336.05 474.929C1335.11 474.476 1334.1 474.213 1333.06 474.153C1332.02 474.093 1330.98 474.238 1330 474.58C1329.02 474.922 1328.11 475.454 1327.34 476.146C1326.56 476.837 1325.93 477.675 1325.48 478.611C1325.02 479.547 1324.76 480.563 1324.7 481.601C1324.64 482.639 1324.79 483.678 1325.13 484.66C1325.47 485.642 1326 486.546 1326.69 487.323C1327.39 488.099 1328.22 488.731 1329.16 489.184V489.167Z" fill="#FC164D"/>
<path opacity="0.1" d="M1422.05 204.41L1419.17 204.95C1419.71 204.848 1420.18 204.538 1420.48 204.089C1420.79 203.639 1420.9 203.086 1420.8 202.552C1420.7 202.019 1420.39 201.547 1419.94 201.242C1419.49 200.936 1418.94 200.822 1418.4 200.924L1395.08 205.327C1394.55 205.429 1394.08 205.738 1393.77 206.188C1393.47 206.638 1393.35 207.19 1393.45 207.724C1393.56 208.258 1393.87 208.73 1394.31 209.035C1394.76 209.34 1395.32 209.455 1395.85 209.353L1398.73 208.813C1398.47 208.863 1398.22 208.965 1397.99 209.113C1397.77 209.261 1397.57 209.451 1397.42 209.674C1397.27 209.897 1397.16 210.147 1397.11 210.411C1397.05 210.674 1397.05 210.946 1397.1 211.21C1397.15 211.475 1397.26 211.726 1397.4 211.951C1397.55 212.176 1397.74 212.37 1397.96 212.521C1398.19 212.672 1398.44 212.778 1398.7 212.833C1398.96 212.887 1399.24 212.889 1399.5 212.839L1395.47 213.608C1394.94 213.71 1394.47 214.02 1394.16 214.469C1393.86 214.919 1393.74 215.472 1393.85 216.006C1393.95 216.539 1394.26 217.011 1394.71 217.316C1395.16 217.622 1395.71 217.736 1396.24 217.634L1419.57 213.231C1419.83 213.181 1420.08 213.079 1420.31 212.931C1420.53 212.783 1420.73 212.592 1420.88 212.37C1421.03 212.147 1421.13 211.897 1421.19 211.633C1421.24 211.37 1421.25 211.098 1421.19 210.834C1421.14 210.569 1421.04 210.318 1420.89 210.093C1420.75 209.868 1420.56 209.674 1420.33 209.523C1420.11 209.372 1419.86 209.266 1419.6 209.211C1419.33 209.157 1419.06 209.155 1418.8 209.205L1422.82 208.436C1423.09 208.386 1423.34 208.284 1423.56 208.136C1423.79 207.988 1423.98 207.797 1424.13 207.575C1424.29 207.352 1424.39 207.102 1424.45 206.838C1424.5 206.575 1424.5 206.303 1424.45 206.038C1424.4 205.774 1424.3 205.522 1424.15 205.297C1424 205.072 1423.81 204.879 1423.59 204.728C1423.37 204.576 1423.12 204.471 1422.85 204.416C1422.59 204.362 1422.32 204.359 1422.05 204.41Z" fill="#252223"/>
<path opacity="0.1" d="M1379.81 244.458L1376.93 244.998C1377.2 244.948 1377.45 244.846 1377.67 244.698C1377.9 244.55 1378.09 244.359 1378.24 244.137C1378.39 243.914 1378.5 243.664 1378.55 243.4C1378.61 243.137 1378.61 242.865 1378.56 242.601C1378.51 242.336 1378.41 242.085 1378.26 241.86C1378.11 241.635 1377.92 241.441 1377.7 241.29C1377.48 241.139 1377.23 241.033 1376.96 240.978C1376.7 240.924 1376.43 240.922 1376.16 240.972L1352.79 245.375C1352.26 245.477 1351.79 245.787 1351.48 246.236C1351.18 246.686 1351.06 247.239 1351.16 247.773C1351.27 248.306 1351.58 248.778 1352.02 249.083C1352.47 249.389 1353.03 249.503 1353.56 249.401L1356.44 248.861C1356.18 248.911 1355.93 249.013 1355.7 249.161C1355.48 249.309 1355.28 249.5 1355.13 249.722C1354.98 249.945 1354.87 250.195 1354.82 250.459C1354.76 250.722 1354.76 250.994 1354.81 251.259C1354.86 251.523 1354.97 251.775 1355.11 252C1355.26 252.224 1355.45 252.418 1355.67 252.569C1355.9 252.721 1356.15 252.826 1356.41 252.881C1356.67 252.935 1356.95 252.937 1357.21 252.887L1353.18 253.656C1352.92 253.707 1352.67 253.809 1352.44 253.957C1352.22 254.104 1352.03 254.295 1351.87 254.518C1351.72 254.74 1351.62 254.991 1351.56 255.254C1351.51 255.518 1351.51 255.789 1351.56 256.054C1351.61 256.318 1351.71 256.57 1351.86 256.795C1352 257.02 1352.2 257.213 1352.42 257.365C1352.64 257.516 1352.89 257.622 1353.15 257.676C1353.42 257.731 1353.69 257.733 1353.95 257.682L1377.34 253.28C1377.61 253.229 1377.86 253.127 1378.08 252.979C1378.31 252.831 1378.5 252.641 1378.65 252.418C1378.8 252.196 1378.91 251.945 1378.96 251.682C1379.02 251.418 1379.02 251.146 1378.97 250.882C1378.92 250.618 1378.82 250.366 1378.67 250.141C1378.52 249.916 1378.33 249.723 1378.11 249.571C1377.89 249.42 1377.64 249.314 1377.37 249.26C1377.11 249.205 1376.84 249.203 1376.57 249.254L1380.6 248.484C1380.86 248.434 1381.11 248.332 1381.34 248.184C1381.56 248.036 1381.76 247.846 1381.91 247.623C1382.06 247.4 1382.17 247.15 1382.22 246.886C1382.27 246.623 1382.28 246.351 1382.23 246.087C1382.18 245.822 1382.07 245.571 1381.93 245.346C1381.78 245.121 1381.59 244.927 1381.36 244.776C1381.14 244.625 1380.89 244.519 1380.63 244.464C1380.36 244.41 1380.09 244.408 1379.83 244.458H1379.81Z" fill="#252223"/>
<path opacity="0.1" d="M1618.38 193.297L1615.5 193.837C1615.77 193.787 1616.02 193.685 1616.24 193.537C1616.47 193.389 1616.66 193.198 1616.81 192.976C1616.97 192.753 1617.07 192.503 1617.13 192.239C1617.18 191.976 1617.18 191.704 1617.13 191.44C1617.08 191.175 1616.98 190.924 1616.83 190.699C1616.68 190.474 1616.49 190.28 1616.27 190.129C1616.05 189.978 1615.8 189.872 1615.53 189.817C1615.27 189.763 1615 189.761 1614.73 189.811L1591.43 194.263C1590.89 194.365 1590.42 194.675 1590.12 195.124C1589.81 195.574 1589.7 196.127 1589.8 196.661C1589.9 197.194 1590.21 197.666 1590.66 197.971C1591.11 198.277 1591.66 198.391 1592.2 198.289L1595.08 197.749C1594.81 197.799 1594.56 197.901 1594.34 198.049C1594.11 198.197 1593.92 198.388 1593.77 198.61C1593.62 198.833 1593.51 199.083 1593.46 199.347C1593.4 199.611 1593.4 199.882 1593.45 200.147C1593.5 200.411 1593.6 200.663 1593.75 200.888C1593.9 201.113 1594.09 201.306 1594.31 201.457C1594.53 201.609 1594.78 201.714 1595.05 201.769C1595.31 201.823 1595.58 201.826 1595.85 201.775L1591.74 202.446C1591.21 202.548 1590.73 202.858 1590.43 203.308C1590.12 203.757 1590.01 204.31 1590.11 204.844C1590.21 205.378 1590.52 205.849 1590.97 206.154C1591.42 206.46 1591.97 206.574 1592.51 206.472L1615.83 202.07C1616.1 202.019 1616.35 201.917 1616.57 201.769C1616.8 201.621 1616.99 201.431 1617.14 201.208C1617.29 200.985 1617.4 200.735 1617.45 200.472C1617.51 200.208 1617.51 199.936 1617.46 199.672C1617.41 199.408 1617.31 199.156 1617.16 198.931C1617.01 198.706 1616.82 198.512 1616.6 198.361C1616.38 198.21 1616.12 198.104 1615.86 198.05C1615.6 197.995 1615.33 197.993 1615.06 198.044L1619.09 197.274C1619.35 197.224 1619.6 197.122 1619.83 196.974C1620.05 196.826 1620.25 196.635 1620.4 196.413C1620.55 196.19 1620.66 195.94 1620.71 195.676C1620.76 195.413 1620.77 195.141 1620.72 194.877C1620.67 194.612 1620.56 194.36 1620.42 194.136C1620.27 193.911 1620.08 193.717 1619.85 193.566C1619.63 193.415 1619.38 193.309 1619.12 193.254C1618.85 193.2 1618.58 193.198 1618.32 193.248L1618.38 193.297Z" fill="#252223"/>
<path opacity="0.3" d="M1310.9 265.606C1322.69 263.379 1330.43 252.019 1328.21 240.233C1325.98 228.447 1314.62 220.698 1302.83 222.925C1291.05 225.152 1283.3 236.512 1285.53 248.298C1287.75 260.084 1299.11 267.833 1310.9 265.606Z" fill="#FC164D"/>
<path opacity="0.05" d="M1436.46 356.6C1436.46 356.6 1447.37 366.24 1452.46 374.8C1457.55 383.359 1455.93 386.256 1455.93 386.256" fill="black"/>
</g>
</g>
<defs>
<linearGradient id="paint0_linear" x1="1503.4" y1="464.219" x2="1468.78" y2="281.016" gradientUnits="userSpaceOnUse">
<stop stop-color="#808080" stop-opacity="0.25"/>
<stop offset="0.54" stop-color="#808080" stop-opacity="0.12"/>
<stop offset="1" stop-color="#808080" stop-opacity="0.1"/>
</linearGradient>
<linearGradient id="paint1_linear" x1="98375.7" y1="50900.3" x2="98375.7" y2="37683.8" gradientUnits="userSpaceOnUse">
<stop stop-color="#808080" stop-opacity="0.25"/>
<stop offset="0.54" stop-color="#808080" stop-opacity="0.12"/>
<stop offset="1" stop-color="#808080" stop-opacity="0.1"/>
</linearGradient>
<clipPath id="clip0">
<rect x="110" y="76" width="1700" height="927.184" fill="white"/>
</clipPath>
</defs>
</svg>
