<svg width="1920" height="1080" viewBox="0 0 1920 1080" fill="none" xmlns="http://www.w3.org/2000/svg">
<g clip-path="url(#clip0)">
<path opacity="0.1" d="M1132.57 755.409C1165.63 753.525 1206.64 731.105 1238.53 721.189C1276.26 709.484 1314.15 698.222 1352.19 687.403C1484.62 649.723 1618.46 617.617 1753.72 591.085C1766.35 588.602 1778.99 586.179 1791.65 583.816C1771.93 541.193 1741.37 504.49 1703.02 477.372C1704 468.041 1704.5 458.666 1704.52 449.284C1704.52 301.007 1586.02 180.804 1439.79 180.804C1394.77 180.756 1350.51 192.376 1311.32 214.53C1207.82 146.449 1072.73 105.244 924.937 105.244C714.92 105.244 530.554 188.446 426.084 313.735L917.069 396.683L1218.2 447.534C874.908 457.779 530.554 467.964 188.249 443.915C143.063 487.636 114.464 545.693 107.338 608.163C100.213 670.634 115.004 733.64 149.183 786.414V786.414C149.183 791.783 149.408 797.108 149.812 802.387C158.531 804.885 166.951 807.308 174.504 808.893C295.76 834.508 417.793 855.946 540.605 873.205C450.104 929.007 339.891 936.904 235.496 960.535C286.048 1002.26 354.698 1027.84 430.347 1027.84H1556.74C1678.7 1027.84 1777.56 942.931 1777.56 838.177C1795.87 807.996 1808.06 774.513 1813.46 739.63C1587.77 761.422 1359.27 742.502 1132.57 755.409Z" fill="#FC164D"/>
<path opacity="0.1" d="M1815 695.016C1815.12 651.843 1804.86 609.274 1785.07 570.901C1765.29 532.527 1736.57 499.474 1701.33 474.53C1702.31 465.204 1702.81 455.834 1702.83 446.457C1702.83 298.181 1584.27 178.022 1438.1 178.022C1393.08 177.974 1348.81 189.588 1309.61 211.733C1206.11 143.622 1071.01 102.403 923.216 102.403C682.809 102.403 475.873 211.509 384.102 367.967C379.002 367.667 373.871 367.503 368.697 367.503C222.514 367.503 103.97 487.707 103.97 635.983C103.868 688.358 119 739.631 147.523 783.557V783.557C147.523 916.967 273.44 1025.12 428.701 1025.12H1555.12C1677.07 1025.12 1775.93 940.194 1775.93 835.44C1801.58 793.099 1815.1 744.52 1815 695.016V695.016Z" fill="#FC164D"/>
<path d="M1501.34 530.527C1499.2 528.885 1496.69 527.787 1494.04 527.326C1491.24 526.683 1488.39 526.279 1485.54 525.83L1448.72 520.521C1445 519.831 1441.21 519.63 1437.44 519.923C1435.55 520.078 1433.71 520.607 1432.03 521.48C1430.34 522.353 1428.85 523.552 1427.63 525.008C1426.54 526.362 1425.93 528.051 1425.93 529.794C1426.13 531.548 1426.7 533.239 1427.6 534.759C1427.96 535.469 1428.26 536.204 1428.52 536.958C1428.87 538.649 1429.31 540.322 1429.83 541.968C1429.99 542.325 1430.21 542.657 1430.46 542.955C1430.47 543.04 1430.47 543.125 1430.46 543.21C1430.06 545.274 1431.36 547.427 1430.77 549.416C1430.26 551.121 1428.6 552.153 1427.56 553.574C1426.86 554.582 1426.47 555.773 1426.45 556.999C1426.42 558.225 1426.75 559.432 1427.41 560.469C1428.53 562.204 1430.56 563.386 1431.15 565.375C1431.91 567.992 1429.85 570.52 1428.01 572.539C1424.62 576.256 1421.49 580.198 1418.64 584.339C1417.84 585.358 1417.33 586.571 1417.15 587.854C1416.98 590.456 1419.48 592.745 1419.05 595.332C1418.7 597.366 1416.71 598.608 1414.99 599.819C1408.64 604.007 1403.54 610.737 1403.03 618.35C1401.4 606.238 1396.38 594.832 1388.55 585.446C1386.41 582.874 1384.07 580.286 1383.18 577.026C1382.85 575.725 1382.79 574.334 1382.34 573.077C1380.85 569.114 1376.09 567.409 1374.01 563.76C1372.52 561.187 1372.52 557.882 1370.66 555.623C1368.81 553.365 1365.89 552.856 1364.29 550.673C1363.49 549.194 1362.81 547.653 1362.26 546.066C1361.59 544.772 1360.64 543.639 1359.49 542.746C1359.27 542.569 1359.04 542.405 1358.8 542.252C1359.05 542.03 1359.25 541.758 1359.39 541.454C1359.52 541.15 1359.6 540.821 1359.6 540.488C1359.6 538.738 1357.86 537.586 1356.35 536.719C1354.41 535.612 1352.51 534.415 1350.65 533.174C1352.68 532.232 1354.43 530.797 1355.75 529.001C1357.41 526.322 1358.1 523.153 1357.7 520.027C1357.6 517.505 1356.65 515.088 1355.02 513.162C1354.08 512.16 1352.9 511.442 1351.91 510.5C1349.35 508.002 1348.48 504.308 1347.42 500.898C1346.02 496.411 1343.82 491.7 1339.72 489.322C1337.75 488.17 1335.44 487.632 1333.51 486.421C1331.58 485.209 1329.97 482.921 1330.64 480.722C1331.09 479.227 1332.48 478.195 1333.42 476.923C1334.55 475.279 1334.98 473.258 1334.62 471.298C1334.27 469.338 1333.15 467.598 1331.52 466.454C1330.42 465.751 1329.06 465.138 1328.83 463.851C1327.97 463.627 1327.18 463.162 1326.57 462.511C1325.95 461.86 1325.54 461.05 1325.36 460.172C1325.03 458.413 1325.03 456.607 1325.36 454.848C1325.75 452.066 1326.13 449.294 1326.51 446.532C1327.17 446.806 1327.88 446.947 1328.59 446.947C1329.31 446.947 1330.01 446.806 1330.67 446.532C1331.97 448.633 1333.47 450.597 1335.16 452.395C1339.71 457.773 1343.26 463.929 1345.63 470.567C1346.48 472.96 1347.35 475.637 1349.56 476.908C1350.32 477.342 1351.19 477.566 1351.94 478.03C1352.86 478.673 1353.65 479.485 1354.27 480.423C1356.07 482.801 1357.86 485.164 1359.64 487.542L1359.73 487.901C1359.78 488.112 1359.86 488.314 1359.97 488.499C1360.3 488.872 1360.76 489.107 1361.26 489.157C1366.76 490.429 1372.94 491.595 1377.71 488.589C1382.02 485.897 1383.9 480.573 1387.55 477.013C1390.14 474.485 1393.8 472.526 1394.53 468.967C1393.66 468.697 1392.8 468.383 1391.96 468.024C1392.71 467.276 1393.46 466.409 1394.47 465.422C1395.95 463.975 1397.28 462.387 1398.45 460.681C1399.72 458.575 1400.72 456.326 1401.44 453.98C1404.33 445.764 1407.22 437.543 1410.12 429.317C1411.49 425.429 1412.87 421.51 1414.61 417.726C1416.4 413.628 1418.52 409.695 1420.48 405.671C1425.54 395.208 1429.44 384.225 1432.12 372.917C1432.59 371.374 1432.75 369.751 1432.58 368.146C1432.16 365.559 1430.21 363.525 1428.34 361.685C1426.46 359.65 1424.31 357.874 1421.96 356.405C1420.78 355.672 1419.47 355.181 1418.1 354.96C1416.73 354.739 1415.33 354.793 1413.98 355.119C1410.15 356.241 1407.74 360.159 1406.86 364.093C1405.98 368.026 1406.3 372.08 1405.93 376.058C1405.39 381.816 1403.42 387.38 1402.94 393.153C1402.69 396.488 1402.94 399.868 1402.54 403.204C1401.8 407.569 1400.28 411.764 1398.05 415.587C1393.2 424.706 1386.63 432.801 1378.71 439.428C1377.8 440.191 1376.86 440.923 1375.96 441.746C1375.96 441.103 1376.06 440.445 1376.15 439.802C1375.5 439.971 1374.87 440.196 1374.25 440.475C1374.33 439.719 1374.25 438.957 1374.03 438.231C1372.83 434.657 1367.51 433.744 1366.55 430.11C1366.39 429.211 1366.31 428.301 1366.3 427.388C1365.98 424.202 1363.81 421.51 1363.07 418.414C1362.38 415.558 1362.9 412.432 1361.57 409.784C1360.44 408.129 1359.1 406.622 1357.59 405.298C1355.8 403.245 1354.5 400.803 1353.81 398.163C1353.61 397.431 1353.43 396.668 1353.23 395.935C1353.45 394.275 1353.27 392.585 1352.69 391.014C1351.33 387.634 1347.81 385.466 1346.54 382.041C1345.55 379.378 1345.99 376.058 1344.12 373.994C1343.12 373.008 1341.91 372.274 1340.57 371.855C1333.73 369.189 1326.54 367.493 1319.23 366.815C1315.13 366.441 1310.61 366.232 1307.68 363.345C1304.26 359.995 1304.09 353.968 1300.09 351.38C1296.56 349.092 1291.56 350.782 1288.82 353.997C1288.41 354.47 1288.03 354.97 1287.69 355.493C1287.19 353.489 1287.08 351.406 1287.37 349.361C1287.37 348.853 1287.48 348.329 1287.52 347.865C1294.28 345.659 1300.02 341.12 1303.73 335.063C1303.73 335.063 1303.73 335.063 1303.73 335.153L1303.91 335.616C1304.35 336.708 1305.04 337.755 1306.05 337.875C1306.73 337.866 1307.38 337.629 1307.91 337.202C1308.81 336.574 1309.64 335.852 1310.39 335.048C1310.77 334.629 1311.13 334.195 1311.47 333.747C1312.16 332.813 1312.75 331.81 1313.23 330.755C1313.97 329.168 1314.48 327.48 1314.73 325.745C1315 324.01 1315.03 322.23 1315.33 320.495C1315.61 319.152 1315.97 317.829 1316.42 316.532C1316.57 316.098 1316.72 315.664 1316.85 315.231C1316.99 314.797 1317.18 314.214 1317.33 313.735C1318.27 310.659 1318.77 307.468 1318.83 304.253C1318.83 303.714 1318.83 303.176 1318.83 302.638C1318.77 300.539 1318.3 298.473 1317.44 296.56C1316.57 294.647 1315.34 292.925 1313.8 291.495C1311.23 289.386 1307.82 288.504 1305.93 285.647C1304.71 283.733 1304.44 281.265 1303.72 279.022C1302.94 276.337 1301.43 273.923 1299.35 272.054C1297.28 270.185 1294.72 268.936 1291.96 268.447C1288.65 268.084 1285.32 268.999 1282.66 271.005V271.005L1282.45 271.17C1280.97 272.302 1279.71 273.702 1278.74 275.297C1276.77 274.753 1274.96 273.725 1273.48 272.306C1271.98 270.915 1270.83 269.165 1269.32 267.819C1267.91 266.526 1266.18 265.636 1264.3 265.242C1262.43 264.847 1260.48 264.962 1258.67 265.576C1256.8 266.324 1255.14 267.504 1253.82 269.02C1252.49 270.536 1251.55 272.344 1251.06 274.295C1250.24 277.376 1250.39 280.921 1248.67 283.493C1247.33 285.498 1245.15 286.485 1243.63 288.309C1242.68 289.465 1242.03 290.837 1241.74 292.303V292.303C1241.56 293.123 1241.47 293.961 1241.49 294.8V294.8C1241.49 295.174 1241.49 295.548 1241.58 295.907C1241.58 295.907 1241.58 296.027 1241.58 296.087C1241.63 296.497 1241.71 296.902 1241.83 297.298V297.298C1242.26 298.814 1243.02 300.215 1244.06 301.396C1245.05 302.527 1246.28 303.417 1247.66 303.999C1248.23 304.219 1248.81 304.404 1249.4 304.552L1251.18 304.956L1251.81 305.105C1249.66 309.138 1248.47 313.61 1248.32 318.177C1248.18 322.743 1249.08 327.282 1250.97 331.443C1250.97 331.862 1250.86 332.281 1250.82 332.7C1250.58 338.589 1250.84 344.488 1251.6 350.333C1251.81 352.651 1251.93 355.209 1250.51 357.049C1249.86 357.772 1249.13 358.419 1248.34 358.978C1249.14 357.931 1249.97 356.899 1250.8 355.867C1248.7 353.743 1245.36 353.474 1242.37 353.683C1236.58 354.116 1230.96 355.832 1225.92 358.709C1222.57 360.638 1219.13 363.196 1215.3 362.747C1213.04 362.493 1210.81 361.251 1208.61 361.85C1207.38 362.355 1206.22 363.041 1205.19 363.884C1204.37 364.47 1203.38 364.775 1202.38 364.751C1200.03 361.864 1196.39 359.905 1193.58 357.557C1190.38 354.708 1187.45 351.569 1184.83 348.179C1179.99 342.332 1175.16 336.469 1170.4 330.561C1166.39 325.595 1162.28 320.226 1161.58 313.87C1161.5 313.239 1161.47 312.605 1161.47 311.97C1161.57 308.95 1161.95 305.946 1162.61 302.996C1162.78 302.284 1162.78 301.54 1162.61 300.828C1162.16 299.332 1160.44 298.779 1158.96 298.45C1159.15 297.298 1159.29 296.117 1159.36 294.995C1160.2 282.132 1159.29 269.061 1162.01 256.467C1163.04 251.622 1164.73 246.716 1168.22 243.201C1173.67 237.682 1182.81 236.351 1187 229.815C1190.5 224.371 1189.11 216.669 1184.71 211.868C1180.32 207.067 1173.54 205.108 1167.09 205.347C1165.29 205.285 1163.5 205.764 1161.96 206.723C1160.53 207.997 1159.46 209.627 1158.85 211.449L1152.44 227.048C1150.58 231.11 1149.01 235.298 1147.74 239.582C1145.95 246.133 1145.54 253.042 1144.12 259.653C1144.12 264.738 1140.85 271.08 1139.05 275.761C1137.05 281.026 1134.88 286.23 1133.07 291.6C1132.62 292.946 1131.05 296.939 1130.08 300.574C1129.71 300.787 1129.37 301.043 1129.06 301.336C1128.28 302.337 1127.57 303.392 1126.94 304.492C1125.58 306.287 1123.36 307.244 1121.87 308.979C1120.37 310.714 1120.06 313.9 1122.14 314.767C1122.56 314.909 1122.99 315.004 1123.44 315.051C1123.71 315.074 1123.98 315.119 1124.24 315.186C1126.49 315.814 1127.37 318.641 1127.04 320.974C1126.71 323.307 1125.55 325.461 1125.35 327.794C1124.95 331.922 1127.37 335.766 1129.7 339.236C1132.12 342.997 1134.79 346.59 1137.69 349.989C1139.8 352.352 1142.18 354.476 1144.3 356.749C1152.39 365.065 1158.82 374.787 1166.09 383.82C1168.71 387.23 1171.68 390.349 1174.96 393.123C1177.1 394.799 1179.35 396.342 1181.68 397.745L1194.18 405.671C1195.6 406.711 1197.2 407.467 1198.91 407.9C1199.46 407.975 1200.03 407.975 1200.58 407.9C1200.66 408.274 1200.72 408.633 1200.81 409.007C1201.78 412.925 1203.92 416.485 1204.16 420.478C1204.39 424.472 1204.04 428.555 1204.32 432.593C1204.59 436.317 1205.41 440.071 1205.62 443.735C1206.04 450.795 1204.31 457.764 1202.63 464.674C1200.1 474.785 1198.58 485.104 1193.66 494.273C1192.28 496.8 1190.67 499.373 1190.67 502.259C1190.67 502.603 1190.67 502.962 1190.75 503.306L1188.51 504.577C1187.85 504.951 1187.2 505.325 1186.6 505.714C1183.76 507.569 1180.72 509.618 1179.55 512.818C1178.61 515.406 1179.04 518.367 1177.91 520.88C1177.85 520.993 1177.79 521.102 1177.73 521.209C1176.53 523.542 1174.15 525.277 1173.61 527.835C1173.21 529.794 1173.99 531.873 1173.61 533.817C1173.61 533.817 1173.61 533.817 1173.61 533.892C1173.27 534.868 1173 535.868 1172.81 536.883C1172.79 537.215 1172.82 537.547 1172.9 537.87C1173.18 539.003 1173.81 540.021 1174.69 540.787C1175.23 541.304 1175.82 541.77 1176.44 542.178C1177.08 542.596 1177.74 542.985 1178.42 543.344L1178.8 543.554C1179.37 543.853 1179.94 544.137 1180.52 544.406L1180.91 544.571C1181.59 544.87 1182.27 545.139 1182.96 545.378L1183.44 545.528C1183.98 545.707 1184.53 545.872 1185.09 546.006L1185.46 546.126L1185.8 546.201L1187.3 546.515L1187.85 546.62C1188.51 546.729 1189.18 546.819 1189.87 546.889H1190.47C1190.98 546.889 1191.47 546.964 1191.97 546.979H1192.67C1193.19 546.979 1193.7 546.979 1194.16 546.979H1194.7C1195.41 546.979 1196.11 546.874 1196.81 546.784H1197.04C1197.66 546.694 1198.29 546.59 1198.92 546.455L1199.4 546.35C1199.98 546.216 1200.57 546.081 1201.15 545.902L1201.46 545.812C1202.17 545.603 1202.87 545.378 1203.56 545.109C1205.94 544.131 1208.25 542.986 1210.47 541.684C1211.96 540.861 1213.46 540.024 1214.95 539.261C1216.06 538.702 1217.2 538.203 1218.36 537.765C1221.19 536.557 1224.27 536.044 1227.34 536.27C1228.85 536.476 1230.35 536.781 1231.82 537.182C1231.82 537.347 1231.82 537.511 1231.82 537.676C1233.04 544.855 1234.24 552.034 1235.43 559.213C1237.39 557.803 1239.46 556.558 1241.62 555.489C1241.22 556.573 1240.95 557.703 1240.83 558.854C1240.74 559.744 1240.74 560.641 1240.83 561.531C1240.96 562.952 1241.26 564.522 1240.41 565.644C1239.89 566.332 1238.91 566.721 1238.63 567.499C1238.42 568.294 1238.37 569.122 1238.48 569.936C1238.42 570.866 1238.03 571.743 1237.37 572.407C1236.72 573.071 1235.85 573.479 1234.92 573.556C1235.35 574.76 1235.36 576.073 1234.95 577.283C1234.54 578.493 1233.73 579.53 1232.66 580.226C1232.04 580.527 1231.45 580.91 1230.93 581.363C1230.42 582.024 1230.07 582.799 1229.93 583.621C1227.95 591.028 1223.88 597.71 1218.21 602.87C1216.09 604.541 1214.15 606.437 1212.43 608.524C1211.36 610.14 1210.48 611.871 1209.81 613.684C1205.82 623.435 1201.77 633.192 1197.66 642.953C1195.39 648.412 1193.18 653.961 1192.46 659.839C1190.67 675.962 1176.31 689.632 1179 705.635C1179.54 709.633 1181.16 713.41 1183.67 716.568C1186.66 720.172 1191.14 722.236 1195.63 723.912C1207.16 728.398 1219.32 730.851 1231.44 733.319L1250.46 737.223C1254.19 738.081 1257.98 738.681 1261.8 739.017C1266.39 739.331 1271.1 738.898 1275.57 740.064C1278.34 740.782 1280.99 742.113 1283.84 742.263C1286.3 742.398 1289.32 741.874 1290.77 743.878C1292.22 745.882 1291.1 748.53 1292.47 750.309C1294.69 753.136 1300.09 750.309 1302.49 752.972C1303.15 753.994 1303.66 755.108 1303.99 756.277C1304.35 757 1304.86 757.641 1305.48 758.161C1305.63 759.006 1305.69 759.863 1305.66 760.719C1305.35 764.192 1304.63 767.616 1303.51 770.919C1301.72 776.991 1299.93 783.069 1298.14 789.151C1297.46 791.299 1296.96 793.5 1296.65 795.732C1296.53 796.816 1296.53 797.908 1296.65 798.992C1296.96 802.297 1298.86 805.708 1302.01 806.784C1304.46 807.432 1307.07 807.11 1309.28 805.887C1311.42 804.77 1313.43 803.415 1315.27 801.849C1318.58 799.343 1321.49 796.347 1323.9 792.965C1331.37 781.777 1328.95 766.642 1334.2 754.273C1337.69 746.017 1344.48 739.316 1346.73 730.612C1347.26 728.956 1347.32 727.186 1346.91 725.497C1345.97 722.506 1342.79 720.801 1339.81 719.724H1339.67C1337.23 718.853 1334.73 718.139 1332.2 717.585C1331.57 717.45 1330.93 717.346 1330.28 717.241C1328.86 716.083 1327.73 714.608 1326.98 712.934C1326.86 712.044 1326.62 711.173 1326.27 710.346C1326.04 709.99 1325.72 709.695 1325.34 709.487C1324.97 709.279 1324.55 709.163 1324.12 709.15C1322.62 709 1320.62 709.538 1318.99 709.419C1315.65 709.18 1313.44 705.904 1310.45 704.394C1307.46 702.883 1304.21 703.257 1301.03 703.481C1299.89 703.637 1298.73 703.566 1297.62 703.272C1296.29 702.66 1295.07 701.825 1294.03 700.804C1292.19 699.372 1290.04 698.387 1287.75 697.927C1285.47 697.468 1283.1 697.547 1280.85 698.157C1279.42 698.735 1277.91 699.078 1276.36 699.174C1273.45 699.009 1271.38 696.407 1269.23 694.433C1263.34 689.033 1254.95 687.613 1247.8 684.068C1246.7 683.661 1245.79 682.876 1245.23 681.854C1244.4 679.82 1246.26 677.786 1247.93 676.395L1260.23 666.18C1273.69 654.993 1290.51 646.573 1296.77 630.165C1297.42 627.966 1298.43 625.889 1299.76 624.018C1300.24 623.448 1300.8 622.945 1301.42 622.523C1304.14 620.761 1307.43 620.118 1310.61 620.728C1314.49 621.596 1318.17 623.201 1321.44 625.454C1326.8 628.695 1332.01 632.185 1337.07 635.924C1342.09 639.509 1346.86 643.427 1351.36 647.649C1359.21 655.128 1365.74 663.997 1373.06 672.058C1380.37 680.119 1388.73 687.643 1398.89 691.501C1409.04 695.36 1421.32 695.195 1430.04 688.719C1440.11 681.241 1443.34 667.87 1445.88 655.606C1451.49 650.192 1453.18 641.951 1455.91 634.667C1457.63 630.046 1459.83 625.694 1461.69 621.087C1463.9 615.673 1465.64 610.079 1467.37 604.5C1469.34 598.898 1470.67 593.094 1471.35 587.196C1472.07 577.878 1469.57 567.962 1472.19 559.213C1475.64 558.45 1478.78 556.506 1482.18 555.369C1487.23 553.709 1492.65 553.978 1498 554.008H1498.35C1500.19 554.204 1502.05 553.766 1503.61 552.767C1505.41 551.271 1505.69 548.713 1505.78 546.395C1505.99 540.667 1505.63 534.236 1501.34 530.527ZM1284.64 275.402C1283.4 275.708 1282.12 275.799 1280.85 275.671L1284.64 275.402Z" fill="url(#paint0_linear)"/>
<path d="M1290.53 370.016C1288.72 371.554 1286.59 372.681 1284.31 373.321L1273.7 377.12C1267.94 379.184 1261.93 381.263 1255.86 380.515C1252.46 380.096 1237.91 377.957 1235.71 375.31C1232.36 371.212 1244.1 365.185 1248.11 361.73C1249.02 361.077 1249.86 360.335 1250.62 359.516C1252.12 357.692 1251.93 355.134 1251.72 352.831C1250.96 346.996 1250.7 341.107 1250.94 335.227C1251.05 333.826 1251.25 332.432 1251.54 331.054C1253.03 324.175 1259.43 326.687 1264.49 328.512C1270.57 330.489 1276.46 333.038 1282.06 336.125C1283.77 337.005 1285.25 338.263 1286.4 339.804C1288.61 343.154 1287.73 347.551 1287.37 351.769C1287.06 355.044 1287.07 358.185 1289.12 360.563C1290.15 361.472 1291.1 362.474 1291.95 363.554C1292.43 364.643 1292.55 365.856 1292.29 367.017C1292.04 368.178 1291.42 369.228 1290.53 370.016Z" fill="#BE6F72"/>
<path d="M1144.05 262.226C1145.54 255.6 1145.87 248.765 1147.66 242.199C1148.93 237.93 1150.5 233.757 1152.36 229.711L1158.96 214.321C1159.56 212.503 1160.63 210.878 1162.07 209.609C1163.61 208.657 1165.39 208.179 1167.2 208.233C1173.64 207.994 1180.42 209.998 1184.82 214.739C1189.21 219.481 1190.6 227.153 1187.1 232.582C1182.92 239.118 1173.78 240.434 1168.32 245.938C1164.83 249.453 1163.14 254.344 1162.11 259.175C1159.39 271.738 1160.3 284.765 1159.47 297.597C1159.2 301.591 1158.42 306.152 1154.98 308.216C1152.9 309.235 1150.59 309.684 1148.28 309.517L1138.47 309.682C1136.82 309.682 1130.85 310.714 1129.76 309.473C1127.85 307.304 1132.21 296.505 1133.01 294.097C1134.77 288.758 1136.94 283.553 1138.99 278.304C1140.77 273.622 1144.05 267.296 1144.05 262.226Z" fill="#BE6F72"/>
<path d="M1346.63 732.093C1344.37 740.737 1337.58 747.468 1334.1 755.708C1328.85 768.047 1331.21 783.138 1323.79 794.296C1321.38 797.685 1318.47 800.686 1315.16 803.195C1313.32 804.757 1311.32 806.106 1309.18 807.218C1306.96 808.441 1304.36 808.762 1301.91 808.115C1298.75 807.038 1296.85 803.628 1296.54 800.338C1296.43 799.259 1296.43 798.171 1296.54 797.093C1296.85 794.866 1297.35 792.67 1298.04 790.527C1299.83 784.474 1301.62 778.412 1303.41 772.34C1304.52 769.047 1305.25 765.633 1305.56 762.17C1305.75 758.401 1303.36 753.495 1304.38 749.98C1304.84 748.395 1306.58 746.989 1307.37 745.658C1308.49 743.742 1309.36 741.685 1309.94 739.541C1311.17 735.368 1312.01 730.911 1314.58 727.396C1316.26 725.312 1318.22 723.474 1320.41 721.937C1322.03 720.52 1323.92 719.455 1325.97 718.811C1327.96 718.461 1330.01 718.558 1331.96 719.096C1334.49 719.637 1336.99 720.347 1339.44 721.219H1339.57C1342.56 722.296 1345.73 723.956 1346.67 726.977C1347.13 728.654 1347.12 730.424 1346.63 732.093V732.093Z" fill="#3F3D56"/>
<path d="M1505.76 548.22C1505.67 550.538 1505.39 553.126 1503.59 554.576C1502.03 555.576 1500.17 556.014 1498.33 555.818H1497.93C1492.59 555.818 1487.16 555.519 1482.1 557.179C1478.26 558.45 1474.73 560.783 1470.72 561.247C1465.2 561.875 1460.01 558.854 1455.12 556.221C1450.52 553.741 1445.79 551.494 1440.96 549.491C1437.79 548.19 1431.31 547.352 1429.79 543.883C1429.26 542.241 1428.82 540.573 1428.47 538.887C1428.22 538.133 1427.91 537.399 1427.56 536.689C1426.66 535.173 1426.09 533.487 1425.88 531.738C1425.89 529.995 1426.49 528.306 1427.59 526.952C1428.81 525.508 1430.3 524.319 1431.98 523.454C1433.66 522.589 1435.5 522.065 1437.38 521.912C1441.15 521.619 1444.94 521.82 1448.66 522.51L1485.48 527.805C1488.32 528.208 1491.18 528.612 1493.98 529.3C1496.63 529.761 1499.14 530.859 1501.28 532.501C1505.63 536.15 1505.99 542.566 1505.76 548.22Z" fill="#3F3D56"/>
<path d="M1473.4 557.792C1468.91 567.259 1472.14 578.461 1471.33 588.931C1470.66 594.814 1469.32 600.604 1467.36 606.19C1465.62 611.754 1463.89 617.333 1461.67 622.732C1459.82 627.219 1457.62 631.706 1455.9 636.283C1453.16 643.581 1451.41 651.792 1445.86 657.221C1443.32 669.456 1440.09 682.826 1430.03 690.245C1421.28 696.706 1409.09 696.93 1398.87 693.027C1388.66 689.123 1380.36 681.645 1373.04 673.584C1365.73 665.522 1359.19 656.743 1351.34 649.235C1346.84 645.011 1342.06 641.098 1337.03 637.524C1331.96 633.845 1326.75 630.385 1321.4 627.144C1318.12 624.901 1314.44 623.302 1310.57 622.433C1307.39 621.823 1304.09 622.466 1301.37 624.228C1300.75 624.65 1300.19 625.153 1299.71 625.723C1298.38 627.587 1297.37 629.659 1296.72 631.855C1290.44 648.218 1273.58 656.623 1260.12 667.781L1247.83 677.966C1246.15 679.357 1244.3 681.391 1245.12 683.41C1245.69 684.431 1246.6 685.216 1247.69 685.623C1254.84 689.153 1263.23 690.574 1269.13 695.958C1271.28 697.932 1273.34 700.535 1276.26 700.684C1277.8 700.594 1279.31 700.256 1280.75 699.682C1283 699.073 1285.36 698.994 1287.64 699.451C1289.93 699.908 1292.08 700.888 1293.92 702.315C1294.97 703.336 1296.18 704.171 1297.51 704.782C1298.62 705.076 1299.78 705.148 1300.92 704.992C1304.11 704.767 1307.49 704.483 1310.34 705.904C1313.2 707.325 1315.55 710.675 1318.88 710.914C1320.52 711.034 1322.46 710.496 1324.01 710.645C1324.44 710.659 1324.86 710.774 1325.24 710.983C1325.61 711.191 1325.93 711.485 1326.17 711.842C1326.52 712.664 1326.75 713.529 1326.87 714.414C1327.48 716.523 1329.55 717.809 1330.89 719.544C1332.96 722.206 1333.26 725.826 1333.05 729.191C1332.37 739.713 1327.68 749.575 1319.95 756.741C1317.75 758.985 1314.95 760.544 1311.89 761.227C1310.35 761.548 1308.75 761.379 1307.32 760.743C1305.89 760.107 1304.69 759.036 1303.9 757.683C1303.56 756.518 1303.06 755.409 1302.4 754.392C1300 751.745 1294.6 754.557 1292.38 751.73C1291.01 749.965 1291.99 747.139 1290.68 745.314C1289.36 743.489 1286.19 743.818 1283.75 743.714C1280.9 743.564 1278.25 742.218 1275.48 741.515C1270.99 740.348 1266.3 740.782 1261.71 740.468C1257.89 740.132 1254.1 739.532 1250.37 738.673L1231.35 734.785C1219.23 732.317 1207.07 729.819 1195.54 725.407C1191.13 723.732 1186.69 721.668 1183.58 718.079C1181.07 714.924 1179.46 711.153 1178.91 707.16C1176.2 691.202 1190.56 677.562 1192.37 661.484C1193.01 655.621 1195.36 650.087 1197.57 644.643C1201.63 634.912 1205.68 625.175 1209.72 615.433C1210.37 613.62 1211.22 611.884 1212.26 610.259C1213.98 608.176 1215.92 606.286 1218.05 604.62C1223.72 599.477 1227.78 592.81 1229.76 585.416C1229.91 584.594 1230.25 583.819 1230.76 583.158C1231.29 582.714 1231.88 582.337 1232.5 582.036C1233.57 581.341 1234.37 580.306 1234.78 579.099C1235.19 577.892 1235.18 576.582 1234.76 575.38C1235.68 575.304 1236.55 574.896 1237.21 574.232C1237.86 573.568 1238.25 572.691 1238.32 571.761C1238.21 570.951 1238.26 570.128 1238.46 569.338C1238.82 568.56 1239.72 568.172 1240.24 567.484C1241.1 566.362 1240.8 564.791 1240.66 563.386C1240.57 562.495 1240.57 561.598 1240.66 560.708C1240.99 557.541 1242.41 554.586 1244.67 552.348C1248.25 548.833 1253.33 549.745 1258.27 548.908C1263.19 547.845 1268 546.307 1272.63 544.316C1285.6 539.203 1299.27 536.043 1313.17 534.939C1327.15 533.84 1341.18 536.075 1354.12 541.46C1356 542.222 1357.78 543.228 1359.4 544.451C1360.55 545.339 1361.5 546.466 1362.17 547.756C1362.72 549.34 1363.4 550.875 1364.2 552.348C1365.8 554.531 1368.82 555.234 1370.57 557.298C1372.32 559.362 1372.47 562.847 1373.92 565.405C1376 569.054 1380.82 570.744 1382.25 574.707C1382.7 575.964 1382.76 577.34 1383.09 578.641C1383.9 581.901 1386.32 584.474 1388.46 587.046C1396.3 596.424 1401.32 607.834 1402.94 619.95C1403.42 612.367 1408.52 605.652 1414.9 601.464C1416.62 600.343 1418.61 599.101 1418.96 597.067C1419.39 594.495 1416.89 592.206 1417.06 589.589C1417.24 588.311 1417.76 587.104 1418.55 586.089C1421.4 581.958 1424.53 578.025 1427.92 574.319C1429.76 572.299 1431.82 569.832 1431.06 567.169C1430.47 565.18 1428.44 564.014 1427.32 562.279C1426.66 561.244 1426.33 560.04 1426.36 558.816C1426.38 557.593 1426.77 556.404 1427.47 555.399C1428.51 553.978 1430.17 552.946 1430.68 551.256C1431.27 549.267 1429.97 547.113 1430.37 545.064C1430.92 543.423 1432 542.016 1433.45 541.071C1435.43 539.264 1437.69 537.78 1440.14 536.674C1444.08 535.178 1448.48 535.731 1452.67 536.315C1459.67 537.287 1467.52 538.782 1471.47 544.645C1474 548.31 1475.28 553.873 1473.4 557.792Z" fill="#65617D"/>
<path opacity="0.1" d="M1505.76 548.22C1505.67 550.538 1505.39 553.126 1503.59 554.576C1502.03 555.576 1500.18 556.014 1498.33 555.818H1497.93C1498.54 552.707 1502.32 550.927 1502.98 547.771C1503.09 546.802 1503.01 545.82 1502.72 544.886C1502.44 543.952 1501.97 543.086 1501.34 542.342C1498.14 538.02 1492.99 535.627 1487.88 533.877C1473.43 528.923 1457.94 527.764 1442.92 530.512C1438.83 531.177 1434.86 532.4 1431.1 534.146C1429.86 534.924 1428.66 535.773 1427.51 536.689C1426.61 535.173 1426.04 533.487 1425.84 531.738C1425.84 529.995 1426.44 528.306 1427.54 526.952C1428.76 525.508 1430.26 524.319 1431.94 523.454C1433.62 522.589 1435.45 522.065 1437.34 521.912C1441.11 521.619 1444.9 521.82 1448.62 522.51L1485.44 527.805C1488.28 528.208 1491.14 528.612 1493.93 529.3C1496.59 529.761 1499.09 530.859 1501.23 532.501C1505.63 536.15 1505.99 542.566 1505.76 548.22Z" fill="black"/>
<path opacity="0.1" d="M1346.63 732.093C1344.37 740.737 1337.58 747.468 1334.1 755.709C1328.85 768.047 1331.21 783.138 1323.79 794.296C1321.38 797.685 1318.47 800.686 1315.16 803.195C1313.32 804.756 1311.32 806.106 1309.18 807.218C1306.96 808.441 1304.36 808.762 1301.91 808.115C1298.75 807.038 1296.85 803.628 1296.54 800.338C1296.43 799.259 1296.43 798.171 1296.54 797.093L1296.63 797.332C1297.93 800.473 1300.05 803.763 1303.41 804.316C1304.66 804.407 1305.93 804.237 1307.11 803.818C1308.3 803.398 1309.39 802.738 1310.32 801.879C1315.25 797.915 1318.12 792.007 1320.86 786.309C1323 782.2 1324.7 777.873 1325.91 773.402C1326.51 770.859 1326.8 768.257 1327.41 765.714C1330.25 753.36 1339.93 743.28 1342.07 730.761C1342.24 729.9 1342.28 729.018 1342.19 728.144C1341.9 727.005 1341.47 725.909 1340.9 724.884C1340.38 723.726 1340 722.511 1339.76 721.264C1342.76 722.341 1345.93 724.001 1346.87 727.022C1347.25 728.702 1347.17 730.456 1346.63 732.093Z" fill="black"/>
<path opacity="0.1" d="M1324.04 710.645C1322.66 714.264 1320.33 717.445 1317.3 719.858C1313.04 723.102 1308.06 725.258 1302.78 726.14C1300.32 726.767 1297.74 726.736 1295.3 726.05C1291.98 724.899 1289.59 721.788 1286.19 720.89C1283.77 720.232 1281.16 720.815 1278.71 720.457C1274.3 719.843 1270.87 716.478 1267.32 713.786C1256.41 705.59 1242.1 702.943 1231.2 694.747C1230.71 694.449 1230.31 694.032 1230.03 693.535C1229.82 692.998 1229.74 692.418 1229.8 691.845C1229.85 686.874 1230.96 681.97 1233.08 677.472C1234.81 674.334 1236.88 671.391 1239.24 668.693C1249.01 656.728 1258.82 644.673 1270.52 634.578C1275.42 630.345 1280.78 626.396 1286.97 624.482C1290.41 623.42 1297.2 622.418 1301.39 624.213C1300.77 624.635 1300.21 625.138 1299.73 625.708C1298.39 627.572 1297.38 629.644 1296.73 631.84C1290.44 648.218 1273.58 656.623 1260.12 667.781L1247.83 677.966C1246.15 679.357 1244.3 681.391 1245.12 683.41C1245.69 684.431 1246.6 685.216 1247.69 685.623C1254.84 689.153 1263.23 690.574 1269.12 695.958C1271.28 697.932 1273.34 700.535 1276.26 700.684C1277.8 700.594 1279.31 700.256 1280.75 699.682C1283 699.073 1285.36 698.994 1287.64 699.451C1289.93 699.908 1292.08 700.888 1293.92 702.315C1294.97 703.336 1296.18 704.171 1297.51 704.782C1298.62 705.076 1299.78 705.148 1300.92 704.992C1304.11 704.767 1307.49 704.483 1310.34 705.904C1313.2 707.325 1315.55 710.675 1318.88 710.914C1320.54 711.034 1322.49 710.466 1324.04 710.645Z" fill="black"/>
<path d="M1186.49 507.658C1183.65 509.483 1180.63 511.547 1179.46 514.718C1178.51 517.305 1178.95 520.267 1177.8 522.779C1176.65 525.292 1174.06 527.042 1173.49 529.734C1173.09 531.693 1173.88 533.757 1173.49 535.716C1173.16 536.735 1172.88 537.774 1172.67 538.827C1172.52 541.056 1174.44 542.865 1176.31 544.107C1180.29 546.696 1184.82 548.315 1189.54 548.834C1194.26 549.354 1199.03 548.759 1203.48 547.098C1207.48 545.602 1211.08 543.165 1214.91 541.25C1218.64 539.1 1222.91 538.062 1227.22 538.259C1229.69 538.528 1232.05 539.426 1234.52 539.755C1235.74 539.995 1236.99 539.936 1238.18 539.582C1239.38 539.227 1240.46 538.589 1241.35 537.721C1242.11 536.668 1242.63 535.456 1242.85 534.176C1244.93 525.965 1243.98 517.26 1242.01 509.004C1240.04 500.749 1237.04 492.807 1234.94 484.596C1233.44 478.509 1232.29 472.272 1229.79 466.514C1227.29 460.755 1223.09 455.401 1217.21 453.202C1216.75 452.975 1216.22 452.907 1215.72 453.008C1215.34 453.166 1215.01 453.412 1214.74 453.726C1210.09 458.653 1206.59 464.547 1204.48 470.986C1202.14 478.15 1201.49 485.747 1199.34 492.941C1198.41 495.933 1197.22 499.941 1194.85 502.229C1192.49 504.518 1189.17 505.938 1186.49 507.658Z" fill="#3F3D56"/>
<path opacity="0.1" d="M1242.89 534.131C1242.64 535.415 1242.1 536.627 1241.32 537.676C1240.43 538.547 1239.35 539.186 1238.16 539.538C1236.96 539.89 1235.7 539.944 1234.49 539.695C1232.03 539.396 1229.67 538.483 1227.2 538.199C1222.9 538 1218.63 539.038 1214.89 541.19C1211.06 543.105 1207.42 545.483 1203.45 547.023C1197.65 549.222 1191.32 549.582 1185.31 548.055C1182.12 547.253 1179.08 545.918 1176.34 544.107C1174.45 542.88 1172.55 541.116 1172.7 538.827C1172.91 537.779 1173.19 536.745 1173.52 535.731C1173.91 533.772 1173.14 531.708 1173.52 529.749C1174.09 527.057 1176.69 525.262 1177.83 522.779C1178.97 520.296 1178.53 517.32 1179.48 514.733C1180.64 511.547 1183.68 509.498 1186.52 507.658C1189.36 505.819 1192.74 504.413 1195.02 502.184C1195.31 501.837 1195.58 501.467 1195.81 501.078C1197.45 498.549 1198.65 495.764 1199.37 492.837C1201.57 485.628 1202.17 478.045 1204.5 470.866C1206.61 464.432 1210.12 458.545 1214.77 453.621C1215.02 453.3 1215.35 453.052 1215.73 452.903C1216.24 452.801 1216.76 452.864 1217.23 453.083C1223.09 455.296 1227.29 460.651 1229.8 466.409C1232.32 472.167 1233.38 478.374 1234.95 484.476C1237.04 492.687 1240.05 500.659 1242.02 508.9C1244 517.141 1244.97 525.905 1242.89 534.131Z" fill="black"/>
<path opacity="0.1" d="M1287.37 351.724C1280.34 353.959 1272.73 353.515 1266 350.478C1259.28 347.441 1253.91 342.026 1250.94 335.272C1251.06 333.871 1251.25 332.477 1251.54 331.099C1253.03 324.219 1259.43 326.732 1264.49 328.557C1270.57 330.534 1276.46 333.082 1282.06 336.17C1283.77 337.05 1285.25 338.308 1286.4 339.849C1288.61 343.154 1287.73 347.551 1287.37 351.724Z" fill="black"/>
<path d="M1278.34 351.634C1294.86 351.634 1308.25 338.242 1308.25 321.722C1308.25 305.201 1294.86 291.809 1278.34 291.809C1261.82 291.809 1248.43 305.201 1248.43 321.722C1248.43 338.242 1261.82 351.634 1278.34 351.634Z" fill="#BE6F72"/>
<path opacity="0.1" d="M1359.51 545.259C1359.51 547.741 1356.14 548.534 1353.64 548.399C1344.67 547.876 1335.89 545.408 1327.01 546.156C1315.77 547.173 1305.45 553.38 1294.19 553.948C1289.86 554.172 1285.44 553.529 1281.17 554.322C1275.63 555.354 1270.7 558.719 1265.06 559.198C1260.17 559.617 1255.34 557.777 1250.45 557.971C1247.03 558.175 1243.69 559.125 1240.68 560.753C1241.01 557.586 1242.42 554.631 1244.69 552.393C1248.26 548.878 1253.35 549.79 1258.28 548.953C1263.21 547.89 1268.01 546.352 1272.64 544.361C1285.62 539.248 1299.28 536.087 1313.19 534.984C1327.15 533.873 1341.18 536.092 1354.12 541.46C1356.01 542.222 1357.78 543.228 1359.4 544.451C1359.48 544.712 1359.52 544.985 1359.51 545.259V545.259Z" fill="black"/>
<path d="M1264.5 376.342L1252.39 371.855L1247.27 369.971C1245.19 369.097 1243 368.514 1240.75 368.236C1234.89 367.787 1229.37 371.691 1226.24 376.671C1223.12 381.652 1221.94 387.589 1220.94 393.377C1219.56 401.294 1218.39 409.241 1217.44 417.218C1216.4 424.421 1215.88 431.688 1215.87 438.964C1216.21 457.48 1220.13 475.742 1224.44 493.764C1226.55 501.755 1228.14 509.873 1229.21 518.068C1229.57 521.448 1229.73 524.843 1230.09 528.238C1230.48 532.052 1231.11 535.821 1231.73 539.605L1235.34 561.097C1239.83 557.912 1244.93 555.115 1250.44 554.95C1255.34 554.771 1260.18 556.595 1265.06 556.177C1270.67 555.713 1275.63 552.348 1281.16 551.316C1285.44 550.523 1289.85 551.151 1294.21 550.942C1305.45 550.374 1315.79 544.152 1327.01 543.15C1335.9 542.342 1344.74 544.855 1353.66 545.378C1356.14 545.528 1359.51 544.735 1359.51 542.237C1359.51 540.502 1357.77 539.351 1356.26 538.483C1349.14 534.196 1342.36 529.36 1335.99 524.021C1330.1 519.354 1324.12 514.568 1320.07 508.257C1310.3 493.076 1313.65 472.541 1305.32 456.523C1298.54 443.511 1305.32 426.461 1305.32 411.789C1305.32 404.475 1305.32 397.072 1303.6 389.967C1302.52 385.994 1301.18 382.097 1299.59 378.301L1293.77 363.569C1293.65 363.139 1293.41 362.751 1293.08 362.448C1292.69 362.178 1292.23 362.037 1291.75 362.044C1288.26 361.834 1284.81 362.939 1282.09 365.14C1279.35 367.368 1277.61 370.569 1274.91 372.887C1271.97 375.445 1268.17 377.688 1264.5 376.342Z" fill="#E3E8F4"/>
<path d="M1284.05 367.847C1285.01 363.749 1286.04 359.486 1288.78 356.286C1291.51 353.085 1296.51 351.395 1300.04 353.683C1304.05 356.286 1304.21 362.298 1307.64 365.648C1310.63 368.52 1315.12 368.744 1319.18 369.118C1326.5 369.784 1333.68 371.476 1340.53 374.144C1341.86 374.557 1343.08 375.286 1344.07 376.267C1345.94 378.391 1345.57 381.652 1346.49 384.299C1347.77 387.709 1351.28 389.878 1352.64 393.273C1354.14 397.042 1352.64 401.259 1351.38 405.133C1349.13 412.088 1347.71 419.312 1345.51 426.296C1343.31 433.281 1340.18 440.161 1335.04 445.425C1332.76 447.758 1329.38 449.912 1326.39 448.521L1325.24 456.822C1324.91 458.576 1324.91 460.378 1325.24 462.131C1325.42 463.009 1325.83 463.82 1326.45 464.471C1327.06 465.121 1327.85 465.586 1328.71 465.811C1328.94 467.097 1330.3 467.71 1331.4 468.413C1332.22 468.972 1332.92 469.687 1333.46 470.518C1334 471.348 1334.36 472.277 1334.54 473.251C1334.72 474.225 1334.7 475.224 1334.49 476.191C1334.27 477.158 1333.87 478.072 1333.3 478.883C1332.36 480.154 1330.97 481.156 1330.52 482.666C1329.85 484.85 1331.45 487.153 1333.39 488.35C1335.34 489.546 1337.63 490.1 1339.6 491.251C1343.7 493.614 1345.9 498.266 1347.3 502.783C1348.35 506.193 1349.22 509.887 1351.79 512.37C1352.78 513.312 1353.96 514.03 1354.9 515.017C1356.53 516.944 1357.47 519.36 1357.58 521.882C1357.99 525.008 1357.3 528.179 1355.63 530.856C1352.64 535.133 1347.06 536.404 1342.17 538.334C1334.23 541.594 1327.69 547.427 1320.69 552.393C1317.84 554.689 1314.48 556.268 1310.9 556.999C1306.05 557.642 1301.28 555.504 1296.41 555.309C1293.49 555.336 1290.59 555.718 1287.76 556.446L1278.79 558.39C1279.27 551.435 1275.44 544.466 1273.3 537.84C1269.26 525.367 1268.51 512.026 1269.47 498.954C1270.43 485.882 1273.09 472.99 1275.72 460.157C1277.56 451.183 1277.38 441.806 1280.21 433.086C1282.86 424.696 1286.64 416.634 1288.03 407.9C1290.3 393.766 1280.85 381.786 1284.05 367.847Z" fill="#3F3D56"/>
<path d="M1352.09 395.501C1352.91 397.021 1353.49 398.661 1353.81 400.362C1354.5 402.997 1355.8 405.434 1357.59 407.481C1359.1 408.808 1360.43 410.315 1361.57 411.968C1362.95 414.57 1362.42 417.741 1363.07 420.583C1363.81 423.679 1365.98 426.371 1366.3 429.557C1366.31 430.469 1366.39 431.38 1366.55 432.279C1367.52 435.898 1372.85 436.766 1374.03 440.385C1374.82 442.733 1373.46 445.291 1373.72 447.758C1373.9 448.522 1373.95 449.312 1373.85 450.092C1373.51 450.973 1372.92 451.733 1372.14 452.275C1367.19 457.004 1363.77 463.102 1362.3 469.789C1360.86 476.44 1360.11 483.22 1360.04 490.025L1354.2 482.293C1353.58 481.354 1352.79 480.542 1351.86 479.9C1351.12 479.451 1350.25 479.226 1349.49 478.778C1347.27 477.521 1346.4 474.859 1345.55 472.466C1343.18 465.842 1339.64 459.701 1335.08 454.339C1332.7 451.542 1329.94 448.731 1329.41 445.096C1329.26 443.427 1329.35 441.744 1329.68 440.101C1331.18 430.304 1332.78 420.269 1337.55 411.579C1339.78 407.511 1342.67 403.832 1344.8 399.704C1346.24 396.967 1348.26 389.848 1352.09 395.501Z" fill="#3F3D56"/>
<path d="M1204.54 404.909C1204.57 406.168 1204.25 407.41 1203.62 408.498C1203.04 409.161 1202.3 409.651 1201.47 409.915C1200.63 410.179 1199.74 410.207 1198.89 409.994C1197.19 409.566 1195.58 408.815 1194.16 407.78C1190 405.148 1185.83 402.511 1181.66 399.868C1179.33 398.466 1177.09 396.928 1174.95 395.262C1171.66 392.493 1168.69 389.379 1166.08 385.974C1158.81 377 1152.38 367.264 1144.28 359.053C1142.09 356.809 1139.8 354.656 1137.67 352.307C1134.77 348.913 1132.1 345.325 1129.69 341.569C1127.35 338.114 1124.93 334.285 1125.34 330.157C1125.57 327.824 1126.7 325.67 1127.03 323.352C1127.35 321.034 1126.47 318.207 1124.23 317.579C1123.96 317.512 1123.69 317.467 1123.42 317.444C1122.98 317.397 1122.54 317.302 1122.12 317.16C1120.04 316.293 1120.35 313.077 1121.85 311.387C1123.35 309.697 1125.56 308.755 1126.92 306.9C1127.55 305.8 1128.26 304.745 1129.04 303.744C1130.05 302.886 1131.24 302.285 1132.53 301.994C1141.16 299.452 1150.28 299.108 1159.08 300.992C1160.57 301.321 1162.28 301.92 1162.73 303.37C1162.91 304.077 1162.91 304.817 1162.73 305.524C1162.07 308.473 1161.69 311.478 1161.59 314.498C1161.59 315.128 1161.62 315.757 1161.69 316.382C1162.4 322.724 1166.51 328.093 1170.52 333.044C1175.27 338.936 1180.11 344.784 1184.95 350.617C1187.57 353.997 1190.5 357.127 1193.7 359.965C1196.69 362.448 1200.57 364.452 1202.9 367.638C1204.8 370.21 1204.18 373.725 1204.39 376.821C1205.09 386.169 1205.14 395.554 1204.54 404.909V404.909Z" fill="#3F3D56"/>
<path d="M1394.49 467.306C1395.97 465.87 1397.3 464.292 1398.47 462.595C1399.72 460.492 1400.73 458.248 1401.46 455.91L1410.13 431.307C1411.51 427.418 1412.89 423.514 1414.62 419.73C1416.42 415.647 1418.54 411.714 1420.5 407.765C1425.54 397.374 1429.43 386.467 1432.12 375.235C1432.59 373.692 1432.75 372.07 1432.58 370.464C1432.16 367.877 1430.2 365.858 1428.34 364.018C1426.46 361.988 1424.31 360.217 1421.96 358.754C1420.78 358.02 1419.47 357.529 1418.1 357.308C1416.73 357.087 1415.33 357.141 1413.98 357.467C1410.15 358.589 1407.74 362.508 1406.86 366.441C1405.98 370.375 1406.3 374.398 1405.93 378.406C1405.39 384.149 1403.42 389.698 1402.94 395.456C1402.69 398.792 1402.94 402.157 1402.54 405.477C1401.8 409.837 1400.28 414.028 1398.05 417.846C1393.19 426.941 1386.62 435.015 1378.71 441.626C1376.54 443.227 1374.59 445.102 1372.91 447.205C1371.5 449.309 1370.55 451.682 1370.11 454.175C1369.12 457.97 1369.55 461.998 1371.32 465.497C1373.76 469.654 1378.44 471.479 1382.91 472.406C1388.96 473.663 1390.35 471.599 1394.49 467.306Z" fill="#BE6F72"/>
<path d="M1278.52 278.378C1279.81 275.959 1281.78 273.972 1284.19 272.666C1286.6 271.36 1289.34 270.793 1292.07 271.035C1294.82 271.522 1297.38 272.769 1299.45 274.635C1301.53 276.501 1303.05 278.912 1303.82 281.594C1304.53 283.822 1304.81 286.29 1306.04 288.205C1307.89 291.091 1311.33 291.929 1313.9 294.023C1315.44 295.45 1316.68 297.169 1317.54 299.08C1318.4 300.99 1318.88 303.054 1318.93 305.15C1319.07 309.431 1318.4 313.7 1316.94 317.728C1316.32 319.447 1315.82 321.206 1315.45 322.993C1315.15 324.728 1315.12 326.493 1314.85 328.228C1314.52 330.477 1313.74 332.638 1312.56 334.582C1311.38 336.527 1309.82 338.216 1307.98 339.55C1307.46 339.977 1306.8 340.215 1306.13 340.223C1304.96 340.088 1304.24 338.727 1303.81 337.501C1301.43 330.636 1302 322.245 1297.62 316.771C1295.62 314.563 1293.21 312.769 1290.53 311.492C1289.43 310.785 1288.2 310.321 1286.91 310.131C1285.01 310.233 1283.19 310.899 1281.67 312.045C1278.52 314.162 1275.01 315.711 1271.32 316.622C1269.48 317.058 1267.57 317.078 1265.72 316.679C1263.87 316.281 1262.13 315.474 1260.63 314.318C1258.57 312.613 1257.06 310.056 1254.77 308.725C1252.48 307.394 1250.09 307.468 1247.83 306.556C1246.39 305.944 1245.11 305.011 1244.08 303.829C1243.06 302.647 1242.32 301.247 1241.92 299.735C1241.52 298.223 1241.47 296.64 1241.77 295.106C1242.07 293.572 1242.72 292.127 1243.67 290.882C1245.17 289.087 1247.38 288.07 1248.71 286.081C1250.43 283.508 1250.28 279.979 1251.1 276.898C1251.59 274.948 1252.53 273.143 1253.86 271.632C1255.18 270.121 1256.85 268.947 1258.72 268.208C1260.53 267.593 1262.47 267.475 1264.35 267.867C1266.22 268.259 1267.95 269.146 1269.36 270.437C1270.86 271.783 1272.06 273.518 1273.52 274.924C1274.97 276.309 1276.74 277.308 1278.67 277.831C1280.61 278.354 1282.64 278.382 1284.59 277.915" fill="#3F3D56"/>
<path opacity="0.1" d="M1303.11 498.52C1302.24 499.296 1301.62 500.315 1301.34 501.446C1301.05 502.578 1301.12 503.768 1301.52 504.862C1301.85 505.565 1317.28 502.588 1318.91 502.364C1322.98 501.781 1330.12 502.065 1332.85 498.341C1337.73 491.745 1322.62 493.211 1319.86 493.45C1314.59 493.899 1307.11 494.617 1303.11 498.52Z" fill="black"/>
<path d="M1162.7 305.584C1162.04 308.533 1161.66 311.537 1161.56 314.558C1157.07 315.47 1152.41 313.974 1148.1 312.479L1135.73 308.261C1134.98 307.78 1134.07 307.604 1133.19 307.768C1132.31 307.932 1131.53 308.424 1131 309.144C1129.01 311.207 1126.28 315.126 1123.53 317.444C1123.08 317.397 1122.65 317.302 1122.22 317.16C1120.15 316.293 1120.46 313.077 1121.95 311.387C1123.45 309.697 1125.66 308.755 1127.03 306.9C1127.66 305.8 1128.37 304.745 1129.15 303.744C1130.15 302.886 1131.35 302.285 1132.63 301.994C1141.26 299.452 1150.39 299.108 1159.18 300.992C1160.68 301.321 1162.38 301.92 1162.83 303.37C1162.98 304.108 1162.93 304.87 1162.7 305.584Z" fill="#3F3D56"/>
<path opacity="0.1" d="M1162.7 305.584C1162.04 308.533 1161.66 311.537 1161.56 314.558C1157.07 315.47 1152.41 313.974 1148.1 312.479L1135.73 308.261C1134.98 307.78 1134.07 307.604 1133.19 307.768C1132.31 307.932 1131.53 308.424 1131 309.144C1129.01 311.207 1126.28 315.126 1123.53 317.444C1123.08 317.397 1122.65 317.302 1122.22 317.16C1120.15 316.293 1120.46 313.077 1121.95 311.387C1123.45 309.697 1125.66 308.755 1127.03 306.9C1127.66 305.8 1128.37 304.745 1129.15 303.744C1130.15 302.886 1131.35 302.285 1132.63 301.994C1141.26 299.452 1150.39 299.108 1159.18 300.992C1160.68 301.321 1162.38 301.92 1162.83 303.37C1162.98 304.108 1162.93 304.87 1162.7 305.584Z" fill="black"/>
<path opacity="0.1" d="M1275.84 589.529C1277.99 590.247 1280.33 591.294 1281.06 593.448L1263.74 589.051L1254.77 586.762C1253.18 586.358 1247.5 585.895 1246.45 584.653C1244.96 582.829 1250.27 584.085 1251.22 584.22C1254.12 584.653 1257.03 585.102 1259.91 585.626C1265.36 586.598 1270.59 588.198 1275.84 589.529Z" fill="black"/>
<path opacity="0.1" d="M1282.56 604.859C1281.06 603.857 1276.77 603.977 1274.93 603.543C1272.24 602.9 1269.59 602.048 1266.94 601.225C1261.57 599.475 1256.25 597.486 1250.73 596.2C1249.71 595.975 1246.24 595.915 1246.41 594.629C1246.57 593.343 1249.88 592.894 1250.7 592.834C1255.59 592.476 1261.69 594.764 1266.24 596.394C1272.03 598.47 1277.52 601.317 1282.56 604.859V604.859Z" fill="black"/>
<path opacity="0.1" d="M1271.58 575.859C1266.09 574.363 1261.11 570.953 1255.46 570.295C1253.98 570.351 1252.53 569.909 1251.34 569.039C1250.68 568.386 1250.22 567.555 1250.01 566.646C1253.8 566.452 1258.19 568.052 1261.63 569.563C1263.53 570.375 1265.35 571.345 1267.08 572.464C1268.33 573.227 1270.22 575.425 1271.58 575.859Z" fill="black"/>
<path d="M1376.21 441.94C1375.28 448.159 1376.63 454.503 1379.99 459.812C1383.36 465.121 1388.53 469.04 1394.55 470.851C1393.82 474.396 1390.15 476.355 1387.56 478.882C1383.91 482.427 1382.03 487.737 1377.72 490.429C1372.92 493.42 1366.75 492.253 1361.27 490.997C1360.77 490.941 1360.31 490.701 1359.98 490.324C1359.87 490.145 1359.79 489.948 1359.75 489.741C1357.94 483.115 1356.75 476.041 1358.61 469.4C1360.1 463.747 1363.69 458.931 1366.57 453.935C1369.44 448.94 1369.71 443.586 1376.21 441.94Z" fill="#3F3D56"/>
<path d="M1242.49 356.181C1236.7 356.602 1231.08 358.314 1226.04 361.191C1222.69 363.106 1219.25 365.678 1215.42 365.215C1213.16 364.96 1210.93 363.719 1208.73 364.317C1207.49 364.817 1206.34 365.503 1205.31 366.351C1204.78 366.768 1204.16 367.042 1203.5 367.147C1202.84 367.252 1202.16 367.184 1201.54 366.95L1200.04 387.649C1199.47 395.516 1198.92 403.548 1200.81 411.22C1201.78 415.139 1203.92 418.698 1204.16 422.677C1204.39 426.655 1204.04 430.738 1204.32 434.761C1204.59 438.486 1205.41 442.15 1205.62 445.874C1206.04 452.903 1204.3 459.873 1202.63 466.708C1200.1 476.789 1198.58 487.093 1193.66 496.217C1192.28 498.744 1190.66 501.317 1190.66 504.188C1190.66 504.547 1190.66 504.891 1190.75 505.235C1189.26 506.058 1187.87 506.836 1186.6 507.643C1183.75 509.483 1180.72 511.532 1179.55 514.718C1178.61 517.305 1179.04 520.267 1177.91 522.764C1176.77 525.262 1174.17 527.042 1173.6 529.734C1173.2 531.693 1173.97 533.757 1173.6 535.716C1173.26 536.73 1172.99 537.764 1172.78 538.812C1172.63 541.056 1174.53 542.865 1176.41 544.092C1179.16 545.903 1182.19 547.238 1185.39 548.04L1194.31 512.594C1202.45 497.542 1209.23 481.79 1214.55 465.527C1216.07 460.21 1218.03 455.028 1220.4 450.032C1222.09 447.205 1223.59 444.267 1224.88 441.237C1226.25 437.468 1226.38 433.385 1227.04 429.407C1227.82 424.764 1229 420.195 1230.55 415.752C1232.17 410.951 1234.04 406.165 1234.37 401.125C1234.86 393.916 1232.24 386.303 1235.03 379.632C1236.21 377.136 1237.74 374.823 1239.59 372.768C1243.45 368.041 1246.96 363.091 1250.82 358.365C1248.82 356.226 1245.48 356.002 1242.49 356.181Z" fill="#3F3D56"/>
<g opacity="0.1">
<path opacity="0.1" d="M1284.64 273.458L1282.77 273.592L1282.56 273.742C1283.26 273.713 1283.95 273.618 1284.64 273.458V273.458Z" fill="black"/>
<path opacity="0.1" d="M1318.86 304.507C1318.54 307.481 1317.9 310.41 1316.94 313.242C1316.32 314.96 1315.82 316.719 1315.45 318.506C1315.15 320.241 1315.12 322.006 1314.85 323.741C1314.52 325.99 1313.74 328.151 1312.56 330.095C1311.38 332.04 1309.82 333.729 1307.98 335.063C1307.46 335.49 1306.8 335.728 1306.13 335.736C1304.96 335.601 1304.24 334.24 1303.81 333.014C1301.43 326.149 1302 317.758 1297.62 312.284C1295.62 310.076 1293.21 308.282 1290.53 307.005C1289.43 306.298 1288.2 305.834 1286.91 305.644C1285.01 305.746 1283.19 306.412 1281.67 307.558C1278.52 309.676 1275.01 311.224 1271.32 312.135C1269.48 312.571 1267.57 312.591 1265.72 312.192C1263.87 311.794 1262.13 310.987 1260.63 309.832C1258.57 308.127 1257.06 305.569 1254.77 304.238C1252.48 302.907 1250.09 302.982 1247.83 302.069C1246.42 301.467 1245.16 300.554 1244.15 299.399C1243.14 298.245 1242.4 296.877 1241.99 295.399C1241.94 295.212 1241.9 295.022 1241.87 294.83C1241.5 296.5 1241.54 298.236 1241.99 299.886C1242.4 301.364 1243.14 302.731 1244.15 303.886C1245.16 305.041 1246.42 305.954 1247.83 306.556C1250.09 307.468 1252.63 307.483 1254.77 308.725C1256.91 309.966 1258.57 312.613 1260.63 314.318C1262.13 315.474 1263.87 316.281 1265.72 316.679C1267.57 317.078 1269.48 317.058 1271.32 316.622C1275.01 315.711 1278.52 314.162 1281.67 312.045C1283.19 310.899 1285.01 310.233 1286.91 310.131C1288.2 310.321 1289.43 310.785 1290.53 311.492C1293.18 312.794 1295.55 314.603 1297.51 316.816C1301.89 322.29 1301.33 330.681 1303.7 337.546C1304.14 338.787 1304.86 340.133 1306.02 340.268C1306.74 340.271 1307.44 340.016 1307.98 339.55C1309.83 338.212 1311.39 336.517 1312.57 334.564C1313.76 332.611 1314.53 330.442 1314.86 328.183C1315.13 326.448 1315.16 324.683 1315.46 322.948C1315.84 321.161 1316.34 319.402 1316.96 317.684C1318.41 313.656 1319.09 309.386 1318.94 305.105C1318.92 304.926 1318.89 304.716 1318.86 304.507Z" fill="black"/>
</g>
<path d="M1224.23 424.516L1223.21 438.171C1223.06 440.026 1219.52 484.177 1193.37 535.776C1170.94 580.032 1127.28 637.674 1044.86 670.069C1038.42 672.611 1031.75 674.984 1024.83 677.188L1017.11 652.959C1036.49 646.861 1055.15 638.698 1072.78 628.61C1114.79 604.351 1147.46 569.727 1170.23 525.172C1182.32 501.45 1190.93 476.115 1195.81 449.942H1102.03V424.516H1224.23Z" fill="#FC164D"/>
<path opacity="0.1" d="M1034.76 670.084C1117.17 637.688 1160.84 580.062 1183.26 535.806C1209.4 484.207 1212.96 440.086 1213.1 438.201L1214.12 424.546H1224.59L1223.57 438.201C1223.43 440.056 1219.87 484.207 1193.73 535.806C1171.3 580.062 1127.64 637.688 1045.23 670.084C1038.8 672.626 1032.12 675.004 1025.19 677.218L1024.17 674.032C1027.78 672.746 1031.31 671.43 1034.76 670.084Z" fill="white"/>
<path d="M869.762 652.959L862.045 677.188C855.115 674.975 848.434 672.596 842.003 670.054C759.594 637.659 715.922 580.032 693.502 535.776C667.359 484.177 663.799 440.056 663.665 438.171L662.647 424.516H784.78V449.942H690.99C695.892 476.118 704.531 501.453 716.64 525.172C739.418 569.727 772.068 604.351 814.08 628.595C831.711 638.694 850.38 646.862 869.762 652.959V652.959Z" fill="#FC164D"/>
<path opacity="0.1" d="M852.084 670.084C769.675 637.688 726.002 580.062 703.583 535.806C677.439 484.207 673.88 440.086 673.745 438.201L672.728 424.546H662.259L663.276 438.201C663.41 440.056 666.97 484.207 693.114 535.806C715.548 580.062 759.205 637.688 841.615 670.084C848.046 672.626 854.726 675.004 861.656 677.218L862.673 674.032C859.073 672.746 855.544 671.43 852.084 670.084Z" fill="white"/>
<path d="M1084.52 887.174V1024.28H802.339V887.174L811.313 875.209C902.755 842.754 921.286 758.116 924.98 724.629C925.53 720.002 925.845 715.349 925.923 710.69H960.816C960.894 715.349 961.208 720.002 961.758 724.629C965.512 758.116 984.043 842.784 1075.43 875.209L1084.52 887.174Z" fill="#FC164D"/>
<path opacity="0.1" d="M1084.52 887.174H802.339V904.374H1084.52V887.174Z" fill="black"/>
<path opacity="0.1" d="M826.269 875.209C917.712 842.754 936.243 758.116 939.937 724.629C940.487 720.002 940.801 715.349 940.879 710.69H925.923C925.845 715.349 925.53 720.002 924.981 724.629C921.226 758.116 902.696 842.784 811.313 875.209L802.339 887.174V1024.28H817.295V887.174L826.269 875.209Z" fill="white"/>
<path opacity="0.1" d="M759.475 424.516H784.781V449.942H761.718C760.811 441.567 760.063 433.091 759.475 424.516Z" fill="black"/>
<path opacity="0.1" d="M869.763 652.959L862.045 677.188C855.115 674.975 848.435 672.596 842.004 670.054C831.424 657.135 822.076 643.255 814.08 628.595C831.711 638.694 850.38 646.862 869.763 652.959Z" fill="black"/>
<path opacity="0.1" d="M1017.1 652.959C1036.47 646.861 1055.13 638.698 1072.76 628.61C1064.76 643.271 1055.42 657.156 1044.84 670.084C1038.41 672.626 1031.73 674.999 1024.81 677.203L1017.1 652.959Z" fill="black"/>
<path opacity="0.1" d="M1127.37 424.516C1126.78 433.091 1126.03 441.567 1125.13 449.942H1102.08V424.516H1127.37Z" fill="black"/>
<path opacity="0.1" d="M961.819 724.629C949.672 726.983 937.187 726.983 925.041 724.629C925.591 720.002 925.905 715.349 925.983 710.69H960.876C960.954 715.349 961.269 720.002 961.819 724.629V724.629Z" fill="black"/>
<path d="M762.466 382.399C763.109 570.938 843.873 723.403 943.437 723.403C1043 723.403 1123.75 570.938 1124.41 382.399H762.466Z" fill="#FC164D"/>
<path opacity="0.1" d="M794.622 382.399H762.466C763.109 570.938 843.873 723.403 943.437 723.403C948.825 723.393 954.202 722.938 959.515 722.042C867.474 706.667 795.235 560.678 794.622 382.399Z" fill="white"/>
<path d="M1039.4 939.656H847.463V989.012H1039.4V939.656Z" fill="#3F3D56"/>
<path opacity="0.1" d="M856.437 946.386H1039.4V939.656H847.463V989.012H856.437V946.386Z" fill="white"/>
<path d="M660.105 564.432C656.65 563.281 636.31 547.188 634.769 539.904C633.229 532.62 645.523 464.764 645.523 464.764C645.523 464.764 644.386 464.764 642.531 464.539V463.448L645.059 374.308C645.059 374.308 655.424 314.483 635.846 317.968C616.268 321.453 628.547 374.308 628.547 374.308C628.547 374.308 626.319 401.14 624.748 409.186C623.253 416.948 616.403 448.566 621.069 458.392C621.24 458.741 621.43 459.081 621.637 459.409V459.409C621.637 459.409 622.415 493.136 613.965 497.742C605.903 502.124 602.553 524.185 602.269 526.159L601.835 525.98C599.428 524.474 597.315 522.543 595.599 520.281C595.419 520.057 595.284 519.818 595.12 519.579C600.623 513.388 603.588 505.35 603.425 497.069C603.261 488.787 599.98 480.873 594.238 474.904C591.567 472.13 588.434 469.843 584.98 468.144C584.879 465.286 584.203 462.478 582.99 459.888C579.102 451.572 557.565 440.699 542.264 440.445C535.205 440.235 529.417 442.24 527.308 447.758C526.231 450.555 526.56 453.741 526.112 456.642C525.214 462.625 521.37 467.306 516.435 471.03C514.442 468.806 512.287 466.731 509.989 464.824C504.993 460.995 495.032 448.372 495.032 448.372C495.032 448.372 463.938 416.171 461.635 407.346C459.332 398.522 428.268 345.532 421.358 354.76C414.448 363.988 445.153 404.206 445.153 404.206C445.153 404.206 450.986 418.818 455.473 423.754C459.96 428.689 494.359 478.643 494.359 478.643L496.005 482.053C488.736 485.882 482.095 490.758 479.747 498.356C476.307 509.543 483.83 520.79 489.035 531.259C499.175 551.69 500.626 577.744 487.539 596.409C475.814 612.891 455.473 620.728 436.434 627.578C445.629 634.798 457.052 638.59 468.739 638.302C464.342 651.044 448.758 655.262 435.476 657.625C442.446 664.325 452.422 666.763 461.994 668.244C466.682 669.042 471.432 669.417 476.188 669.366H477.354L478.521 669.276C480.142 669.168 481.755 668.964 483.352 668.663C490.261 667.257 496.977 663.488 500.506 657.386C503.498 652.166 504.545 645.047 509.974 642.43C511.388 641.791 512.911 641.431 514.461 641.368H514.296C515.313 641.368 516.36 641.368 517.377 641.368L540.006 641.592C540.948 641.592 541.92 641.592 542.893 641.592C549.279 641.442 556.099 640.336 559.345 635.056C560.68 632.492 561.382 629.646 561.394 626.755C561.872 619.591 561.394 612.218 561.588 604.994C563.517 618.14 565.536 638.631 560.735 646.199C556.835 651.933 552.108 657.059 546.706 661.409C545.348 662.55 544.105 663.822 542.997 665.208C542.264 665.731 541.831 666.016 541.831 666.016L541.367 667.407C539.662 669.992 538.427 672.857 537.718 675.872C537.457 676.646 537.36 677.466 537.434 678.28C537.957 679.342 533.694 683.724 534.936 685.563C524.287 698.052 522.268 716.972 522.268 716.972L502.825 746.495C492.834 772.744 477.878 775.436 477.878 775.436C477.878 775.436 442.745 751.865 441.788 750.713C440.831 749.561 427.4 743.803 427.4 743.803C425.817 741.026 423.399 738.818 420.49 737.492C415.884 735.577 415.495 728.518 415.495 728.518C414.927 711.842 405.13 710.57 405.13 710.57C397.233 709.897 391.206 711.303 386.569 713.876L385.164 713.98C378.373 714.534 370.207 715.147 361.233 715.745C336.271 717.39 330.334 733.558 330.334 733.558C330.334 733.558 327.268 737.013 331.291 740.752C335.314 744.491 361.069 740.752 362.161 740.662C360.198 740.875 358.213 740.738 356.298 740.259C360.351 740.109 365.93 739.959 370.686 739.959H371.837C371.538 742.481 371.393 745.018 371.404 747.557C371.404 752.343 384.64 755.409 384.64 755.409L424.947 791.304C424.947 791.304 450.283 802.626 466.406 818.914C482.529 835.201 496.782 821.142 496.782 821.142C513.847 816.925 562.949 757.563 562.994 757.503C562.994 759.238 564.026 816.969 565.985 828.561C566.063 829.149 566.208 829.726 566.419 830.281C568.722 835.261 565.641 848.871 564.31 854.614C563.461 859.421 563.135 864.305 563.338 869.182C563.338 869.182 544.927 939.476 546.452 945.653C547.978 951.83 536.476 980.531 536.476 980.531V1004.46L538.48 1004.36C538.22 1004.74 537.98 1005.14 537.763 1005.55L537.628 1005.81C537.628 1005.81 549.907 1008.48 558.163 1007.72C566.419 1006.96 580.597 1014.08 580.597 1014.08C580.597 1014.08 585.398 1016.35 600.175 1017.31C614.952 1018.27 614.952 1010.79 614.952 1010.79C613.262 1000.6 589.915 997.193 589.197 997.088C587.313 995.907 585.548 994.62 584.097 993.514L583.798 993.274C583.896 993.05 583.981 992.82 584.052 992.586C586.55 982.416 572.73 978.004 572.73 978.004V975.521C581.704 970.915 583.484 939.297 583.484 939.297C583.484 939.297 596.945 900.201 598.829 893.68C600.714 887.159 598.829 877.393 598.829 877.393L600.175 868.957C600.175 868.957 603.062 863.214 603.062 862.063C603.435 859.144 604.559 856.372 606.322 854.016C608.431 851.518 604.019 845.581 604.019 845.581L607.863 835.62V824.687L616.837 785.023C616.837 785.023 626.244 738.823 622.984 723.702C619.723 708.581 626.827 700.894 626.827 700.894C626.187 701.23 625.528 701.53 624.853 701.791C625.751 699.715 626.525 697.587 627.171 695.42L647.362 697.917V698.216H654.646C654.646 698.216 652.343 669.8 652.343 658.343C652.343 646.887 660.105 605.772 660.105 605.772C660.105 605.772 663.56 565.584 660.105 564.432ZM570.472 531.259C570.472 532.381 570.367 533.548 570.292 534.744L569.889 535.357L569.141 534.729L568.229 536.15L567.959 536.285C565.985 535.268 564.968 529.45 563.547 530.706L563.353 530.871C563.039 530.512 562.725 530.407 562.396 530.706L562.096 530.96C562.096 530.527 562.096 530.078 562.096 529.629C564.833 530.333 567.647 530.69 570.472 530.691C570.487 530.885 570.472 531.08 570.472 531.259ZM637.626 663.593H638.059L637.342 665.477C637.431 664.849 637.521 664.236 637.626 663.593V663.593ZM563.906 1002.76L561.154 1002.07L562.65 1001.81L564.041 1002.73L564.205 1002.85L563.906 1002.76ZM592.024 998.733C591.112 998.255 590.184 997.701 589.287 997.133C589.586 997.297 590.768 997.911 592.024 998.733V998.733Z" fill="url(#paint1_linear)"/>
<path d="M647.557 635.34L629.445 682.542H633.842L616.807 696.123L647.557 699.951V635.34Z" fill="#F86D70"/>
<path opacity="0.1" d="M647.557 635.34L629.445 682.542L624.883 681.316L616.807 696.123L647.557 699.951V635.34Z" fill="black"/>
<path d="M619.154 665.537H647.556L657.981 579.763H619.154V665.537Z" fill="#F86D70"/>
<path opacity="0.1" d="M619.154 665.537H647.556L657.981 579.763H619.154V665.537Z" fill="black"/>
<path d="M563.682 600.073L569.814 599.041L583.902 596.648C583.902 596.648 626.214 587.106 634.948 586.328C640.239 585.63 645.399 584.158 650.263 581.961C652.552 580.974 654.002 580.226 654.002 580.226L638.762 552.393L615.116 534.864C615.116 534.864 600.16 531.678 593.833 522.974C592.422 521.101 591.502 518.903 591.16 516.583C590.818 514.263 591.063 511.893 591.874 509.692C595.733 497.727 568.827 521.134 568.827 521.134C568.827 521.134 569.081 526.743 568.827 533.892C568.827 535.298 568.692 536.763 568.587 538.259C568.587 539.246 568.453 540.233 568.348 541.25C567.69 548.354 566.344 555.668 563.682 560.035C557.176 570.714 563.682 600.073 563.682 600.073Z" fill="#FBBEBE"/>
<path opacity="0.1" d="M568.827 534.49H569.425C570.502 534.49 571.37 532.202 572.417 532.097C580.837 531.289 588.524 529.524 593.864 523.557C592.456 521.685 591.539 519.49 591.196 517.173C590.854 514.856 591.098 512.49 591.905 510.291C595.763 498.326 568.857 521.717 568.857 521.717C568.857 521.717 569.141 527.341 568.827 534.49Z" fill="black"/>
<path d="M536.072 500.569C536.07 504.875 536.917 509.139 538.564 513.117C540.211 517.096 542.625 520.711 545.67 523.755C548.715 526.8 552.33 529.215 556.308 530.862C560.287 532.509 564.551 533.355 568.856 533.353C569.933 533.353 570.995 533.353 572.057 533.204C578.374 532.584 584.375 530.144 589.333 526.18C594.29 522.215 597.989 516.897 599.982 510.871C601.976 504.844 602.176 498.369 600.561 492.231C598.945 486.093 595.582 480.555 590.88 476.291C586.179 472.027 580.34 469.22 574.074 468.21C567.807 467.2 561.382 468.03 555.579 470.601C549.775 473.172 544.843 477.372 541.38 482.692C537.918 488.011 536.074 494.222 536.072 500.569Z" fill="#FBBEBE"/>
<path d="M526.006 450.81C524.929 453.591 525.258 456.702 524.825 459.649C523.224 470.283 512.411 476.654 502.63 481.111C492.848 485.568 481.81 490.848 478.699 501.122C475.289 512.235 482.738 523.377 487.913 533.802C497.993 554.113 499.429 580.017 486.417 598.593C474.856 615.045 454.71 622.852 435.745 629.702C444.872 636.882 456.216 640.658 467.826 640.381C463.474 653.048 447.994 657.251 434.803 659.584C441.728 666.255 451.644 668.678 461.141 670.143C468.066 671.22 475.17 671.923 482.08 670.532C488.989 669.141 495.54 665.387 499.1 659.315C502.091 654.125 503.108 647.051 508.507 644.434C510.945 643.474 513.57 643.09 516.18 643.312L538.614 643.551C545.599 643.551 553.87 643.013 557.474 637.045C558.804 634.496 559.501 631.665 559.508 628.789C560.481 614.072 557.654 598.518 563.711 585.087C565.536 581.034 553.825 574.618 555.051 570.325C559.269 555.563 560.331 543.942 560.286 528.582C560.286 516.692 568.019 506.447 574.405 496.411C580.791 486.376 586.131 473.708 581.09 462.939C575.407 450.929 532.722 433.475 526.006 450.81Z" fill="#3F3D56"/>
<path d="M555.874 998.449L561.587 1002.23L562.47 1002.82L562.634 1002.92L569.409 1007.41L585.233 1010.07L599.143 1009.11C599.143 1009.11 603.151 1000.74 596.854 1000.93C594.837 1000.83 592.872 1000.26 591.111 999.272L590.244 998.838C589.331 998.359 588.419 997.821 587.522 997.253C585.652 996.071 583.887 994.785 582.466 993.693C580.372 992.078 578.981 990.851 578.981 990.851L555.874 998.449Z" fill="#FBBEBE"/>
<path opacity="0.1" d="M561.662 1002.23L562.545 1002.82L562.709 1002.92L569.484 1007.41L585.308 1010.07L599.217 1009.11C599.217 1009.11 603.226 1000.74 596.929 1000.93C594.912 1000.83 592.947 1000.26 591.186 999.272C592.293 1000.14 593.22 1001.08 593.31 1001.87C593.564 1004.01 583.02 1007.86 583.02 1007.86L568.153 1003.92C568.153 1003.92 565.626 1003.21 562.171 1002.31L561.842 1002.22L561.662 1002.23Z" fill="black"/>
<path d="M536.237 1005.88C536.237 1005.88 548.427 1008.54 556.623 1007.78C564.819 1007.02 578.938 1014.08 578.938 1014.08C578.938 1014.08 583.709 1016.32 598.381 1017.28C613.053 1018.24 613.053 1010.79 613.053 1010.79C611.378 1000.66 588.195 997.327 587.478 997.178C587.762 997.327 588.973 997.941 590.2 998.763C591.845 999.84 593.625 1001.25 593.759 1002.38C594.013 1004.51 583.469 1008.37 583.469 1008.37L568.603 1004.45C568.603 1004.45 566.075 1003.71 562.62 1002.82H562.291C557.168 1001.42 551.963 1000.35 546.707 999.601C540.305 998.913 537.03 1004.36 536.357 1005.58C536.308 1005.68 536.268 1005.78 536.237 1005.88V1005.88Z" fill="#3F3D56"/>
<path d="M344.108 736.923L350.584 741.889C350.584 741.889 352.469 741.799 355.281 741.709H356.178C360.201 741.56 365.75 741.41 370.461 741.41C373.507 741.273 376.558 741.444 379.57 741.919C382.8 743.056 388.544 723.433 388.544 723.433L382.053 721.937L379.899 721.429L378.403 721.07L373.124 719.828L357.12 721.653L345.873 728.892L344.108 736.923Z" fill="#FBBEBE"/>
<path opacity="0.1" d="M344.108 736.923L350.584 741.889C350.584 741.889 352.469 741.799 355.281 741.709C353.99 741.212 352.927 740.26 352.289 739.032C348.102 727.411 368.876 722.446 368.876 722.446L378.553 722.027L380.437 721.937H381.933L379.779 721.429L378.284 721.07L373.004 719.828L357.001 721.653L345.754 728.892L344.108 736.923Z" fill="black"/>
<path d="M331.335 742.173C335.254 745.792 360.919 742.173 361.996 742.083C360.048 742.303 358.076 742.166 356.178 741.679C355.238 741.511 354.347 741.135 353.571 740.579C352.794 740.023 352.152 739.3 351.691 738.464C347.503 726.828 368.277 721.877 368.277 721.877L377.954 721.459L379.824 721.369L403.35 720.352L404.486 713.876C404.486 713.876 396.844 714.594 384.849 715.551C378.104 716.104 369.893 716.717 361.024 717.301C336.241 718.946 330.348 735.024 330.348 735.024C330.348 735.024 327.342 738.464 331.335 742.173Z" fill="#3F3D56"/>
<path d="M619.17 461.443C619.329 461.799 619.519 462.139 619.738 462.46L625.451 470.836L640.318 472.332L640.482 466.439L642.98 377.778C642.98 377.778 653.27 318.312 633.827 321.737C614.384 325.162 626.588 377.778 626.588 377.778C626.588 377.778 624.374 404.46 622.819 412.477C621.308 420.224 614.533 451.722 619.17 461.443Z" fill="#FBBEBE"/>
<path d="M585.802 681.66L590.034 688.899L599.502 705.096C599.502 705.096 616.671 711.393 621.069 706.592C623.477 703.975 626.079 694.836 627.904 687.149C629.399 680.927 630.401 675.677 630.401 675.677L585.802 681.66Z" fill="#FBBEBE"/>
<path opacity="0.1" d="M585.802 681.66L590.034 688.899C590.3 688.67 590.54 688.415 590.752 688.136C595.538 682.034 616.612 686.835 627.904 687.224C629.399 681.002 630.401 675.752 630.401 675.752L585.802 681.66Z" fill="black"/>
<path opacity="0.1" d="M370.461 741.38C373.506 741.243 376.558 741.414 379.569 741.889C382.8 743.026 388.543 723.403 388.543 723.403L379.898 721.369L403.425 720.352L404.561 713.876C404.561 713.876 396.919 714.594 384.924 715.551C382.445 716.978 380.234 718.825 378.388 721.01L378.029 721.459C373.018 727.606 371.164 735.532 370.461 741.38Z" fill="black"/>
<path opacity="0.1" d="M555.874 998.449L562.47 1002.82C572.311 1001.04 581.3 998.24 582.362 993.842C582.366 993.773 582.366 993.703 582.362 993.633C580.268 992.018 578.877 990.791 578.877 990.791L555.874 998.449Z" fill="black"/>
<path opacity="0.1" d="M536.371 1005.63C545.062 1005.2 553.721 1004.27 562.305 1002.85C557.178 1001.44 551.968 1000.36 546.706 999.601C540.32 998.913 537.044 1004.36 536.371 1005.63Z" fill="black"/>
<path d="M371.179 748.933C371.179 753.704 384.325 756.755 384.325 756.755L424.363 792.396C424.363 792.396 449.52 803.643 465.523 819.841C481.526 836.039 495.645 822.129 495.645 822.129C512.605 817.942 561.453 758.849 561.453 758.849C561.453 758.849 562.589 826.332 564.878 831.283C567.166 836.233 564.115 849.769 562.784 855.497C561.944 860.274 561.623 865.128 561.827 869.975C561.827 869.975 543.535 939.925 545.061 946.027C546.586 952.13 535.145 980.726 535.145 980.726V1004.55C535.145 1004.55 579.939 1002.83 582.406 992.736C584.874 982.64 571.174 978.243 571.174 978.243V975.76C580.148 971.184 581.838 939.746 581.838 939.746C581.838 939.746 595.194 900.859 597.094 894.383C598.993 887.907 597.094 878.171 597.094 878.171L598.425 869.795C598.425 869.795 601.281 864.067 601.281 862.93C601.655 860.028 602.773 857.271 604.527 854.929C606.621 852.446 602.238 846.538 602.238 846.538L606.052 836.622V825.764L615.026 786.309C615.026 786.309 624.374 740.363 621.128 725.302C617.883 710.241 624.942 702.629 624.942 702.629C609.642 710.645 601.924 692.802 599.397 685.13C598.754 683.156 598.44 681.839 598.44 681.839C598.44 681.839 577.426 674.092 557.863 675.947C553.89 676.269 549.975 677.098 546.212 678.414C524.481 686.237 521.056 718.632 521.056 718.632L501.807 747.991C491.891 774.105 477.024 776.767 477.024 776.767C477.024 776.767 442.146 753.33 441.129 752.179C440.112 751.027 426.831 745.314 426.831 745.314C425.261 742.55 422.858 740.352 419.966 739.032C415.39 737.118 415.016 730.058 415.016 730.058C414.447 713.472 404.726 712.111 404.726 712.111C370.984 709.299 371.179 744.177 371.179 748.933Z" fill="#3F3D56"/>
<path d="M565.222 655.741H585.802V591.892H565.222V655.741Z" fill="#F86D70"/>
<path opacity="0.1" d="M565.222 655.741H585.802V591.892H565.222V655.741Z" fill="black"/>
<path opacity="0.1" d="M619.155 461.309C619.152 461.354 619.152 461.399 619.155 461.443C619.314 461.798 619.504 462.139 619.723 462.46L625.436 470.836L640.303 472.332L640.467 466.439C635.831 466.08 625.272 464.809 619.155 461.309Z" fill="black"/>
<path d="M619.738 462.46C619.738 462.46 620.5 495.992 612.11 500.569C603.719 505.146 600.459 528.986 600.459 528.986C600.459 528.986 625.885 545.707 631.553 553.066C637.222 560.424 650.234 577.953 647.556 582.141C644.879 586.328 654.047 605.398 654.047 605.398C654.047 605.398 637.266 639.707 641.08 652.674C644.894 665.642 645.268 699.936 645.268 699.936H652.522C652.522 699.936 650.234 671.729 650.234 660.287C650.234 648.846 657.846 608.06 657.846 608.06C657.846 608.06 661.286 568.037 657.846 566.9C654.406 565.764 634.215 549.745 632.69 542.492C631.164 535.238 643.369 467.71 643.369 467.71C643.369 467.71 627.739 467.037 619.738 462.46Z" fill="#F86D70"/>
<path opacity="0.1" d="M564.834 585.97C565.53 590.636 567.229 595.095 569.814 599.041L583.903 596.648C583.903 596.648 626.215 587.106 634.949 586.329C640.24 585.63 645.4 584.158 650.264 581.961C646.912 570.082 640.368 559.349 631.345 550.927L625.975 545.947C618.063 538.601 608.893 532.739 598.904 528.642C599.533 529.166 643.923 567.065 634.201 574.498C624.48 581.931 598.306 563.834 598.306 563.834L568.543 538.259L567.466 537.332L565.746 540.009C566.621 540.369 567.475 540.778 568.304 541.235C578.447 546.803 585.975 556.159 589.243 567.259C595.36 587.824 564.834 585.97 564.834 585.97Z" fill="black"/>
<path d="M555.68 681.271C555.68 681.271 583.887 696.9 590.737 688.136C592.233 686.207 595.389 685.369 599.322 685.145C598.679 683.17 598.365 681.854 598.365 681.854C598.365 681.854 577.351 674.107 557.789 675.962C556.502 679.192 555.68 681.271 555.68 681.271Z" fill="#444053"/>
<path d="M568.662 537.362L599.502 563.894C599.502 563.894 625.57 582.051 635.397 574.558C645.223 567.065 600.085 528.687 600.085 528.687C610.053 532.796 619.213 538.64 627.141 545.946L632.51 550.927C646.629 564.014 649.815 564.014 650.293 583.247C650.413 587.989 648.798 594.794 647.556 596.02C642.98 600.507 639.779 633.097 640.482 636.911C641.185 640.725 631.957 673.643 634.948 682.797C637.939 691.95 597.557 678.22 590.722 686.999C583.887 695.779 555.68 680.134 555.68 680.134C555.68 680.134 571.309 640.096 575.123 637.434C578.937 634.772 583.513 614.177 575.123 604.65C566.732 595.123 565.985 585.97 565.985 585.97C565.985 585.97 596.495 587.854 590.378 567.289C588.657 561.328 585.672 555.809 581.625 551.106C577.578 546.404 572.565 542.629 566.927 540.039L568.662 537.362Z" fill="#E8E8F0"/>
<path opacity="0.1" d="M609.822 604.844C609.822 604.844 597.991 627.144 582.691 632.932C582.197 633.112 581.719 633.276 581.195 633.426C565.222 638.287 611.018 611.754 609.822 604.844Z" fill="black"/>
<path d="M444.375 407.556C444.375 407.556 450.088 422.049 454.665 426.999C459.241 431.95 493.162 481.515 493.162 481.515L496.034 487.497L498.502 492.597L520.233 490.309L521.729 481.545L520.891 480.528C518.708 477.91 512.755 470.881 508.762 467.815C503.811 464.016 493.895 451.438 493.895 451.438C493.895 451.438 463.025 419.401 460.737 410.637C458.449 401.873 427.564 349.316 420.714 358.41C413.864 367.503 444.375 407.556 444.375 407.556Z" fill="#FBBEBE"/>
<g opacity="0.1">
<path opacity="0.1" d="M507.431 643.312C504.823 643.086 502.197 643.465 499.759 644.419C494.375 647.036 493.358 654.11 490.366 659.3C486.866 665.372 480.196 669.126 473.331 670.517C471.967 670.782 470.588 670.972 469.203 671.086C473.575 671.511 477.986 671.32 482.305 670.517C489.17 669.126 495.84 665.372 499.34 659.3C502.331 654.11 503.348 647.036 508.733 644.419C510.146 643.782 511.67 643.427 513.219 643.372L507.431 643.312Z" fill="black"/>
<path opacity="0.1" d="M560.556 528.582C560.556 516.692 568.289 506.447 574.66 496.411C581.032 486.376 586.386 473.708 581.346 462.939C577.038 453.741 551.074 441.402 536.088 443.84C550.76 445.739 568.842 455.401 572.372 462.939C577.412 473.708 572.058 486.376 565.686 496.411C559.315 506.447 551.553 516.692 551.583 528.582C551.583 543.927 550.551 555.504 546.333 570.325C545.122 574.588 556.802 581.034 555.008 585.072C548.935 598.533 551.777 614.057 550.805 628.774C550.785 631.65 550.083 634.479 548.756 637.03C545.765 641.951 539.633 643.222 533.665 643.491H538.885C545.854 643.491 554.125 642.953 557.73 636.985C559.056 634.434 559.759 631.605 559.779 628.73C560.751 614.013 557.909 598.473 563.981 585.027C565.806 580.989 554.095 574.558 555.307 570.28C559.524 555.563 560.586 543.927 560.556 528.582Z" fill="black"/>
</g>
<path opacity="0.1" d="M496.034 487.467L498.502 492.567L520.233 490.279L521.729 481.515L520.892 480.498C518.573 481.634 501.209 489.995 496.034 487.467Z" fill="black"/>
<path opacity="0.1" d="M576.275 544.795C576.275 544.795 570.935 536.419 567.884 538.693C564.833 540.966 563.652 531.828 561.902 533.353C560.152 534.879 555.052 539.126 552.928 533.189C551.268 528.463 533.2 498.565 525.872 486.54C523.987 483.429 522.806 481.515 522.806 481.515C522.806 481.515 502.226 491.805 497.275 488.38V495.619L501.463 496.007L523.898 537.885C523.898 537.885 530.957 549.117 530.478 553.036C530 556.954 539.527 574.109 541.053 575.246C542.578 576.383 559 595.452 559 595.452C559 595.452 567.391 636.627 560.137 648.068C552.883 659.51 540.32 667.885 540.32 667.885C540.32 667.885 536.536 678.938 537.089 680.089C537.642 681.241 532.692 686.192 534.98 687.717C537.269 689.243 540.32 699.907 540.32 699.907C540.32 699.907 550.998 682.752 556.772 680.089C562.545 677.427 569.933 642.34 569.933 642.34C569.933 642.34 572.042 621.67 572.207 608.329C572.371 594.988 571.698 544.795 576.275 544.795Z" fill="black"/>
<path d="M575.123 544.795C575.123 544.795 569.799 536.419 566.748 538.693C563.697 540.966 562.5 531.828 560.765 533.353C559.03 534.879 553.93 539.126 551.791 533.189C550.116 528.463 532.049 498.565 524.735 486.54L521.669 481.515C521.669 481.515 501.09 491.805 496.124 488.38V495.619L500.327 496.007L522.761 537.885C522.761 537.885 529.836 549.117 529.342 553.036C528.848 556.954 538.316 574.109 539.916 575.246C541.516 576.383 557.864 595.452 557.864 595.452C557.864 595.452 566.254 636.627 559.015 648.068C555.191 653.815 550.539 658.966 545.211 663.353C540.734 667.046 537.584 672.097 536.237 677.741C535.977 678.511 535.885 679.327 535.968 680.134C536.521 681.271 531.57 686.237 533.859 687.762C536.147 689.288 539.228 699.996 539.228 699.996C539.228 699.996 549.907 682.841 555.68 680.179C561.453 677.517 568.856 642.43 568.856 642.43C568.856 642.43 570.95 621.76 571.13 608.419C571.309 595.078 570.636 544.795 575.123 544.795Z" fill="#F86D70"/>
<path opacity="0.1" d="M522.896 718.258C522.896 718.258 538.914 721.249 545.33 725.871C551.747 730.492 520.937 718.632 520.937 718.632L522.896 718.258Z" fill="black"/>
<path opacity="0.1" d="M561.408 758.849C561.408 758.849 578.114 772.774 575.123 785.352C572.132 797.93 564.414 829.578 564.414 829.578L561.408 758.849Z" fill="black"/>
<path opacity="0.1" d="M415.301 732.078C415.301 732.078 391.759 734.65 393.285 737.701C394.81 740.752 415.301 734.889 415.301 734.889V732.078Z" fill="black"/>
<path opacity="0.1" d="M596.062 847.869C596.062 847.869 597.558 849.769 588.823 847.869C580.089 845.97 586.535 840.107 586.535 840.107L596.062 847.869Z" fill="black"/>
<path opacity="0.1" d="M593.071 874.177C593.071 874.177 581.106 876.077 574.689 874.177C568.273 872.278 593.071 874.177 593.071 874.177Z" fill="black"/>
<path opacity="0.1" d="M568.453 977.106C568.453 977.106 566.359 974.818 555.875 979.006C545.39 983.194 541.202 983.388 538.151 981.997C535.1 980.606 568.453 977.106 568.453 977.106Z" fill="black"/>
<path opacity="0.1" d="M580.088 728.832L565.222 749.517C565.222 749.517 573.223 731.405 580.088 728.832Z" fill="black"/>
<path opacity="0.1" d="M551.194 538.693C551.194 538.693 550.55 545.558 540.963 548.235C531.376 550.912 529.552 553.081 529.552 553.081" fill="black"/>
<path opacity="0.1" d="M526.275 488.933C526.275 488.933 513.622 497.907 500.416 496.007Z" fill="black"/>
<path opacity="0.1" d="M535.908 681.077C535.908 681.077 539.602 683.395 548.471 673.254Z" fill="black"/>
<path opacity="0.1" d="M628.024 573.556C628.383 571.701 627.097 569.981 625.885 568.531L623.402 565.539C622.917 564.927 622.371 564.366 621.772 563.864C620.277 562.713 618.362 562.369 616.807 561.337" fill="black"/>
<path opacity="0.1" d="M1431.06 52.1645C1431.06 52.1645 1305.14 44.5667 1319.95 132.809C1319.95 132.809 1316.96 148.408 1331.13 155.483C1331.13 155.483 1331.36 148.947 1344.06 151.175C1348.58 151.925 1353.17 152.145 1357.74 151.833C1363.92 151.407 1369.79 148.981 1374.46 144.923V144.923C1374.46 144.923 1409.86 130.296 1423.62 72.4453C1423.62 72.4453 1433.81 59.8221 1433.41 56.5766L1412.15 65.6551C1412.15 65.6551 1419.42 80.9853 1413.65 93.7281C1413.65 93.7281 1412.96 66.2085 1408.88 66.8067C1408.05 66.9413 1397.84 72.1162 1397.84 72.1162C1397.84 72.1162 1410.33 98.8132 1400.91 118.226C1400.91 118.226 1404.48 85.3226 1393.94 74.0456L1378.98 82.7801C1378.98 82.7801 1393.58 110.359 1383.68 132.869C1383.68 132.869 1386.22 98.3496 1375.82 84.9039L1362.27 95.4779C1362.27 95.4779 1375.99 122.668 1367.63 141.334C1367.63 141.334 1366.54 101.146 1359.34 98.1103C1359.34 98.1103 1347.48 108.58 1345.67 112.857C1345.67 112.857 1355.06 132.599 1349.23 143.009C1349.23 143.009 1345.66 116.237 1342.73 116.088C1342.73 116.088 1330.91 133.826 1329.68 146C1329.68 146 1330.19 127.918 1339.87 114.413C1339.87 114.413 1328.44 116.372 1321.77 123.775C1321.77 123.775 1323.61 111.242 1342.79 110.15C1342.79 110.15 1352.55 96.6894 1355.15 95.8668C1355.15 95.8668 1336.1 94.2814 1324.54 99.3965C1324.54 99.3965 1334.71 87.5661 1358.65 92.9503L1372.04 82.0173C1372.04 82.0173 1346.94 78.5923 1336.29 82.3762C1336.29 82.3762 1348.54 71.9068 1375.64 79.5345L1390.21 70.83C1390.21 70.83 1368.81 66.2234 1356.07 67.8387C1356.07 67.8387 1369.53 60.5849 1394.49 68.4519L1404.96 63.7706C1404.96 63.7706 1389.28 60.6896 1384.69 60.1961C1380.1 59.7025 1379.86 58.4462 1379.86 58.4462C1389.79 56.7903 1399.99 57.9242 1409.31 61.7216C1409.31 61.7216 1431.45 53.5555 1431.06 52.1645Z" fill="#FC164D"/>
<path opacity="0.1" d="M1275.75 74.6139C1275.75 74.6139 1218.92 71.174 1225.57 111.047C1225.57 111.047 1224.24 118.107 1230.61 121.307C1230.61 121.307 1230.72 118.316 1236.46 119.348C1238.5 119.692 1240.57 119.792 1242.64 119.647C1245.43 119.458 1248.08 118.36 1250.19 116.521V116.521C1250.19 116.521 1266.19 109.926 1272.42 83.7821C1272.42 83.7821 1277.01 78.0688 1276.83 76.6031L1267.23 80.7011C1267.23 80.7011 1270.52 87.6408 1267.93 93.399C1267.93 93.399 1267.61 80.9554 1265.77 81.2545C1265.4 81.2545 1260.78 83.6475 1260.78 83.6475C1260.78 83.6475 1266.43 95.7172 1262.17 104.497C1262.17 104.497 1263.79 89.63 1259.01 84.5299L1252.25 88.4784C1252.25 88.4784 1258.86 100.937 1254.38 111.107C1254.38 111.107 1255.53 95.5079 1250.83 89.4356L1244.72 94.2665C1244.72 94.2665 1250.91 106.561 1247.14 114.981C1247.14 114.981 1246.65 96.824 1243.39 95.463C1243.39 95.463 1238.03 100.189 1237.21 102.133C1237.21 102.133 1241.46 111.107 1238.82 115.744C1238.82 115.744 1237.21 103.644 1235.83 103.599C1235.83 103.599 1230.51 111.616 1229.94 117.06C1230.21 111.979 1231.79 107.056 1234.55 102.777C1231.46 103.36 1228.62 104.831 1226.36 107.009C1226.36 107.009 1227.2 101.356 1235.86 100.847C1235.86 100.847 1240.35 94.775 1241.46 94.4011C1241.46 94.4011 1232.84 93.6832 1227.62 96.0014C1227.62 96.0014 1232.21 90.6471 1243.04 93.0102L1249.02 88.0746C1249.02 88.0746 1237.69 86.579 1232.87 88.2391C1232.87 88.2391 1238.4 83.5129 1250.65 86.9529L1257.23 83.0193C1257.23 83.0193 1247.57 80.9255 1241.8 81.6882C1241.8 81.6882 1247.89 78.3979 1259.16 81.9575L1263.88 79.8486C1263.88 79.8486 1256.79 78.4427 1254.71 78.2333C1252.63 78.0239 1252.52 77.4407 1252.52 77.4407C1257.01 76.6938 1261.62 77.2116 1265.83 78.9363C1265.83 78.9363 1275.93 75.2421 1275.75 74.6139Z" fill="#FC164D"/>
<path d="M1474.28 1025.3C1507.49 1025.3 1534.42 1020.74 1534.42 1015.13C1534.42 1009.51 1507.49 1004.96 1474.28 1004.96C1441.07 1004.96 1414.14 1009.51 1414.14 1015.13C1414.14 1020.74 1441.07 1025.3 1474.28 1025.3Z" fill="#FC164D"/>
<path d="M1499.15 998.494C1501.9 996.257 1503.9 993.236 1504.88 989.834C1505.63 986.409 1504.16 982.356 1500.87 981.025C1497.19 979.619 1493.26 982.177 1490.28 984.749C1487.31 987.322 1483.88 990.268 1479.99 989.715C1482 987.894 1483.5 985.587 1484.35 983.016C1485.2 980.445 1485.37 977.698 1484.84 975.043C1484.67 973.942 1484.2 972.908 1483.49 972.051C1481.44 969.868 1477.75 970.795 1475.3 972.515C1467.52 977.989 1465.35 988.563 1465.31 998.06C1464.53 994.635 1465.19 991.061 1465.17 987.591C1465.16 984.121 1464.19 980.113 1461.21 978.273C1459.37 977.286 1457.31 976.801 1455.23 976.867C1451.74 976.733 1447.84 977.092 1445.46 979.649C1442.47 982.82 1443.26 988.144 1445.83 991.614C1448.41 995.084 1452.34 997.312 1455.96 999.72C1458.85 1001.45 1461.32 1003.8 1463.18 1006.62C1463.41 1007.01 1463.59 1007.42 1463.72 1007.86H1485.65C1490.55 1005.36 1495.09 1002.21 1499.15 998.494V998.494Z" fill="#FC164D"/>
</g>
<defs>
<linearGradient id="paint0_linear" x1="1313.23" y1="807.188" x2="1313.23" y2="205.496" gradientUnits="userSpaceOnUse">
<stop stop-color="#808080" stop-opacity="0.25"/>
<stop offset="0.54" stop-color="#808080" stop-opacity="0.12"/>
<stop offset="1" stop-color="#808080" stop-opacity="0.1"/>
</linearGradient>
<linearGradient id="paint1_linear" x1="59706.9" y1="374834" x2="133578" y2="374834" gradientUnits="userSpaceOnUse">
<stop stop-color="#808080" stop-opacity="0.25"/>
<stop offset="0.54" stop-color="#808080" stop-opacity="0.12"/>
<stop offset="1" stop-color="#808080" stop-opacity="0.1"/>
</linearGradient>
<clipPath id="clip0">
<rect x="104" y="52" width="1711" height="975.928" fill="white"/>
</clipPath>
</defs>
</svg>
